<svg width="25" height="31" viewBox="0 0 25 31" fill="none" xmlns="http://www.w3.org/2000/svg">
<g clip-path="url(#clip0_3054_31386)">
<path d="M9.66087 20.562L9.66087 0.925604C9.66087 0.478331 10.0318 0.107422 10.479 0.107422L23.57 0.107423C24.0172 0.107423 24.3881 0.478332 24.3881 0.925605L24.3881 20.562C24.3881 21.0092 24.0172 21.3802 23.57 21.3802L10.479 21.3802C10.0318 21.3802 9.66087 21.0092 9.66087 20.562ZM22.7518 19.7438L22.7518 1.74379L11.2972 1.74379L11.2972 19.7438L22.7518 19.7438ZM6.11541 25.7438L20.2972 25.7438C20.7445 25.7438 21.1154 25.3729 21.1154 24.9256C21.1154 24.4783 20.7445 24.1074 20.2972 24.1074L6.93359 24.1074L6.93359 5.28924C6.93359 4.84197 6.56269 4.47106 6.11541 4.47106C5.66814 4.47106 5.29723 4.84197 5.29723 5.28924L5.29723 24.9256C5.29723 25.3729 5.66814 25.7438 6.11541 25.7438ZM1.75177 30.1074L15.9336 30.1074C16.3809 30.1074 16.7518 29.7365 16.7518 29.2892C16.7518 28.842 16.3809 28.4711 15.9336 28.4711L2.56996 28.4711L2.56996 9.65288C2.56996 9.2056 2.19905 8.83469 1.75178 8.83469C1.3045 8.83469 0.933593 9.2056 0.933593 9.65288L0.933592 29.2892C0.933592 29.7365 1.3045 30.1074 1.75177 30.1074Z" fill="black"/>
</g>
<defs>
<clipPath id="clip0_3054_31386">
<rect width="30" height="23.4545" fill="white" transform="matrix(-4.37114e-08 1 1 4.37114e-08 0.933594 0.107422)"/>
</clipPath>
</defs>
</svg>
