<svg width="22" height="21" viewBox="0 0 22 21" fill="none" xmlns="http://www.w3.org/2000/svg">
<path d="M16.0236 3.89233H5.95203V5.57092H16.0236V3.89233Z" fill="black"/>
<path d="M16.0236 7.24951H5.95203V8.9281H16.0236V7.24951Z" fill="black"/>
<path d="M5.95203 10.6067H12.6664V12.2853H5.95203V10.6067Z" fill="black"/>
<path fill-rule="evenodd" clip-rule="evenodd" d="M4.27344 0.535156C2.41932 0.535156 0.91626 2.03822 0.91626 3.89233V12.2853C0.91626 14.1394 2.41932 15.6425 4.27344 15.6425V20.6782L10.0533 15.6425H17.7021C19.5563 15.6425 21.0593 14.1394 21.0593 12.2853V3.89233C21.0593 2.03822 19.5563 0.535156 17.7021 0.535156H4.27344ZM2.59485 3.89233C2.59485 2.96528 3.34638 2.21375 4.27344 2.21375H17.7021C18.6292 2.21375 19.3807 2.96528 19.3807 3.89233V12.2853C19.3807 13.2123 18.6292 13.9639 17.7021 13.9639H9.40437L5.95203 16.8837V13.9639H4.27344C3.34638 13.9639 2.59485 13.2123 2.59485 12.2853V3.89233Z" fill="black"/>
</svg>
