<svg width="21" height="17" viewBox="0 0 21 17" fill="none" xmlns="http://www.w3.org/2000/svg">
<g clip-path="url(#clip0_3109_16003)">
<path d="M10.2033 0.210938C9.69608 0.210938 9.2811 0.630688 9.2811 1.14372V9.65531L7.52435 7.87837C7.34453 7.69648 7.11398 7.6032 6.87422 7.6032C6.63906 7.6032 6.40391 7.69648 6.22408 7.87837C5.86443 8.24216 5.86443 8.82514 6.22408 9.18892L9.50703 12.5283C9.69147 12.7148 9.94046 12.8081 10.1848 12.8034C10.1894 12.8034 10.1941 12.8034 10.1987 12.8034C10.2033 12.8034 10.2079 12.7894 10.2125 12.7894C10.4615 12.7988 10.7013 12.7195 10.8903 12.5283L14.1733 9.18892C14.5329 8.82514 14.5329 8.24216 14.1733 7.87837C13.9934 7.69648 13.7629 7.6032 13.5231 7.6032C13.288 7.6032 13.0528 7.69648 12.873 7.87837L11.1162 9.65531V1.14372C11.1162 0.630688 10.7013 0.210938 10.1941 0.210938H10.2033ZM0.981504 10.4435C0.474306 10.4435 0.0593262 10.8633 0.0593262 11.3763V14.2026C0.0593262 15.7464 1.29965 17.0009 2.82586 17.0009H17.5807C19.1069 17.0009 20.3472 15.7464 20.3472 14.2026V11.3763C20.3472 10.8633 19.9322 10.4435 19.4251 10.4435C18.9179 10.4435 18.5029 10.8633 18.5029 11.3763V14.2026C18.5029 14.7156 18.0879 15.1354 17.5807 15.1354H2.82586C2.31866 15.1354 1.90368 14.7156 1.90368 14.2026V11.3763C1.90368 10.8633 1.4887 10.4435 0.981504 10.4435Z" fill="black"/>
</g>
<defs>
<clipPath id="clip0_3109_16003">
<rect width="20.2879" height="16.79" fill="white" transform="translate(0.0593262 0.210938)"/>
</clipPath>
</defs>
</svg>
