<svg width="50" height="51" viewBox="0 0 50 51" fill="none" xmlns="http://www.w3.org/2000/svg">
<g id="Group 245">
<path id="Vector" fill-rule="evenodd" clip-rule="evenodd" d="M21.3992 30.9411C21.3992 29.1195 21.392 27.2989 21.4054 25.4782C21.4075 25.1717 21.3211 25.075 21.015 25.0874C20.4478 25.11 19.8796 25.0853 19.3124 25.0976C19.0822 25.1038 18.998 25.04 19 24.7963C19.0113 23.6597 19.0103 22.523 19.0011 21.3864C18.999 21.1684 19.0648 21.0964 19.2857 21.1005C19.8662 21.1139 20.4478 21.084 21.0273 21.1128C21.3633 21.1293 21.4321 21.01 21.4259 20.6983C21.4054 19.8333 21.4054 18.9672 21.4249 18.1021C21.4475 17.0457 21.7311 16.0593 22.3599 15.2004C23.1542 14.1142 24.2844 13.6174 25.5894 13.5588C26.9292 13.4991 28.2721 13.532 29.614 13.5176C29.8011 13.5156 29.8565 13.5824 29.8565 13.7645C29.8504 14.9134 29.8493 16.0634 29.8565 17.2124C29.8586 17.4171 29.7918 17.4798 29.5914 17.4757C28.9462 17.4654 28.3009 17.4705 27.6567 17.4726C26.7977 17.4757 26.2839 17.918 26.2305 18.7686C26.1874 19.4506 26.2192 20.1367 26.2028 20.8217C26.1966 21.0655 26.3415 21.0491 26.5028 21.0491C27.483 21.048 28.4643 21.0583 29.4445 21.0419C29.7322 21.0367 29.8267 21.1036 29.7939 21.406C29.6706 22.5477 29.5647 23.6915 29.4671 24.8364C29.4445 25.0946 29.3274 25.1439 29.0952 25.1398C28.3215 25.1275 27.5478 25.1316 26.773 25.1367C26.2172 25.1398 26.2716 25.0555 26.2716 25.6233C26.2685 29.1874 26.2644 32.7525 26.2798 36.3166C26.2819 36.6931 26.1853 36.7867 25.8133 36.7795C24.4848 36.7548 23.1552 36.7538 21.8267 36.7795C21.4527 36.7867 21.391 36.6602 21.3941 36.3259C21.4085 34.531 21.4013 32.7361 21.4013 30.9401L21.3992 30.9411Z" fill="white"/>
</g>
</svg>
