<svg width="50" height="51" viewBox="0 0 50 51" fill="none" xmlns="http://www.w3.org/2000/svg">
<circle cx="25" cy="25.5176" r="25" fill="#D2F960"/>
<path d="M15.3593 20.7038H19.8555V35.1426H15.3593V20.7038ZM17.605 13.5176C19.0375 13.5176 20.2053 14.6853 20.2053 16.1179C20.2053 17.5504 19.0375 18.7229 17.605 18.7229C16.1678 18.7182 15 17.5551 15 16.1179C15 14.6806 16.163 13.5176 17.6003 13.5176M22.6591 20.7038H26.9614V22.6753H27.0228C27.6233 21.5407 29.0841 20.3445 31.2778 20.3445C35.8213 20.3445 36.6628 23.3372 36.6628 27.2235V35.1426H32.1761V28.1171C32.1761 26.4434 32.1478 24.2875 29.8453 24.2875C27.5429 24.2875 27.1505 26.1125 27.1505 27.9941V35.1379H22.6685V20.6991H22.6638L22.6591 20.7038Z" fill="black"/>
</svg>
