<svg width="50" height="51" viewBox="0 0 50 51" fill="none" xmlns="http://www.w3.org/2000/svg">
<circle cx="25" cy="25.5176" r="25" fill="#D2F960"/>
<g clip-path="url(#clip0_1667_1418)">
<path d="M24.6311 15.613C27.737 15.613 28.105 15.6248 29.3309 15.6812C30.4649 15.7329 31.081 15.922 31.4908 16.0819C32.0333 16.2927 32.4213 16.5453 32.8284 16.9524C33.2355 17.3595 33.4872 17.7466 33.698 18.29C33.857 18.6998 34.0469 19.3159 34.0987 20.4499C34.1551 21.6766 34.1669 22.0447 34.1669 25.1496C34.1669 28.2546 34.1551 28.6235 34.0987 29.8493C34.0469 30.9834 33.8579 31.5995 33.698 32.0093C33.4872 32.5518 33.2346 32.9398 32.8284 33.3469C32.4213 33.754 32.0342 34.0057 31.4908 34.2165C31.081 34.3755 30.4649 34.5654 29.3309 34.6172C28.1041 34.6735 27.737 34.6854 24.6311 34.6854C21.5253 34.6854 21.1573 34.6735 19.9314 34.6172C18.7974 34.5654 18.1813 34.3764 17.7715 34.2165C17.229 34.0057 16.841 33.753 16.4339 33.3469C16.0268 32.9398 15.7751 32.5527 15.5643 32.0093C15.4053 31.5995 15.2154 30.9834 15.1636 29.8493C15.1072 28.6226 15.0954 28.2546 15.0954 25.1496C15.0954 22.0447 15.1072 21.6757 15.1636 20.4499C15.2154 19.3159 15.4044 18.6998 15.5643 18.29C15.7751 17.7475 16.0277 17.3595 16.4339 16.9524C16.841 16.5453 17.2281 16.2936 17.7715 16.0819C18.1813 15.9229 18.7974 15.7329 19.9314 15.6812C21.1582 15.6248 21.5262 15.613 24.6311 15.613ZM24.6311 13.5176C21.4726 13.5176 21.0764 13.5312 19.836 13.5875C18.5984 13.6439 17.7524 13.8411 17.0127 14.1282C16.2476 14.4254 15.5988 14.8234 14.9528 15.4694C14.3058 16.1164 13.9087 16.7643 13.6115 17.5294C13.3235 18.27 13.1263 19.1151 13.07 20.3536C13.0136 21.594 13 21.9901 13 25.1487C13 28.3073 13.0136 28.7035 13.07 29.9438C13.1263 31.1815 13.3235 32.0275 13.6106 32.7671C13.9078 33.5322 14.3058 34.181 14.9519 34.8271C15.5988 35.4741 16.2467 35.8712 17.0118 36.1683C17.7515 36.4555 18.5975 36.6527 19.8351 36.709C21.0755 36.7653 21.4717 36.779 24.6302 36.779C27.7888 36.779 28.185 36.7653 29.4254 36.709C30.663 36.6527 31.509 36.4555 32.2486 36.1683C33.0138 35.8712 33.6625 35.4732 34.3086 34.8271C34.9556 34.1801 35.3527 33.5322 35.6498 32.7671C35.937 32.0275 36.1342 31.1815 36.1905 29.9438C36.2468 28.7035 36.2605 28.3073 36.2605 25.1487C36.2605 21.9901 36.2468 21.594 36.1905 20.3536C36.1342 19.116 35.937 18.27 35.6498 17.5303C35.3527 16.7652 34.9547 16.1164 34.3086 15.4703C33.6616 14.8234 33.0138 14.4263 32.2486 14.1291C31.509 13.842 30.663 13.6448 29.4254 13.5885C28.185 13.5321 27.7888 13.5185 24.6302 13.5185L24.6311 13.5176ZM24.6311 19.1759C21.3326 19.1759 18.6584 21.8502 18.6584 25.1487C18.6584 28.4472 21.3326 31.1215 24.6311 31.1215C27.9297 31.1215 30.6039 28.4472 30.6039 25.1487C30.6039 21.8502 27.9297 19.1759 24.6311 19.1759ZM24.6311 29.0261C22.4903 29.0261 20.7538 27.2905 20.7538 25.1487C20.7538 23.007 22.4894 21.2714 24.6311 21.2714C26.7729 21.2714 28.5085 23.007 28.5085 25.1487C28.5085 27.2905 26.7729 29.0261 24.6311 29.0261ZM32.2359 18.9397C32.2359 19.7103 31.6107 20.3354 30.8402 20.3354C30.0696 20.3354 29.4444 19.7103 29.4444 18.9397C29.4444 18.1691 30.0696 17.544 30.8402 17.544C31.6107 17.544 32.2359 18.1691 32.2359 18.9397Z" fill="black"/>
</g>
<defs>
<clipPath id="clip0_1667_1418">
<rect width="23.2623" height="23.2623" fill="white" transform="translate(13 13.5176)"/>
</clipPath>
</defs>
</svg>
