<svg width="22" height="19" viewBox="0 0 22 19" fill="none" xmlns="http://www.w3.org/2000/svg">
<path id="Vector" d="M15.267 0.419362C13.8258 0.419362 12.4724 0.964498 11.453 1.95522L10.5386 2.84403L9.62166 1.95285C8.5999 0.962128 7.24648 0.416992 5.80528 0.416992C4.36408 0.416992 3.01066 0.962128 1.99133 1.95285C0.972007 2.94358 0.411133 4.25902 0.411133 5.65978C0.411133 7.06054 0.972007 8.37598 1.99133 9.3667L10.5361 17.667L19.0785 9.36433C20.0978 8.37361 20.6587 7.05817 20.6587 5.65741C20.6587 4.25665 20.0978 2.94121 19.0785 1.95048C18.0592 0.964498 16.7057 0.419362 15.2645 0.419362H15.267ZM18.3908 8.69595L10.5386 16.3279L2.68633 8.69595C1.85234 7.88536 1.39144 6.80693 1.39144 5.65978C1.39144 4.51262 1.8499 3.4342 2.68633 2.62361C3.52033 1.81301 4.62988 1.36743 5.81016 1.36743C6.99043 1.36743 8.09999 1.81301 8.93398 2.62361L10.5386 4.18554L12.1456 2.62361C12.9796 1.81301 14.0891 1.36743 15.2694 1.36743C16.4497 1.36743 17.5593 1.81301 18.3932 2.62361C19.2272 3.4342 19.6881 4.51262 19.6881 5.65978C19.6881 6.80693 19.2272 7.88299 18.3908 8.69595Z" fill="black" stroke="black" stroke-width="0.75"/>
</svg>
