<svg width="575" height="370" viewBox="0 0 575 370" fill="none" xmlns="http://www.w3.org/2000/svg">
<path d="M47.6379 173.716L55.0963 224.787C66.8142 305.026 165.262 329.408 223.132 266.404V266.404C261.714 224.399 323.836 218.706 362.547 253.628L403.41 290.49C480.042 359.618 608.006 325.957 655.12 224.276L679.485 171.694C743.938 32.5947 925.101 -1.61685 1014 108.523L1059.6 165.015" stroke="#0368B1" stroke-width="85"/>
<path d="M93.4538 196.771L93.3524 196.777L93.422 197.311C94.3059 204.103 93.5596 211.193 90.9161 218.027L90.9161 218.027C82.4882 239.843 57.9666 250.697 36.1419 242.27C21.0891 236.454 11.2603 222.974 9.37408 208.011L9.31586 207.549L9.22631 207.554L4.17521 173.475C4.17501 173.474 4.1748 173.472 4.1746 173.471C4.13081 173.13 4.08581 172.78 4.03977 172.423C2.95732 164.015 1.29814 151.127 1.34844 143.142L1.34845 143.141L1.6569 61.3281C1.80718 57.9323 4.5235 55.2025 7.93118 55.0266L7.93238 55.0265C11.7843 54.8183 15.0038 57.9484 14.9237 61.8018L14.239 92.737C14.1816 95.3596 16.3482 97.4738 18.9613 97.3624M93.4538 196.771L18.94 96.8628M93.4538 196.771C93.4379 196.616 93.4188 196.428 93.397 196.211C93.326 195.505 93.2259 194.488 93.1093 193.241C92.876 190.747 92.5768 187.335 92.3128 183.662C91.7866 176.341 91.3941 167.909 91.9665 163.692L91.9665 163.692C92.1414 162.406 92.739 160.919 93.5403 159.343C94.3455 157.759 95.3792 156.04 96.4583 154.287C96.668 153.946 96.8793 153.604 97.0911 153.261C99.0729 150.053 101.091 146.786 102.167 143.92L102.635 144.096L102.167 143.92C103.535 140.275 104.582 136.524 105.326 132.699L105.326 132.699L112.034 98.283L112.034 98.2824C112.606 95.3641 111.046 92.4434 108.297 91.2773C106.553 90.5418 104.928 90.7489 103.479 91.5573C102.012 92.3756 100.717 93.8185 99.7119 95.5527L99.7114 95.5537C98.4595 97.7037 97.5316 100.419 96.7345 103.293C96.3367 104.727 95.9737 106.192 95.6192 107.638C95.5843 107.78 95.5496 107.922 95.5149 108.063C95.197 109.361 94.8837 110.64 94.5579 111.854C93.8392 114.531 93.0429 116.957 91.9514 118.622C91.402 119.459 90.7578 120.136 89.98 120.546C89.1909 120.962 88.301 121.084 87.3093 120.871C86.0228 120.595 85.0671 119.531 84.3503 118.051C83.6283 116.56 83.0964 114.546 82.7072 112.167C81.9279 107.403 81.7009 101.048 81.7545 94.1849C81.8081 87.3162 82.1433 79.9131 82.4956 73.0447C82.5729 71.5382 82.651 70.0578 82.7271 68.6145C82.9983 63.4721 83.2447 58.8008 83.3415 55.0968C83.4478 50.9303 80.0236 47.5346 75.8536 47.6772C72.0233 47.8096 68.9665 50.9002 68.8754 54.7348L67.9496 95.6338C67.9049 97.6657 66.1789 99.2596 64.1378 99.1439L64.1346 99.1437C62.2062 99.0218 60.7088 97.4065 60.7481 95.4694L60.7482 95.4686L61.9506 40.1815L93.4538 196.771ZM18.9613 97.3624L18.94 96.8628M18.9613 97.3624C18.9611 97.3624 18.9609 97.3624 18.9607 97.3624L18.94 96.8628M18.9613 97.3624C21.3095 97.265 23.1883 95.3694 23.2806 93.0241L23.2806 93.0234L25.0717 45.8387L24.5721 45.8195M18.94 96.8628C21.0266 96.7766 22.6988 95.0912 22.781 93.0044L24.5721 45.8195M24.5721 45.8195L25.0717 45.8385L38.8438 93.9437M24.5721 45.8195C24.712 42.1789 27.62 39.2571 31.2714 39.104M31.2714 39.104C35.2329 38.9518 38.5402 42.1048 38.5589 46.0558L38.8438 93.9437M31.2714 39.104L31.2923 39.6036C31.2917 39.6036 31.2911 39.6036 31.2906 39.6036L31.2714 39.104ZM38.8438 93.9437L38.3438 93.9467L38.3438 93.9464L38.8438 93.9437ZM42.1036 97.8021C42.1032 97.8021 42.1028 97.8021 42.1024 97.8021L42.1179 97.3023L42.1036 97.8021ZM47.0111 39.8038L47.511 39.8168L47.5109 39.8175L47.0111 39.8038ZM61.9506 40.1811L62.4505 40.192L61.9506 40.1811Z" fill="#0368B1" stroke="#0368B1"/>
</svg>
