<svg width="24" height="24" viewBox="0 0 24 24" fill="none" xmlns="http://www.w3.org/2000/svg">
<g id="instagram" clip-path="url(#clip0_1667_1420)">
<path id="Vector" d="M11.6311 2.613C14.737 2.613 15.105 2.62481 16.3309 2.68115C17.4649 2.73295 18.081 2.92195 18.4908 3.08188C19.0333 3.2927 19.4213 3.54531 19.8284 3.9524C20.2355 4.35949 20.4872 4.74659 20.698 5.28998C20.857 5.6998 21.0469 6.31589 21.0987 7.44992C21.1551 8.67665 21.1669 9.04466 21.1669 12.1496C21.1669 15.2546 21.1551 15.6235 21.0987 16.8493C21.0469 17.9834 20.8579 18.5995 20.698 19.0093C20.4872 19.5518 20.2346 19.9398 19.8284 20.3469C19.4213 20.754 19.0342 21.0057 18.4908 21.2165C18.081 21.3755 17.4649 21.5654 16.3309 21.6172C15.1041 21.6735 14.737 21.6854 11.6311 21.6854C8.52527 21.6854 8.15725 21.6735 6.93144 21.6172C5.7974 21.5654 5.18131 21.3764 4.7715 21.2165C4.22901 21.0057 3.841 20.753 3.43391 20.3469C3.02682 19.9398 2.77512 19.5527 2.5643 19.0093C2.40528 18.5995 2.21537 17.9834 2.16357 16.8493C2.10724 15.6226 2.09542 15.2546 2.09542 12.1496C2.09542 9.04466 2.10724 8.67574 2.16357 7.44992C2.21537 6.31589 2.40438 5.6998 2.5643 5.28998C2.77512 4.7475 3.02773 4.35949 3.43391 3.9524C3.841 3.54531 4.2281 3.29361 4.7715 3.08188C5.18131 2.92286 5.7974 2.73295 6.93144 2.68115C8.15816 2.62481 8.52618 2.613 11.6311 2.613ZM11.6311 0.517578C8.47256 0.517578 8.07638 0.531208 6.83602 0.587547C5.5984 0.643885 4.75241 0.841069 4.01275 1.12821C3.24763 1.42535 2.59883 1.82336 1.95276 2.46943C1.30578 3.11641 0.908683 3.7643 0.611544 4.52942C0.323491 5.26999 0.126307 6.11507 0.0699686 7.3536C0.0136302 8.59396 0 8.99014 0 12.1487C0 15.3073 0.0136302 15.7035 0.0699686 16.9438C0.126307 18.1815 0.323491 19.0275 0.610635 19.7671C0.907775 20.5322 1.30578 21.181 1.95185 21.8271C2.59883 22.4741 3.24673 22.8712 4.01184 23.1683C4.75151 23.4555 5.59749 23.6527 6.83512 23.709C8.07547 23.7653 8.47165 23.779 11.6302 23.779C14.7888 23.779 15.185 23.7653 16.4254 23.709C17.663 23.6527 18.509 23.4555 19.2486 23.1683C20.0138 22.8712 20.6625 22.4732 21.3086 21.8271C21.9556 21.1801 22.3527 20.5322 22.6498 19.7671C22.937 19.0275 23.1342 18.1815 23.1905 16.9438C23.2468 15.7035 23.2605 15.3073 23.2605 12.1487C23.2605 8.99014 23.2468 8.59396 23.1905 7.3536C23.1342 6.11598 22.937 5.26999 22.6498 4.53032C22.3527 3.76521 21.9547 3.11641 21.3086 2.47034C20.6616 1.82336 20.0138 1.42626 19.2486 1.12912C18.509 0.841978 17.663 0.644794 16.4254 0.588455C15.185 0.532117 14.7888 0.518487 11.6302 0.518487L11.6311 0.517578ZM11.6311 6.17595C8.33263 6.17595 5.65837 8.8502 5.65837 12.1487C5.65837 15.4472 8.33263 18.1215 11.6311 18.1215C14.9297 18.1215 17.6039 15.4472 17.6039 12.1487C17.6039 8.8502 14.9297 6.17595 11.6311 6.17595ZM11.6311 16.0261C9.49029 16.0261 7.75379 14.2905 7.75379 12.1487C7.75379 10.007 9.48938 8.27137 11.6311 8.27137C13.7729 8.27137 15.5085 10.007 15.5085 12.1487C15.5085 14.2905 13.7729 16.0261 11.6311 16.0261ZM19.2359 5.93969C19.2359 6.71026 18.6107 7.33543 17.8402 7.33543C17.0696 7.33543 16.4444 6.71026 16.4444 5.93969C16.4444 5.16913 17.0696 4.54395 17.8402 4.54395C18.6107 4.54395 19.2359 5.16913 19.2359 5.93969Z" fill="black"/>
</g>
<defs>
<clipPath id="clip0_1667_1420">
<rect width="23.2623" height="23.2623" fill="white" transform="translate(0 0.517578)"/>
</clipPath>
</defs>
</svg>
