<svg width="57" height="57" viewBox="0 0 57 57" fill="none" xmlns="http://www.w3.org/2000/svg">
<g id="Layer_1" clip-path="url(#clip0_1799_65888)">
<g id="Group">
<path id="Vector" d="M35.9846 39.6466L40.9247 40.9664L39.6048 36.0264L35.9846 39.6466Z" fill="black"/>
<path id="Vector_2" d="M41.5846 41.6263L35.0796 39.8822L39.85 35.1118L41.5941 41.6263H41.5846ZM36.8991 39.392L40.2553 40.2876L39.3597 36.9313L36.8991 39.392Z" fill="black"/>
</g>
<path id="Vector_3" d="M19.2126 17.6885L17.8646 19.0068L38.2058 39.8076L39.5538 38.4893L19.2126 17.6885Z" fill="black"/>
<g id="Group_2">
<path id="Vector_4" d="M17.6197 21.4227L16.2432 16.2847L21.3813 17.6611L17.6197 21.4227Z" fill="black"/>
<path id="Vector_5" d="M17.3745 22.3277L15.5739 15.6152L22.2863 17.4159L17.3745 22.3277ZM16.9126 16.954L17.8648 20.5082L20.4668 17.9061L16.9126 16.954Z" fill="black"/>
</g>
<g id="Group_3">
<path id="Vector_6" d="M6.96648 56.8705C3.58196 56.8705 0.829102 54.1176 0.829102 50.7331C0.829102 47.3486 3.58196 44.5957 6.96648 44.5957C10.351 44.5957 13.1038 47.3486 13.1038 50.7331C13.1038 54.1176 10.351 56.8705 6.96648 56.8705ZM6.96648 46.4812C4.619 46.4812 2.71462 48.3856 2.71462 50.7331C2.71462 53.0805 4.619 54.9849 6.96648 54.9849C9.31395 54.9849 11.2183 53.0805 11.2183 50.7331C11.2183 48.3856 9.31395 46.4812 6.96648 46.4812Z" fill="black"/>
<path id="Vector_7" d="M50.6918 13.1454C47.3072 13.1454 44.5544 10.3925 44.5544 7.00798C44.5544 3.62347 47.3072 0.870605 50.6918 0.870605C54.0763 0.870605 56.8291 3.62347 56.8291 7.00798C56.8291 10.3925 54.0763 13.1454 50.6918 13.1454ZM50.6918 2.75613C48.3443 2.75613 46.4399 4.6605 46.4399 7.00798C46.4399 9.35545 48.3443 11.2598 50.6918 11.2598C53.0392 11.2598 54.9436 9.35545 54.9436 7.00798C54.9436 4.6605 53.0392 2.75613 50.6918 2.75613Z" fill="black"/>
</g>
<path id="Vector_8" d="M12.18 12.0799H1.74359V1.64355H12.18V12.0799ZM3.62911 10.1944H10.2944V3.52908H3.62911V10.1944Z" fill="black"/>
<path id="Vector_9" d="M55.5281 55.4188H45.0917V44.9824H55.5281V55.4188ZM46.9773 53.5333H53.6426V46.8679H46.9773V53.5333Z" fill="black"/>
<path id="Vector_10" d="M51.6627 11.9009H49.7772V45.944H51.6627V11.9009Z" fill="black"/>
<path id="Vector_11" d="M8.38064 11.2129H6.49512V45.3691H8.38064V11.2129Z" fill="black"/>
<path id="Vector_12" d="M45.9119 49.1587H12.1045V51.0442H45.9119V49.1587Z" fill="black"/>
<path id="Vector_13" d="M45.7988 5.87646H11.3975V7.76199H45.7988V5.87646Z" fill="black"/>
</g>
<defs>
<clipPath id="clip0_1799_65888">
<rect width="56" height="56" fill="white" transform="translate(0.829102 0.870605)"/>
</clipPath>
</defs>
</svg>
