<svg width="375" height="576" viewBox="0 0 375 576" fill="none" xmlns="http://www.w3.org/2000/svg">
<g opacity="0.13" clip-path="url(#clip0_1670_11892)">
<path d="M820 0.892578H-16V728.893H819.997V0.892578H820ZM819.606 619.271H784.046V583.711H819.606V619.271ZM-15.6057 110.514H19.9535V146.074H-15.6057V110.514ZM492.475 328.074H456.916V292.514H492.475V328.074ZM493.264 292.514H528.823V328.074H493.264V292.514ZM419.78 364.474H384.22V328.914H419.78V364.474ZM420.568 328.914H456.127V364.474H420.568V328.914ZM383.432 364.474H347.873V328.914H383.432V364.474ZM347.084 364.474H311.525V328.914H347.084V364.474ZM347.084 365.314V400.874H311.525V365.314H347.084ZM347.873 365.314H383.432V400.874H347.873V365.314ZM384.22 365.314H419.78V400.874H384.22V365.314ZM420.568 365.314H456.127V400.874H420.568V365.314ZM456.916 365.314H492.475V400.874H456.916V365.314ZM456.916 364.474V328.914H492.475V364.474H456.916ZM456.127 328.074H420.568V292.514H456.127V328.074ZM419.78 328.074H384.22V292.514H419.78V328.074ZM383.432 328.074H347.873V292.514H383.432V328.074ZM347.084 328.074H311.525V292.514H347.084V328.074ZM310.736 328.074H275.177V292.514H310.736V328.074ZM310.736 328.914V364.474H275.177V328.914H310.736ZM310.736 365.314V400.874H275.177V365.314H310.736ZM274.388 400.874H238.829V365.314H274.388V400.874ZM274.388 401.714V437.274H238.829V401.714H274.388ZM275.177 401.714H310.736V437.274H275.177V401.714ZM311.525 401.714H347.084V437.274H311.525V401.714ZM347.873 401.714H383.432V437.274H347.873V401.714ZM384.22 401.714H419.78V437.274H384.22V401.714ZM420.568 401.714H456.127V437.274H420.568V401.714ZM456.916 401.714H492.475V437.274H456.916V401.714ZM493.264 401.714H528.823V437.274H493.264V401.714ZM493.264 400.874V365.314H528.823V400.874H493.264ZM493.264 364.474V328.914H528.823V364.474H493.264ZM529.612 328.914H565.171V364.474H529.612V328.914ZM529.612 328.074V292.514H565.171V328.074H529.612ZM529.612 291.674V256.114H565.171V291.674H529.612ZM528.823 291.674H493.264V256.114H528.823V291.674ZM492.475 291.674H456.916V256.114H492.475V291.674ZM456.127 291.674H420.568V256.114H456.127V291.674ZM419.78 291.674H384.22V256.114H419.78V291.674ZM383.432 291.674H347.873V256.114H383.432V291.674ZM347.084 291.674H311.525V256.114H347.084V291.674ZM310.736 291.674H275.177V256.114H310.736V291.674ZM274.388 291.674H238.829V256.114H274.388V291.674ZM274.388 292.514V328.074H238.829V292.514H274.388ZM274.388 328.914V364.474H238.829V328.914H274.388ZM238.041 364.474H202.481V328.914H238.041V364.474ZM238.041 365.314V400.874H202.481V365.314H238.041ZM238.041 401.714V437.274H202.481V401.714H238.041ZM238.041 438.114V473.674H202.481V438.114H238.041ZM238.829 438.114H274.388V473.674H238.829V438.114ZM275.177 438.114H310.736V473.674H275.177V438.114ZM311.525 438.114H347.084V473.674H311.525V438.114ZM347.873 438.114H383.432V473.674H347.873V438.114ZM384.22 438.114H419.78V473.674H384.22V438.114ZM420.568 438.114H456.127V473.674H420.568V438.114ZM456.916 438.114H492.475V473.674H456.916V438.114ZM493.264 438.114H528.823V473.674H493.264V438.114ZM529.612 438.114H565.171V473.674H529.612V438.114ZM529.612 437.274V401.714H565.171V437.274H529.612ZM529.612 400.874V365.314H565.171V400.874H529.612ZM565.96 365.314H601.519V400.874H565.96V365.314ZM565.96 364.474V328.914H601.519V364.474H565.96ZM565.96 328.074V292.514H601.519V328.074H565.96ZM565.96 291.674V256.114H601.519V291.674H565.96ZM565.96 255.274V219.714H601.519V255.274H565.96ZM565.171 255.274H529.612V219.714H565.171V255.274ZM528.823 255.274H493.264V219.714H528.823V255.274ZM492.475 255.274H456.916V219.714H492.475V255.274ZM456.127 255.274H420.568V219.714H456.127V255.274ZM419.78 255.274H384.22V219.714H419.78V255.274ZM383.432 255.274H347.873V219.714H383.432V255.274ZM347.084 255.274H311.525V219.714H347.084V255.274ZM310.736 255.274H275.177V219.714H310.736V255.274ZM274.388 255.274H238.829V219.714H274.388V255.274ZM238.041 255.274H202.481V219.714H238.041V255.274ZM238.041 256.114V291.674H202.481V256.114H238.041ZM238.041 292.514V328.074H202.481V292.514H238.041ZM201.693 328.074H166.133V292.514H201.693V328.074ZM201.693 328.914V364.474H166.133V328.914H201.693ZM201.693 365.314V400.874H166.133V365.314H201.693ZM201.693 401.714V437.274H166.133V401.714H201.693ZM201.693 438.114V473.674H166.133V438.114H201.693ZM201.693 474.514V510.074H166.133V474.514H201.693ZM202.481 474.514H238.041V510.074H202.481V474.514ZM238.829 474.514H274.388V510.074H238.829V474.514ZM275.177 474.514H310.736V510.074H275.177V474.514ZM311.525 474.514H347.084V510.074H311.525V474.514ZM347.873 474.514H383.432V510.074H347.873V474.514ZM384.22 474.514H419.78V510.074H384.22V474.514ZM420.568 474.514H456.127V510.074H420.568V474.514ZM456.916 474.514H492.475V510.074H456.916V474.514ZM493.264 474.514H528.823V510.074H493.264V474.514ZM529.612 474.514H565.171V510.074H529.612V474.514ZM565.96 474.514H601.519V510.074H565.96V474.514ZM565.96 473.674V438.114H601.519V473.674H565.96ZM565.96 437.274V401.714H601.519V437.274H565.96ZM602.307 401.714H637.867V437.274H602.307V401.714ZM602.307 400.874V365.314H637.867V400.874H602.307ZM602.307 364.474V328.914H637.867V364.474H602.307ZM602.307 328.074V292.514H637.867V328.074H602.307ZM602.307 291.674V256.114H637.867V291.674H602.307ZM602.307 255.274V219.714H637.867V255.274H602.307ZM602.307 218.874V183.314H637.867V218.874H602.307ZM601.519 218.874H565.96V183.314H601.519V218.874ZM565.171 218.874H529.612V183.314H565.171V218.874ZM528.823 218.874H493.264V183.314H528.823V218.874ZM492.475 218.874H456.916V183.314H492.475V218.874ZM456.127 218.874H420.568V183.314H456.127V218.874ZM419.78 218.874H384.22V183.314H419.78V218.874ZM383.432 218.874H347.873V183.314H383.432V218.874ZM347.084 218.874H311.525V183.314H347.084V218.874ZM310.736 218.874H275.177V183.314H310.736V218.874ZM274.388 218.874H238.829V183.314H274.388V218.874ZM238.041 218.874H202.481V183.314H238.041V218.874ZM201.693 218.874H166.133V183.314H201.693V218.874ZM201.693 219.714V255.274H166.133V219.714H201.693ZM201.693 256.114V291.674H166.133V256.114H201.693ZM165.345 291.674H129.786V256.114H165.345V291.674ZM165.345 292.514V328.074H129.786V292.514H165.345ZM165.345 328.914V364.474H129.786V328.914H165.345ZM165.345 365.314V400.874H129.786V365.314H165.345ZM165.345 401.714V437.274H129.786V401.714H165.345ZM165.345 438.114V473.674H129.786V438.114H165.345ZM165.345 474.514V510.074H129.786V474.514H165.345ZM165.345 510.914V546.474H129.786V510.914H165.345ZM166.133 510.914H201.693V546.474H166.133V510.914ZM202.481 510.914H238.041V546.474H202.481V510.914ZM238.829 510.914H274.388V546.474H238.829V510.914ZM275.177 510.914H310.736V546.474H275.177V510.914ZM311.525 510.914H347.084V546.474H311.525V510.914ZM347.873 510.914H383.432V546.474H347.873V510.914ZM384.22 510.914H419.78V546.474H384.22V510.914ZM420.568 510.914H456.127V546.474H420.568V510.914ZM456.916 510.914H492.475V546.474H456.916V510.914ZM493.264 510.914H528.823V546.474H493.264V510.914ZM529.612 510.914H565.171V546.474H529.612V510.914ZM565.96 510.914H601.519V546.474H565.96V510.914ZM602.307 510.914H637.867V546.474H602.307V510.914ZM602.307 510.074V474.514H637.867V510.074H602.307ZM602.307 473.674V438.114H637.867V473.674H602.307ZM638.655 438.114H674.214V473.674H638.655V438.114ZM638.655 437.274V401.714H674.214V437.274H638.655ZM638.655 400.874V365.314H674.214V400.874H638.655ZM638.655 364.474V328.914H674.214V364.474H638.655ZM638.655 328.074V292.514H674.214V328.074H638.655ZM638.655 291.674V256.114H674.214V291.674H638.655ZM638.655 255.274V219.714H674.214V255.274H638.655ZM638.655 218.874V183.314H674.214V218.874H638.655ZM638.655 182.474V146.914H674.214V182.474H638.655ZM637.867 182.474H602.307V146.914H637.867V182.474ZM601.519 182.474H565.96V146.914H601.519V182.474ZM565.171 182.474H529.612V146.914H565.171V182.474ZM528.823 182.474H493.264V146.914H528.823V182.474ZM492.475 182.474H456.916V146.914H492.475V182.474ZM456.127 182.474H420.568V146.914H456.127V182.474ZM419.78 182.474H384.22V146.914H419.78V182.474ZM383.432 182.474H347.873V146.914H383.432V182.474ZM347.084 182.474H311.525V146.914H347.084V182.474ZM310.736 182.474H275.177V146.914H310.736V182.474ZM274.388 182.474H238.829V146.914H274.388V182.474ZM238.041 182.474H202.481V146.914H238.041V182.474ZM201.693 182.474H166.133V146.914H201.693V182.474ZM165.345 182.474H129.786V146.914H165.345V182.474ZM165.345 183.314V218.874H129.786V183.314H165.345ZM165.345 219.714V255.274H129.786V219.714H165.345ZM128.997 255.274H93.4378V219.714H128.997V255.274ZM128.997 256.114V291.674H93.4378V256.114H128.997ZM128.997 292.514V328.074H93.4378V292.514H128.997ZM128.997 328.914V364.474H93.4378V328.914H128.997ZM128.997 365.314V400.874H93.4378V365.314H128.997ZM128.997 401.714V437.274H93.4378V401.714H128.997ZM128.997 438.114V473.674H93.4378V438.114H128.997ZM128.997 474.514V510.074H93.4378V474.514H128.997ZM128.997 510.914V546.474H93.4378V510.914H128.997ZM128.997 547.314V582.874H93.4378V547.314H128.997ZM129.786 547.314H165.345V582.874H129.786V547.314ZM166.133 547.314H201.693V582.874H166.133V547.314ZM202.481 547.314H238.041V582.874H202.481V547.314ZM238.829 547.314H274.388V582.874H238.829V547.314ZM275.177 547.314H310.736V582.874H275.177V547.314ZM311.525 547.314H347.084V582.874H311.525V547.314ZM347.873 547.314H383.432V582.874H347.873V547.314ZM384.22 547.314H419.78V582.874H384.22V547.314ZM420.568 547.314H456.127V582.874H420.568V547.314ZM456.916 547.314H492.475V582.874H456.916V547.314ZM493.264 547.314H528.823V582.874H493.264V547.314ZM529.612 547.314H565.171V582.874H529.612V547.314ZM565.96 547.314H601.519V582.874H565.96V547.314ZM602.307 547.314H637.867V582.874H602.307V547.314ZM638.655 547.314H674.214V582.874H638.655V547.314ZM638.655 546.474V510.914H674.214V546.474H638.655ZM638.655 510.074V474.514H674.214V510.074H638.655ZM675.003 474.514H710.562V510.074H675.003V474.514ZM675.003 473.674V438.114H710.562V473.674H675.003ZM675.003 437.274V401.714H710.562V437.274H675.003ZM675.003 400.874V365.314H710.562V400.874H675.003ZM675.003 364.474V328.914H710.562V364.474H675.003ZM675.003 328.074V292.514H710.562V328.074H675.003ZM675.003 291.674V256.114H710.562V291.674H675.003ZM675.003 255.274V219.714H710.562V255.274H675.003ZM675.003 218.874V183.314H710.562V218.874H675.003ZM675.003 182.474V146.914H710.562V182.474H675.003ZM675.003 146.074V110.514H710.562V146.074H675.003ZM674.214 146.074H638.655V110.514H674.214V146.074ZM637.867 146.074H602.307V110.514H637.867V146.074ZM601.519 146.074H565.96V110.514H601.519V146.074ZM565.171 146.074H529.612V110.514H565.171V146.074ZM528.823 146.074H493.264V110.514H528.823V146.074ZM492.475 146.074H456.916V110.514H492.475V146.074ZM456.127 146.074H420.568V110.514H456.127V146.074ZM419.78 146.074H384.22V110.514H419.78V146.074ZM383.432 146.074H347.873V110.514H383.432V146.074ZM347.084 146.074H311.525V110.514H347.084V146.074ZM310.736 146.074H275.177V110.514H310.736V146.074ZM274.388 146.074H238.829V110.514H274.388V146.074ZM238.041 146.074H202.481V110.514H238.041V146.074ZM201.693 146.074H166.133V110.514H201.693V146.074ZM165.345 146.074H129.786V110.514H165.345V146.074ZM128.997 146.074H93.4378V110.514H128.997V146.074ZM128.997 146.914V182.474H93.4378V146.914H128.997ZM128.997 183.314V218.874H93.4378V183.314H128.997ZM92.6492 218.874H57.0899V183.314H92.6492V218.874ZM92.6492 219.714V255.274H57.0899V219.714H92.6492ZM92.6492 256.114V291.674H57.0899V256.114H92.6492ZM92.6492 292.514V328.074H57.0899V292.514H92.6492ZM92.6492 328.914V364.474H57.0899V328.914H92.6492ZM92.6492 365.314V400.874H57.0899V365.314H92.6492ZM92.6492 401.714V437.274H57.0899V401.714H92.6492ZM92.6492 438.114V473.674H57.0899V438.114H92.6492ZM92.6492 474.514V510.074H57.0899V474.514H92.6492ZM92.6492 510.914V546.474H57.0899V510.914H92.6492ZM92.6492 547.314V582.874H57.0899V547.314H92.6492ZM92.6492 583.714V619.274H57.0899V583.714H92.6492ZM93.4378 583.714H128.997V619.274H93.4378V583.714ZM129.786 583.714H165.345V619.274H129.786V583.714ZM166.133 583.714H201.693V619.274H166.133V583.714ZM202.481 583.714H238.041V619.274H202.481V583.714ZM238.829 583.714H274.388V619.274H238.829V583.714ZM275.177 583.714H310.736V619.274H275.177V583.714ZM311.525 583.714H347.084V619.274H311.525V583.714ZM347.873 583.714H383.432V619.274H347.873V583.714ZM384.22 583.714H419.78V619.274H384.22V583.714ZM420.568 583.714H456.127V619.274H420.568V583.714ZM456.916 583.714H492.475V619.274H456.916V583.714ZM493.264 583.714H528.823V619.274H493.264V583.714ZM529.612 583.714H565.171V619.274H529.612V583.714ZM565.96 583.714H601.519V619.274H565.96V583.714ZM602.307 583.714H637.867V619.274H602.307V583.714ZM638.655 583.714H674.214V619.274H638.655V583.714ZM675.003 583.714H710.562V619.274H675.003V583.714ZM675.003 582.874V547.314H710.562V582.874H675.003ZM675.003 546.474V510.914H710.562V546.474H675.003ZM711.351 510.914H746.91V546.474H711.351V510.914ZM711.351 510.074V474.514H746.91V510.074H711.351ZM711.351 473.674V438.114H746.91V473.674H711.351ZM711.351 437.274V401.714H746.91V437.274H711.351ZM711.351 400.874V365.314H746.91V400.874H711.351ZM711.351 364.474V328.914H746.91V364.474H711.351ZM711.351 328.074V292.514H746.91V328.074H711.351ZM711.351 291.674V256.114H746.91V291.674H711.351ZM711.351 255.274V219.714H746.91V255.274H711.351ZM711.351 218.874V183.314H746.91V218.874H711.351ZM711.351 182.474V146.914H746.91V182.474H711.351ZM711.351 146.074V110.514H746.91V146.074H711.351ZM711.351 109.674V74.1138H746.91V109.674H711.351ZM710.562 109.674H675.003V74.1138H710.562V109.674ZM674.214 109.674H638.655V74.1138H674.214V109.674ZM637.867 109.674H602.307V74.1138H637.867V109.674ZM601.519 109.674H565.96V74.1138H601.519V109.674ZM565.171 109.674H529.612V74.1138H565.171V109.674ZM528.823 109.674H493.264V74.1138H528.823V109.674ZM492.475 109.674H456.916V74.1138H492.475V109.674ZM456.127 109.674H420.568V74.1138H456.127V109.674ZM419.78 109.674H384.22V74.1138H419.78V109.674ZM383.432 109.674H347.873V74.1138H383.432V109.674ZM347.084 109.674H311.525V74.1138H347.084V109.674ZM310.736 109.674H275.177V74.1138H310.736V109.674ZM274.388 109.674H238.829V74.1138H274.388V109.674ZM238.041 109.674H202.481V74.1138H238.041V109.674ZM201.693 109.674H166.133V74.1138H201.693V109.674ZM165.345 109.674H129.786V74.1138H165.345V109.674ZM128.997 109.674H93.4378V74.1138H128.997V109.674ZM92.6492 109.674H57.0899V74.1138H92.6492V109.674ZM92.6492 110.514V146.074H57.0899V110.514H92.6492ZM92.6492 146.914V182.474H57.0899V146.914H92.6492ZM56.3014 182.474H20.7421V146.914H56.3014V182.474ZM56.3014 183.314V218.874H20.7421V183.314H56.3014ZM56.3014 219.714V255.274H20.7421V219.714H56.3014ZM56.3014 256.114V291.674H20.7421V256.114H56.3014ZM56.3014 292.514V328.074H20.7421V292.514H56.3014ZM56.3014 328.914V364.474H20.7421V328.914H56.3014ZM56.3014 365.314V400.874H20.7421V365.314H56.3014ZM56.3014 401.714V437.274H20.7421V401.714H56.3014ZM56.3014 438.114V473.674H20.7421V438.114H56.3014ZM56.3014 474.514V510.074H20.7421V474.514H56.3014ZM56.3014 510.914V546.474H20.7421V510.914H56.3014ZM56.3014 547.314V582.874H20.7421V547.314H56.3014ZM56.3014 583.714V619.274H20.7421V583.714H56.3014ZM56.3014 620.114V655.674H20.7421V620.114H56.3014ZM57.0899 620.114H92.6492V655.674H57.0899V620.114ZM93.4378 620.114H128.997V655.674H93.4378V620.114ZM129.786 620.114H165.345V655.674H129.786V620.114ZM166.133 620.114H201.693V655.674H166.133V620.114ZM202.481 620.114H238.041V655.674H202.481V620.114ZM238.829 620.114H274.388V655.674H238.829V620.114ZM275.177 620.114H310.736V655.674H275.177V620.114ZM311.525 620.114H347.084V655.674H311.525V620.114ZM347.873 620.114H383.432V655.674H347.873V620.114ZM384.22 620.114H419.78V655.674H384.22V620.114ZM420.568 620.114H456.127V655.674H420.568V620.114ZM456.916 620.114H492.475V655.674H456.916V620.114ZM493.264 620.114H528.823V655.674H493.264V620.114ZM529.612 620.114H565.171V655.674H529.612V620.114ZM565.96 620.114H601.519V655.674H565.96V620.114ZM602.307 620.114H637.867V655.674H602.307V620.114ZM638.655 620.114H674.214V655.674H638.655V620.114ZM675.003 620.114H710.562V655.674H675.003V620.114ZM711.351 620.114H746.91V655.674H711.351V620.114ZM711.351 619.274V583.714H746.91V619.274H711.351ZM711.351 582.874V547.314H746.91V582.874H711.351ZM747.699 547.314H783.258V582.874H747.699V547.314ZM747.699 546.474V510.914H783.258V546.474H747.699ZM747.699 510.074V474.514H783.258V510.074H747.699ZM747.699 473.674V438.114H783.258V473.674H747.699ZM747.699 437.274V401.714H783.258V437.274H747.699ZM747.699 400.874V365.314H783.258V400.874H747.699ZM747.699 364.474V328.914H783.258V364.474H747.699ZM747.699 328.074V292.514H783.258V328.074H747.699ZM747.699 291.674V256.114H783.258V291.674H747.699ZM747.699 255.274V219.714H783.258V255.274H747.699ZM747.699 218.874V183.314H783.258V218.874H747.699ZM747.699 182.474V146.914H783.258V182.474H747.699ZM747.699 146.074V110.514H783.258V146.074H747.699ZM747.699 109.674V74.1138H783.258V109.674H747.699ZM747.699 73.274V37.7138H783.258V73.274H747.699ZM746.91 73.274H711.351V37.7138H746.91V73.274ZM710.562 73.274H675.003V37.7138H710.562V73.274ZM674.214 73.274H638.655V37.7138H674.214V73.274ZM637.867 73.274H602.307V37.7138H637.867V73.274ZM601.519 73.274H565.96V37.7138H601.519V73.274ZM565.171 73.274H529.612V37.7138H565.171V73.274ZM528.823 73.274H493.264V37.7138H528.823V73.274ZM492.475 73.274H456.916V37.7138H492.475V73.274ZM456.127 73.274H420.568V37.7138H456.127V73.274ZM419.78 73.274H384.22V37.7138H419.78V73.274ZM383.432 73.274H347.873V37.7138H383.432V73.274ZM347.084 73.274H311.525V37.7138H347.084V73.274ZM310.736 73.274H275.177V37.7138H310.736V73.274ZM274.388 73.274H238.829V37.7138H274.388V73.274ZM238.041 73.274H202.481V37.7138H238.041V73.274ZM201.693 73.274H166.133V37.7138H201.693V73.274ZM165.345 73.274H129.786V37.7138H165.345V73.274ZM128.997 73.274H93.4378V37.7138H128.997V73.274ZM92.6492 73.274H57.0899V37.7138H92.6492V73.274ZM56.3014 73.274H20.7421V37.7138H56.3014V73.274ZM56.3014 74.1138V109.674H20.7421V74.1138H56.3014ZM56.3014 110.514V146.074H20.7421V110.514H56.3014ZM-15.6057 146.914H19.9535V182.474H-15.6057V146.914ZM-15.6057 183.314H19.9535V218.874H-15.6057V183.314ZM-15.6057 219.714H19.9535V255.274H-15.6057V219.714ZM-15.6057 256.114H19.9535V291.674H-15.6057V256.114ZM-15.6057 292.514H19.9535V328.074H-15.6057V292.514ZM-15.6057 328.914H19.9535V364.474H-15.6057V328.914ZM-15.6057 365.314H19.9535V400.874H-15.6057V365.314ZM-15.6057 401.714H19.9535V437.274H-15.6057V401.714ZM-15.6057 438.114H19.9535V473.674H-15.6057V438.114ZM-15.6057 474.514H19.9535V510.074H-15.6057V474.514ZM-15.6057 510.914H19.9535V546.474H-15.6057V510.914ZM-15.6057 547.314H19.9535V582.874H-15.6057V547.314ZM-15.6057 583.714H19.9535V619.274H-15.6057V583.714ZM-15.6057 620.114H19.9535V655.674H-15.6057V620.114ZM-15.6057 656.514H19.9535V692.074H-15.6057V656.514ZM20.7421 656.514H56.3014V692.074H20.7421V656.514ZM57.0899 656.514H92.6492V692.074H57.0899V656.514ZM93.4378 656.514H128.997V692.074H93.4378V656.514ZM129.786 656.514H165.345V692.074H129.786V656.514ZM166.133 656.514H201.693V692.074H166.133V656.514ZM202.481 656.514H238.041V692.074H202.481V656.514ZM238.829 656.514H274.388V692.074H238.829V656.514ZM275.177 656.514H310.736V692.074H275.177V656.514ZM311.525 656.514H347.084V692.074H311.525V656.514ZM347.873 656.514H383.432V692.074H347.873V656.514ZM384.22 656.514H419.78V692.074H384.22V656.514ZM420.568 656.514H456.127V692.074H420.568V656.514ZM456.916 656.514H492.475V692.074H456.916V656.514ZM493.264 656.514H528.823V692.074H493.264V656.514ZM529.612 656.514H565.171V692.074H529.612V656.514ZM565.96 656.514H601.519V692.074H565.96V656.514ZM602.307 656.514H637.867V692.074H602.307V656.514ZM638.655 656.514H674.214V692.074H638.655V656.514ZM675.003 656.514H710.562V692.074H675.003V656.514ZM711.351 656.514H746.91V692.074H711.351V656.514ZM747.699 656.514H783.258V692.074H747.699V656.514ZM747.699 655.674V620.114H783.258V655.674H747.699ZM747.699 619.274V583.714H783.258V619.274H747.699ZM819.606 582.874H784.046V547.314H819.606V582.874ZM819.606 546.474H784.046V510.914H819.606V546.474ZM819.606 510.074H784.046V474.514H819.606V510.074ZM819.606 473.674H784.046V438.114H819.606V473.674ZM819.606 437.274H784.046V401.714H819.606V437.274ZM819.606 400.874H784.046V365.314H819.606V400.874ZM819.606 364.474H784.046V328.914H819.606V364.474ZM819.606 328.074H784.046V292.514H819.606V328.074ZM819.606 291.674H784.046V256.114H819.606V291.674ZM819.606 255.274H784.046V219.714H819.606V255.274ZM819.606 218.874H784.046V183.314H819.606V218.874ZM819.606 182.474H784.046V146.914H819.606V182.474ZM819.606 146.074H784.046V110.514H819.606V146.074ZM819.606 109.674H784.046V74.1138H819.606V109.674ZM819.606 73.274H784.046V37.7138H819.606V73.274ZM819.606 36.874H784.046V1.31375H819.606V36.874ZM783.258 36.874H747.699V1.31375H783.258V36.874ZM746.91 36.874H711.351V1.31375H746.91V36.874ZM710.562 36.874H675.003V1.31375H710.562V36.874ZM674.214 36.874H638.655V1.31375H674.214V36.874ZM637.867 36.874H602.307V1.31375H637.867V36.874ZM601.519 36.874H565.96V1.31375H601.519V36.874ZM565.171 36.874H529.612V1.31375H565.171V36.874ZM528.823 36.874H493.264V1.31375H528.823V36.874ZM492.475 36.874H456.916V1.31375H492.475V36.874ZM456.127 36.874H420.568V1.31375H456.127V36.874ZM419.78 36.874H384.22V1.31375H419.78V36.874ZM383.432 36.874H347.873V1.31375H383.432V36.874ZM347.084 36.874H311.525V1.31375H347.084V36.874ZM310.736 36.874H275.177V1.31375H310.736V36.874ZM274.388 36.874H238.829V1.31375H274.388V36.874ZM238.041 36.874H202.481V1.31375H238.041V36.874ZM201.693 36.874H166.133V1.31375H201.693V36.874ZM165.345 36.874H129.786V1.31375H165.345V36.874ZM128.997 36.874H93.4378V1.31375H128.997V36.874ZM92.6492 36.874H57.0899V1.31375H92.6492V36.874ZM56.3014 36.874H20.7421V1.31375H56.3014V36.874ZM19.9535 36.874H-15.6057V1.31375H19.9535V36.874ZM19.9535 37.7138V73.274H-15.6057V37.7138H19.9535ZM19.9535 74.1138V109.674H-15.6057V74.1138H19.9535ZM-15.6057 692.911H19.9535V728.471H-15.6057V692.911ZM20.7421 692.911H56.3014V728.471H20.7421V692.911ZM57.0899 692.911H92.6492V728.471H57.0899V692.911ZM93.4378 692.911H128.997V728.471H93.4378V692.911ZM129.786 692.911H165.345V728.471H129.786V692.911ZM166.133 692.911H201.693V728.471H166.133V692.911ZM202.481 692.911H238.041V728.471H202.481V692.911ZM238.829 692.911H274.388V728.471H238.829V692.911ZM275.177 692.911H310.736V728.471H275.177V692.911ZM311.525 692.911H347.084V728.471H311.525V692.911ZM347.873 692.911H383.432V728.471H347.873V692.911ZM384.22 692.911H419.78V728.471H384.22V692.911ZM420.568 692.911H456.127V728.471H420.568V692.911ZM456.916 692.911H492.475V728.471H456.916V692.911ZM493.264 692.911H528.823V728.471H493.264V692.911ZM529.612 692.911H565.171V728.471H529.612V692.911ZM565.96 692.911H601.519V728.471H565.96V692.911ZM602.307 692.911H637.867V728.471H602.307V692.911ZM638.655 692.911H674.214V728.471H638.655V692.911ZM675.003 692.911H710.562V728.471H675.003V692.911ZM711.351 692.911H746.91V728.471H711.351V692.911ZM747.699 692.911H783.258V728.471H747.699V692.911ZM784.046 692.911H819.606V728.471H784.046V692.911ZM784.046 692.071V656.511H819.606V692.071H784.046ZM784.046 655.671V620.111H819.606V655.671H784.046Z" fill="black"/>
</g>
<defs>
<clipPath id="clip0_1670_11892">
<rect width="836" height="728" fill="white" transform="translate(-16 0.892578)"/>
</clipPath>
</defs>
</svg>
