<svg width="22" height="23" viewBox="0 0 22 23" fill="none" xmlns="http://www.w3.org/2000/svg">
<g id="linkedin">
<path id="Vector" d="M0.359314 7.70385H4.85546V22.1426H0.359314V7.70385ZM2.60502 0.517578C4.03755 0.517578 5.20532 1.68535 5.20532 3.11787C5.20532 4.5504 4.03755 5.7229 2.60502 5.7229C1.16777 5.71817 0 4.55513 0 3.11787C0 1.68062 1.16304 0.517578 2.6003 0.517578M7.65905 7.70385H11.9614V9.67535H12.0228C12.6233 8.54067 14.0841 7.34453 16.2778 7.34453C20.8213 7.34453 21.6628 10.3372 21.6628 14.2235V22.1426H17.1761V15.1171C17.1761 13.4434 17.1478 11.2875 14.8453 11.2875C12.5429 11.2875 12.1505 13.1125 12.1505 14.9941V22.1379H7.66851V7.69912H7.66378L7.65905 7.70385Z" fill="black"/>
</g>
</svg>
