<svg width="21" height="21" viewBox="0 0 21 21" fill="none" xmlns="http://www.w3.org/2000/svg">
<path d="M17.5063 0.3778L17.5063 12.3117L20.916 12.3117L20.916 0.3778L17.5063 0.3778Z" fill="black"/>
<path fill-rule="evenodd" clip-rule="evenodd" d="M12.3918 15.3189L14.0966 11.9093L14.0966 2.08264L4.92122 2.08264L2.16272 7.59964L2.16272 11.4593C2.16272 11.9301 2.54437 12.3117 3.01515 12.3117L10.6869 12.3117L10.6869 18.2787C10.6869 18.7494 11.0686 19.1311 11.5394 19.1311L12.3918 19.1311L12.3918 15.3189ZM14.0966 20.8359L11.5394 20.8359C10.127 20.8359 8.9821 19.691 8.9821 18.2787L8.9821 14.0166L3.01514 14.0166C1.6028 14.0166 0.457879 12.8716 0.457879 11.4593L0.457879 7.19718L3.86757 0.377798L15.8015 0.3778L15.8015 12.3117L14.0966 15.7214L14.0966 20.8359Z" fill="black"/>
</svg>
