<svg width="51" height="98" viewBox="0 0 51 98" fill="none" xmlns="http://www.w3.org/2000/svg">
<g id="Group 217">
<g id="Group">
<path id="Vector" d="M0.679443 49.6882V73.0622H24.8089V49.6882H0.679443ZM18.6805 62.6417C18.6805 67.432 16.0748 69.3787 12.5838 69.3787C9.28257 69.3787 6.79873 67.5763 6.79873 62.7117V53.5161H8.90322V62.7773C8.90322 66.2508 10.5019 67.7382 12.6561 67.7382C15.0225 67.7382 16.576 66.207 16.576 62.7773V53.5161H18.6805V62.6417Z" fill="#0368B1"/>
<path id="Vector_2" d="M26.2964 49.6882V73.0622H50.4258V49.6882H26.2964ZM44.4149 69.1818H42.3104L37.1937 61.2636C36.0737 59.5225 34.9989 57.742 34.204 56.0534L34.1318 56.0753C34.2537 58.0439 34.2763 59.9162 34.2763 62.5104V69.1818H32.3118V53.5729H34.6105L39.7498 61.4693C40.924 63.2979 41.8769 64.9165 42.6175 66.5395L42.6898 66.5177C42.5001 64.4309 42.4504 62.5323 42.4504 60.1262V53.5729H44.4104V69.1818H44.4149Z" fill="#0368B1"/>
<g id="Group_2">
<path id="Vector_3" d="M26.2964 74.4926V97.8666H50.4258V74.4926H26.2964ZM42.6039 86.1161C41.5065 87.2448 39.7137 87.8266 37.6814 87.8266C37.0582 87.8266 36.4847 87.8047 36.006 87.691V93.9424H33.924V78.5435C34.9311 78.3598 36.2453 78.2198 37.9163 78.2198C39.9756 78.2198 41.4794 78.6835 42.4369 79.5147C43.322 80.254 43.8684 81.3871 43.8684 82.7826C43.8684 84.1781 43.4394 85.3068 42.6039 86.1205V86.1161Z" fill="#0368B1"/>
<path id="Vector_4" d="M37.9646 79.9086C37.0569 79.9086 36.3659 80.0005 36.0092 80.0704V86.1338C36.4608 86.2475 37.0569 86.2956 37.7298 86.2956C40.2633 86.2956 41.7717 85.0926 41.7717 82.984C41.7717 80.8754 40.2633 79.9042 37.9691 79.9042L37.9646 79.9086Z" fill="#0368B1"/>
</g>
<g id="Group_3">
<path id="Vector_5" d="M0.657959 74.5193V97.8933H24.7874V74.5193H0.657959ZM17.6023 91.8169C16.0713 93.278 13.583 94.0611 10.4533 94.0611C8.94496 94.0611 7.72562 94.0174 6.6508 93.8774V78.5266C7.94239 78.3385 9.44625 78.1985 11.0991 78.1985C14.0888 78.1985 16.2158 78.8503 17.6294 80.119C19.0836 81.3964 19.9235 83.225 19.9235 85.7448C19.9235 88.2646 19.0881 90.3776 17.6068 91.8125L17.6023 91.8169Z" fill="#0368B1"/>
<path id="Vector_6" d="M11.1941 79.7962C10.1193 79.7962 9.30639 79.8881 8.75543 80.0018V92.3428C9.2793 92.4347 10.0425 92.4347 10.8599 92.4347C15.3037 92.4565 17.7198 90.0286 17.7198 85.8114C17.7424 82.0841 15.5928 79.7918 11.1941 79.7918V79.7962Z" fill="#0368B1"/>
</g>
<g id="Group_4">
<path id="Vector_7" d="M31.7515 22.4761L31.9593 22.6774C32.1625 22.813 32.0225 23.1017 32.2438 23.2155C32.5012 23.3423 32.596 23.6354 32.7089 23.8498C32.7496 23.7929 32.7496 23.7229 32.7676 23.6617C32.8625 23.3073 32.8489 22.9092 32.9618 22.5636C32.5644 22.5811 32.1038 22.6205 31.756 22.4718L31.7515 22.4761Z" fill="#0368B1"/>
<path id="Vector_8" d="M27.5349 25.7066C27.693 25.5448 28.0317 25.5535 28.0453 25.3217C27.8149 25.291 27.693 25.4135 27.5349 25.536C27.5124 25.5885 27.4401 25.676 27.5349 25.711V25.7066Z" fill="#0368B1"/>
<path id="Vector_9" d="M24.9711 30.1119C23.3589 30.0332 21.9454 29.4645 20.6899 28.5589C20.7305 28.712 20.9428 28.8083 20.8841 29.0007C20.7712 29.1757 20.5409 29.1801 20.3512 29.1757C19.9718 29.1189 19.6963 29.3945 19.3351 29.4338C19.0099 29.5301 18.897 29.1451 18.5989 29.1757C20.4415 30.7375 22.555 31.7131 25.0208 31.8399L25.206 31.9624L25.1247 31.7437V30.0463L24.9666 30.1119H24.9711Z" fill="#0368B1"/>
<path id="Vector_10" d="M18.5975 23.588C18.6155 23.4743 18.4394 23.4393 18.4575 23.3255C18.5839 23.0893 18.462 22.6999 18.7917 22.5993C18.5614 22.6387 18.3536 22.6824 18.1549 22.5424L18.2543 22.6956C18.2678 23.1199 18.4394 23.5268 18.3491 23.9555C18.4214 23.833 18.4439 23.6667 18.602 23.588H18.5975Z" fill="#0368B1"/>
<path id="Vector_11" d="M19.2889 22.5987L19.2347 22.9399C19.1535 23.1411 18.896 22.9924 18.7786 23.128C18.6928 23.2549 18.7877 23.3905 18.8599 23.4955C18.6748 23.9067 19.2754 24.0336 19.2709 24.4098C19.456 24.6416 19.2438 24.9741 19.5102 25.1797C19.5689 25.5953 19.4515 26.164 19.8309 26.4921L19.8986 26.8902C19.9754 27.1658 19.5599 27.0958 19.6096 27.3408C19.6909 27.3015 19.7089 27.4064 19.718 27.4327V27.4196C20.2283 26.8465 20.8199 26.2428 21.425 25.7353L21.1721 25.4903C20.7025 24.8079 20.3276 24.0817 20.1515 23.2855L19.9573 23.1892C19.9483 23.3948 19.8534 23.5567 19.8625 23.7623L19.7947 23.8411C19.6547 23.8323 19.5689 23.7273 19.4515 23.653C19.4244 23.583 19.3522 23.4648 19.4651 23.408C19.5328 23.4036 19.578 23.4211 19.6231 23.4517C19.6818 23.3817 19.6547 23.2767 19.6909 23.1892C19.7089 23.0361 19.5734 22.8918 19.6683 22.7605C19.7947 22.7474 19.8896 22.8961 19.9438 22.9793C20.0702 23.0186 20.1696 22.9136 20.2734 22.8699C20.2734 22.7605 20.4315 22.6118 20.2599 22.5505C20.3547 22.3012 20.287 22.0387 20.2463 21.7937C20.1741 21.5837 19.9302 21.6187 19.7496 21.6406C19.2122 21.8068 19.8354 22.2006 19.6999 22.5243C19.6276 22.708 19.4289 22.5374 19.2889 22.6118V22.5987Z" fill="#0368B1"/>
<path id="Vector_12" d="M33.1235 15.1062C33.2635 15.1368 33.3042 15.2987 33.3945 15.3949C33.8777 15.6443 34.0042 16.1474 34.4287 16.4317C34.668 16.9129 35.219 17.2848 35.2371 17.8404C35.8151 19.074 36.2035 20.3821 36.2441 21.8345L36.19 21.9132C36.2487 21.9132 36.3029 21.887 36.348 21.8563L38.2583 21.8257C38.1319 21.6464 38.1861 21.3839 38.1544 21.1651C37.9015 18.3041 36.6416 15.8543 34.6635 13.6975C34.3022 14.1744 33.8009 14.6162 33.3448 15.0712L33.119 15.1149L33.1235 15.1062Z" fill="#0368B1"/>
<path id="Vector_13" d="M36.2933 22.5692L36.1804 22.4905L36.2481 22.6655C36.1443 24.8047 35.4036 26.6946 34.1436 28.3744C33.8998 28.6588 33.6649 29.0044 33.3624 29.2056C33.8682 29.5906 34.4282 30.1681 34.8436 30.6143L34.8978 30.518C36.9256 28.2738 38.0817 25.6796 38.2081 22.6698L38.2894 22.5167L38.1901 22.5605L36.2978 22.5736L36.2933 22.5692Z" fill="#0368B1"/>
<path id="Vector_14" d="M25.8943 31.9183C26.3865 31.7564 26.9556 31.7827 27.4885 31.6996C27.3801 31.6602 27.2762 31.634 27.1949 31.5333C26.8833 31.5158 26.7343 31.2009 26.6394 30.9603C26.5943 30.7853 26.7117 30.6453 26.7839 30.4965C26.653 30.2341 26.2375 30.4265 25.9981 30.3303C25.9304 30.2778 25.8852 30.1991 25.7949 30.1903L25.8943 30.3303C25.8943 30.8553 25.962 31.3977 25.8943 31.9183Z" fill="#0368B1"/>
<path id="Vector_15" d="M32.9155 29.6045C32.7303 29.9588 32.3194 30.1819 32.0078 30.4532C31.5787 30.8731 30.8742 30.9606 30.653 31.5643C30.4226 31.7699 30.3413 32.0893 30.0162 32.2074C29.8988 32.5136 29.5555 32.4961 29.3659 32.7193C28.8104 33.2005 28.4491 32.413 27.9478 32.3124L26.9317 32.4874C26.5795 32.4874 26.2272 32.6099 25.8975 32.5005C25.9427 33.1567 25.9427 33.8611 25.8975 34.5173L26.024 34.4385C29.2214 34.3029 31.9807 33.1305 34.3516 31.0437L32.9516 29.7532L32.92 29.6001L32.9155 29.6045Z" fill="#0368B1"/>
<path id="Vector_16" d="M27.9781 15.5253C27.3097 15.2935 26.5736 15.1972 25.842 15.0879L25.9097 15.2279L25.8962 16.969L26.0678 16.9384C27.1697 17.0871 28.1768 17.4283 29.0484 18.1151L29.0936 18.2508C29.3916 17.8439 29.8432 17.4983 30.1955 17.1133L30.5297 16.9252L30.3716 16.8596C29.64 16.269 28.8452 15.8184 27.9826 15.5253H27.9781Z" fill="#0368B1"/>
<path id="Vector_17" d="M25.126 32.6135L25.1937 32.5172L24.9905 32.5697C22.4028 32.3948 20.1131 31.5111 18.2209 29.7393L18.2028 29.8181L16.8345 31.148C18.9028 32.8847 21.2422 34.0003 23.9067 34.3546C24.3312 34.4246 24.8144 34.3896 25.2253 34.5077L25.126 34.3546V32.6135Z" fill="#0368B1"/>
<path id="Vector_18" d="M18.2184 15.692L17.5048 16.5714C16.3307 18.1331 15.7707 19.9399 15.6081 21.9085L17.4281 21.8779L17.5997 21.9435C17.5274 21.8997 17.5455 21.821 17.5184 21.7598C17.6629 19.9268 18.3268 18.295 19.6364 16.9345C19.1306 16.5101 18.661 16.0595 18.2365 15.5783L18.2229 15.7008L18.2184 15.692Z" fill="#0368B1"/>
<path id="Vector_19" d="M15.6418 22.6965L15.7864 23.8777C15.8451 24.3327 16.0528 24.7702 16.0393 25.2207C16.1115 25.1245 16.0663 24.932 16.247 24.9145C16.1747 24.7745 16.387 24.652 16.2651 24.5295C16.3238 24.2233 16.3644 23.9083 16.6444 23.6809C16.9831 23.6677 17.0102 23.2346 17.3489 23.2171C17.5205 23.2084 17.6289 23.4359 17.7012 23.5102C17.4889 23.2609 17.5025 22.8497 17.5567 22.5653L17.4121 22.6309C16.798 22.6178 16.1522 22.6703 15.5696 22.5872L15.6509 22.6965H15.6418Z" fill="#0368B1"/>
<path id="Vector_20" d="M20.1264 17.4196C19.2142 18.4827 18.5864 19.6507 18.3426 20.9806C18.2703 21.2869 18.311 21.65 18.1845 21.9387C18.4148 21.8381 18.7535 21.8731 19.0155 21.9081C18.8619 21.8293 18.9884 21.6456 18.9026 21.5406C18.8845 21.3787 18.8574 21.1819 19.0155 21.0769C18.9974 20.8144 19.2864 20.6788 19.3135 20.4382C19.3858 20.167 19.7019 20.3463 19.8555 20.2063C19.9548 20.1538 19.869 20.0663 19.869 19.9963C20 19.8214 20.2077 19.8301 20.3658 19.7339C20.4787 19.5676 20.6232 19.3883 20.8129 19.2833C21.2103 19.2964 21.2193 18.7583 21.5941 18.7452C21.0793 18.3646 20.5871 17.8571 20.1264 17.4196Z" fill="#0368B1"/>
<path id="Vector_21" d="M23.8257 27.7098C23.9748 27.5567 24.1419 27.4605 24.3225 27.3948C23.7354 27.5086 23.2115 27.0974 22.7103 26.8743C22.4257 26.6686 22.0509 26.5024 21.8793 26.1918C21.4864 26.6555 21.0258 27.1367 20.5606 27.5042C20.7638 27.5173 20.8767 27.7361 21.0483 27.8323C22.0419 28.6373 23.2838 29.0222 24.4399 29.2978L24.1193 29.1578C23.8799 28.8954 23.5412 28.5848 23.5277 28.2217C23.767 28.1429 23.7399 27.8892 23.8212 27.7142L23.8257 27.7098Z" fill="#0368B1"/>
<path id="Vector_22" d="M31.0851 30.2994L31.1799 30.1769C31.5774 29.8751 32.0109 29.5907 32.3632 29.2189H32.4083C32.327 29.1926 32.2277 29.2714 32.1374 29.232C31.9522 29.1489 31.9206 28.987 31.9206 28.8033L31.1032 27.9852L31.058 27.8627C30.9993 28.0158 30.8774 28.1121 30.7599 28.2302C30.769 28.3308 30.7283 28.4883 30.8548 28.5583C31.1212 28.6414 31.4645 28.8076 31.5232 29.1095C31.4193 29.3938 30.8593 29.6476 31.2025 29.9582C31.3154 30.1113 31.0445 30.1682 31.0896 30.2994H31.0851Z" fill="#0368B1"/>
<path id="Vector_23" d="M31.816 18.5012C31.5902 18.0899 31.2334 17.7225 30.9263 17.3594L30.8947 17.4381C30.285 18.055 29.6121 18.6937 29.0295 19.3192C29.0702 19.398 29.1379 19.468 29.2102 19.5073C29.2373 19.3542 29.3231 19.2186 29.3366 19.0568C29.4947 18.8424 29.734 18.978 29.9418 19.0261C30.2579 18.9561 30.556 19.0961 30.8811 19.0918C31.1205 19.2055 31.1431 19.503 31.3598 19.6167C31.4185 19.6998 31.3734 19.7961 31.2921 19.8617C31.3598 20.3429 31.5992 19.7348 31.8521 19.8486C31.956 19.8879 32.0914 19.8748 32.1682 19.9842C32.2089 20.1854 32.4618 20.1461 32.4753 20.3385C32.4527 20.4348 32.3489 20.461 32.2811 20.5135C32.3398 20.706 32.0734 20.8285 32.1682 21.0341C32.5521 21.1041 32.5656 20.6754 32.7463 20.4829C32.6469 20.1504 32.5747 19.8092 32.376 19.5117C32.1547 19.468 32.0237 19.2186 31.8069 19.1705C31.3824 19.0086 31.8702 18.7505 31.8205 18.5099L31.816 18.5012Z" fill="#0368B1"/>
<path id="Vector_24" d="M26.3196 26.9037C26.4912 26.9387 26.3738 27.118 26.4957 27.1793C26.7666 27.0962 26.9744 27.4024 27.1957 27.2099C27.1821 26.9081 27.5344 26.9343 27.7241 26.8556C28.0221 26.6849 28.3608 26.4531 28.3292 26.0637L28.2841 26.0069C28.0763 26.0069 27.9724 26.16 27.8189 26.2825C27.6337 26.3831 27.5389 26.09 27.3899 26.16C27.3944 26.1906 27.4305 26.2037 27.4576 26.2169C27.4983 26.2606 27.5118 26.3568 27.4576 26.405C27.2318 26.6062 27.1279 26.3087 26.9157 26.3262V26.405C26.9247 26.4487 26.9021 26.5187 26.8344 26.4968C26.7034 26.2825 26.4279 26.3612 26.297 26.1731C26.2112 26.1294 26.1299 26.1862 26.0712 26.2387C26.026 26.335 25.8138 26.2256 25.8634 26.3918C25.7009 26.4487 25.6783 26.6237 25.5609 26.7243C25.3576 26.6937 25.2628 26.9168 25.0686 26.9124C25.0912 26.9518 25.0686 27.013 25.1318 27.0218C25.2492 27.0743 25.3712 27.0874 25.5157 27.0699C25.7144 26.7593 26.0441 27.0174 26.3241 26.9037H26.3196Z" fill="#0368B1"/>
<path id="Vector_25" d="M33.4125 24.1882C33.1325 25.05 32.8073 25.89 32.2519 26.6424C32.0306 26.9136 31.8228 27.2855 31.5338 27.4255L32.139 27.9373C32.1751 27.9067 32.1525 27.8542 32.157 27.8104C32.157 27.7317 32.1977 27.6442 32.297 27.6573C32.5906 27.6486 32.5951 27.9548 32.7622 28.1079C32.7306 28.3529 32.9473 28.5454 32.8751 28.7685C34.546 27.058 35.3815 24.9625 35.5351 22.6439L35.6254 22.5433C35.0293 22.6002 34.4015 22.5608 33.7828 22.5696L33.6383 22.5258C33.6789 22.9195 33.5706 23.2958 33.5435 23.6851L33.7648 23.917C33.8235 24.0088 33.8054 24.1401 33.7196 24.2144C33.6248 24.2713 33.5073 24.2669 33.417 24.197L33.4125 24.1882Z" fill="#0368B1"/>
<path id="Vector_26" d="M26.3422 19.8689C26.4957 19.9521 26.5815 19.7989 26.708 19.7683C26.8931 19.7858 27.0376 19.9433 27.1551 20.0571C27.2725 20.1095 27.3854 20.0352 27.4938 20.0002C27.566 19.4665 28.257 19.5408 28.4602 19.0421L28.3338 19.0859C28.2796 19.0159 28.1486 19.0465 28.1576 18.9328C28.2705 18.8321 28.415 18.6703 28.555 18.6265C27.9589 18.2678 27.3402 17.9572 26.6628 17.791C26.3964 17.7341 26.1209 17.7253 25.8635 17.6378C25.9899 18.0053 25.877 18.5434 25.9583 18.9678L26.437 19.1209C26.577 18.8978 26.8841 18.8496 27.0151 18.6397C27.1054 18.5697 27.2002 18.6397 27.268 18.7184C27.286 18.8934 27.2409 19.064 27.1867 19.2302C27.006 19.5758 26.5815 19.624 26.3422 19.8733V19.8689Z" fill="#0368B1"/>
<path id="Vector_27" d="M30.608 26.3669C30.635 26.5813 30.3686 26.6775 30.4047 26.8875C30.3189 26.9837 30.1744 26.9969 30.0389 26.9969C29.5151 26.8044 28.9641 26.6819 28.3815 26.6294C28.3273 26.6469 28.2957 26.695 28.3048 26.7519C28.5441 26.8744 28.8331 26.8788 29.086 26.9837C29.3118 27.0406 29.4654 27.3119 29.7499 27.2287C29.9892 27.1019 30.3867 27.3075 30.5447 27.0625C30.5176 26.8263 30.7299 26.6513 30.8383 26.4457L30.9196 26.4238C31.0505 26.5594 31.046 26.7563 31.1047 26.905C31.2899 26.7125 31.4389 26.5025 31.6015 26.3013C32.0395 25.6845 32.4099 25.0239 32.5679 24.3152C32.3873 24.3239 32.2112 24.3546 32.0441 24.4071C31.8544 24.3939 31.6196 24.5033 31.4525 24.3764C31.3938 24.3239 31.3531 24.4027 31.3576 24.4552C31.2899 24.5514 31.2267 24.6739 31.0731 24.6302C30.9512 24.5777 30.9512 24.4552 30.915 24.3677C30.9196 24.4377 30.897 24.5033 30.8789 24.5689C30.7389 24.7089 30.6938 24.8445 30.5944 25.002C30.4544 25.1508 30.2286 25.0983 30.0841 25.2207C30.057 25.527 29.7047 25.4657 29.506 25.562C29.4925 25.6013 29.5376 25.6057 29.5602 25.6407C29.6551 25.667 29.7815 25.667 29.8447 25.5751C30.1247 25.6451 30.066 25.3039 30.2241 25.1901C30.3641 25.1683 30.4996 25.0545 30.6441 25.1464C30.7886 25.3214 30.8247 25.5707 30.8021 25.7938C30.6441 25.9469 30.7254 26.2007 30.6125 26.38L30.608 26.3669Z" fill="#0368B1"/>
<path id="Vector_28" d="M21.766 23.6808C21.6982 23.6458 21.6937 23.6546 21.6395 23.7115C21.6079 23.7115 21.5673 23.7202 21.5402 23.6983C21.5402 23.3309 21.1156 23.5496 20.9576 23.3571C21.1427 23.6896 21.2421 24.0702 21.4363 24.4027C21.5537 24.6958 21.8202 24.932 21.9421 25.2207C22.0685 24.9889 22.3214 24.8008 22.5021 24.5908C22.5156 24.4945 22.4976 24.4114 22.4434 24.3414C22.3801 24.2058 22.4343 24.0133 22.3305 23.8996C22.1589 23.9565 22.3937 24.1271 22.3169 24.2189C22.2447 24.2627 22.1634 24.2058 22.1589 24.1402C22.0053 24.1139 21.8879 23.9871 21.8427 23.8515C21.9692 23.7727 21.8111 23.7421 21.775 23.6808H21.766Z" fill="#0368B1"/>
<path id="Vector_29" d="M23.0406 23.8642C22.9999 24.0261 22.887 24.1661 22.7696 24.2842L22.7922 24.2973C22.9502 24.1879 23.0631 23.9867 23.2709 23.9779L23.0451 23.8686L23.0406 23.8642Z" fill="#0368B1"/>
<path id="Vector_30" d="M22.4492 25.684C23.1582 26.2483 23.9576 26.6027 24.8382 26.7514C24.8879 26.5764 24.8111 26.3577 24.906 26.2133C24.9737 26.0733 25.1498 26.0777 25.2853 26.104C25.3621 26.0996 25.4118 26.0033 25.3621 25.9377C25.1724 25.8984 25.2582 25.6927 25.1905 25.579C25.195 25.5134 25.3079 25.5265 25.2853 25.4434C25.1544 25.3428 25.3531 25.2247 25.2402 25.1153C25.2718 25.0934 25.2989 25.0584 25.3305 25.0322C24.9285 25.194 24.4995 24.9578 24.1473 24.8047C23.9757 24.7084 23.7228 24.6122 23.6821 24.4066C23.3976 24.8572 22.8512 25.2684 22.4537 25.684H22.4492Z" fill="#0368B1"/>
<path id="Vector_31" d="M25.8601 11.6807C25.8601 11.6238 25.8872 11.5714 25.9233 11.5276C26.0182 11.4751 26.0949 11.5539 26.1356 11.6195C26.1401 11.7113 26.1807 11.8645 26.104 11.917C26.1853 11.9301 26.2214 11.8732 26.2936 11.8732C27.8111 11.9826 29.2201 12.4113 30.4801 13.1069V13.0762C30.7375 12.9538 31.0717 12.7919 31.3336 13.0106C31.6542 12.8969 31.7129 13.2731 31.9704 13.3169C32.282 13.4962 32.6342 13.8331 32.6749 14.1874C32.7336 14.3012 32.9187 14.3843 32.9458 14.5068C33.1581 14.0693 33.5826 13.7587 33.9484 13.3825L34.1742 13.2906C32.1691 11.4401 29.7891 10.4164 27.1336 10.0621C26.7091 9.99209 26.244 10.0315 25.8375 9.90897C25.9188 10.4164 25.9007 11.112 25.8556 11.6807H25.8601ZM31.8349 12.5425C31.9658 12.5819 32.0878 12.6388 32.1329 12.7744C32.1013 12.9188 32.2729 13.0456 32.1646 13.1594C31.8078 13.2512 31.7717 12.8575 31.4962 12.7613C31.4555 12.7088 31.442 12.6475 31.451 12.5775C31.5775 12.4288 31.6949 12.6738 31.8349 12.5425ZM26.1356 11.3745C26.1898 11.2695 26.3433 11.3089 26.4201 11.3395L27.373 10.9414C27.7569 10.972 28.1814 11.0201 28.4072 11.3264V11.3745C28.1678 11.567 27.8652 11.7201 27.5446 11.5932C27.1065 11.6763 26.4924 11.9213 26.1446 11.4839C26.1311 11.4532 26.0904 11.4051 26.1311 11.3745H26.1356Z" fill="#0368B1"/>
<path id="Vector_32" d="M0.67804 0V48.2223H50.4497V0H0.67804ZM43.3821 25.1107C42.6866 26.0688 41.8421 26.9612 41.2008 27.9412C41.2731 27.1712 41.3679 26.2175 41.0563 25.487C40.5189 23.9121 40.0492 22.3109 39.8957 20.5829L39.9137 19.9224C40.3202 21.6897 42.1085 22.9059 41.9956 24.8833C42.0363 25.3645 41.8827 25.7713 41.7924 26.1957L41.824 26.2263L41.9053 26.1344C42.1718 25.1632 42.3027 24.1396 42.7137 23.234C43.3053 21.9303 44.0324 20.6092 43.7343 19.0387C44.6285 20.8979 44.3576 23.3784 43.3821 25.1107ZM42.2802 15.1058C43.4543 16.6501 43.7118 19.1043 42.8582 20.8717C42.5421 21.6241 42.3163 22.4203 42.1898 23.2515C42.1311 23.1115 42.1176 22.919 42.0634 22.7572C41.5982 21.0292 39.9047 19.7955 39.2092 18.1594C38.9879 17.6256 38.8028 17.0744 38.6989 16.4926C39.4441 17.8225 41.2731 18.5093 41.7698 19.9749C41.9731 20.3467 41.9595 20.8104 42.086 21.2085C42.1131 21.2085 42.1402 21.191 42.1402 21.1648C41.9189 19.6555 41.9866 18.0719 42.1989 16.5801C42.1853 15.7708 42.104 14.9877 41.6434 14.3621C41.9414 14.5284 42.0769 14.8521 42.2802 15.1014V15.1058ZM41.4537 14.8083C41.7653 16.1601 41.3137 17.4769 41.5982 18.8374L41.5847 18.8506C40.826 17.4025 39.2183 16.7245 38.1073 15.5652C37.4615 14.8783 37.186 14.0428 37.0234 13.1547C37.6602 14.6377 39.3718 14.9658 40.3563 16.2126C40.6905 16.5013 40.7944 16.8994 41.0066 17.2275L41.0382 17.1969C40.4737 16.0289 40.284 14.7077 39.8911 13.4609C39.6924 12.9228 39.2995 12.3891 38.7757 12.0479C40.0628 12.306 41.1827 13.6097 41.4492 14.804L41.4537 14.8083ZM38.0034 11.7111C38.9789 12.551 39.417 13.6447 39.7015 14.7777L39.8595 15.1364C38.446 14.1521 37.1634 12.831 36.2647 11.4355L35.1628 10.3549C36.1338 10.753 37.1725 10.9892 38.0034 11.7111ZM19.5462 10.6611C21.3843 9.78182 23.3939 9.31372 25.5842 9.27435C30.588 9.27873 35.366 12.1267 37.5428 16.6151C38.9247 19.1918 39.3131 22.7397 38.4189 25.6532C37.5112 29.0917 34.526 32.5696 31.0487 33.9826C27.1332 35.8419 21.5739 35.3782 18.083 32.9546C13.2327 29.7348 11.2502 24.1877 12.7179 18.7149C13.6076 15.4602 16.2811 12.1791 19.5507 10.6655L19.5462 10.6611ZM15.7121 10.5343C14.7366 11.3611 14.0592 12.411 13.3366 13.3866C12.6863 14.1653 11.8553 14.6771 11.1192 15.3464C11.5166 14.5502 11.5302 13.5966 12.0947 12.866C12.8985 11.5098 14.3843 11.033 15.7121 10.5343ZM10.3786 13.4216C10.8482 12.8485 11.4534 12.4504 12.1308 12.2841C10.8166 13.1591 10.9024 14.7252 10.487 16.0289C10.356 16.5101 10.1212 16.9563 10.0083 17.4507L10.0444 17.4769C10.2612 16.9169 10.6495 16.392 11.1282 15.9326C12.0631 15.0971 13.445 14.5765 13.9011 13.3428C13.8785 15.0577 12.4018 16.4095 10.9882 17.3719C10.4057 17.8663 9.84116 18.435 9.52052 19.0693C9.48891 18.6406 9.58826 18.2031 9.55213 17.7394C9.39859 16.2432 9.28569 14.5327 10.3831 13.4216H10.3786ZM7.71861 18.5443C7.67796 17.0263 8.32828 15.7883 9.24504 14.6552C9.27214 14.6421 9.2902 14.6159 9.32633 14.6246C8.31925 16.1076 9.15472 17.98 9.10504 19.6686L8.97408 21.3966C8.97408 21.3966 8.99214 21.4622 9.04182 21.4404C9.10053 21.2479 9.11407 21.0423 9.15472 20.841C9.39407 19.4455 10.6405 18.4568 11.7334 17.4944C11.9637 17.245 12.1715 16.9869 12.2889 16.6895C12.2031 17.385 11.9773 18.085 11.6792 18.7281C10.8302 20.338 9.25859 21.6547 8.96956 23.4921C8.82956 21.7335 7.58764 20.4123 7.71409 18.5443H7.71861ZM6.95539 20.7054C7.06829 20.2286 7.1541 19.743 7.36635 19.3055C6.9599 21.3091 8.35537 22.7572 8.8115 24.4983C9.00117 25.1457 9.05085 25.8457 9.32181 26.4582C9.34891 26.4713 9.36697 26.445 9.38504 26.4275C8.70311 24.577 9.6831 22.8578 10.6721 21.4141C10.9115 21.0204 11.0515 20.5829 11.1689 20.1367C11.2728 20.9723 11.056 21.9347 10.9295 22.8053C10.6902 23.9121 10.3334 24.9576 10.0218 26.0338C9.81858 26.7031 9.86826 27.46 9.97665 28.1599L9.87729 28.0812C9.15472 26.7906 7.71861 25.7801 7.29409 24.367C6.94184 23.2428 6.71152 21.9391 6.95087 20.7098L6.95539 20.7054ZM6.88765 24.6252C7.04571 26.7513 9.40762 27.8756 10.505 29.6386C10.7624 29.9973 10.9882 30.3954 11.3315 30.6972C11.2773 30.4741 11.0605 30.2816 10.9792 30.0498C10.5953 29.3105 10.4553 28.4311 10.5502 27.5387C10.6541 26.4538 11.1282 25.4432 10.9476 24.3014C11.9095 26.3138 11.6205 28.8205 12.1579 30.9991C12.2979 31.4759 12.5824 31.9003 12.7676 32.3552C10.7895 31.0516 8.09796 29.8092 7.22184 27.4206C6.85152 26.5981 6.81087 25.5745 6.89216 24.6295L6.88765 24.6252ZM8.06634 29.5073C9.16827 31.9221 11.9276 32.1234 13.7792 33.5933C14.1179 33.882 14.4747 34.1314 14.8585 34.3064L14.8766 34.2889C14.4521 33.917 13.9598 33.4927 13.6618 33.0114C12.5824 31.5547 12.9573 29.5073 12.1489 27.9412C12.885 28.7942 13.5534 29.6823 14.0005 30.6535C14.6643 32.2371 14.9172 34.022 16.4482 35.2163C14.7908 34.6913 12.8444 34.8357 11.3857 33.847C9.78697 32.8977 8.35989 31.2834 8.06183 29.5073H8.06634ZM10.8979 34.0132C12.6637 35.96 15.5495 35.3125 17.9024 35.82C18.232 35.8637 18.5391 35.995 18.8914 35.9425C18.6114 35.7675 18.223 35.7894 17.9159 35.6363C16.0688 35.0063 15.7979 33.0727 14.7953 31.769C16.0779 32.5915 17.1482 33.7026 18.3314 34.7744C19.1804 35.4963 20.201 35.8287 21.2759 36.0431C21.0185 36.135 20.6798 36.1087 20.3998 36.1787C18.4669 36.6424 16.3172 37.3949 14.2669 36.7168C12.9347 36.31 11.5618 35.2907 10.8889 34.0176L10.8979 34.0132ZM34.8783 38.5498C32.8867 39.2673 30.8093 38.5192 29.2558 37.373C28.6235 36.988 28.0681 36.4281 27.2552 36.4806C26.9616 36.4762 26.6771 36.4893 26.4242 36.5593C27.9371 37.2418 29.3371 38.178 30.6242 39.381C30.4074 39.6172 30.1274 39.8447 29.8609 40.0503C28.628 38.7598 27.2552 37.5174 25.7197 36.7912C25.4216 36.8306 25.1371 37.0055 24.8662 37.1455C23.6197 37.9111 22.3823 38.8954 21.4565 40.0941L20.6617 39.4554C21.9352 38.2086 23.3442 37.2374 24.8797 36.5462C23.3668 36.0825 22.3778 37.3118 21.2307 37.933C19.8894 38.8385 17.9656 39.2629 16.3488 38.6373C15.4772 38.3179 14.6372 37.8455 14.005 37.0843C15.2785 37.933 17.1753 38.0205 18.6249 37.4693C20.5669 36.6512 22.5855 35.6188 24.9294 36.1131C25.2952 36.1175 25.652 36.4718 25.9952 36.17C27.7339 35.7325 29.7029 36.0344 31.2022 36.8043L32.7467 37.4036C34.1828 37.9155 36.0389 37.7755 37.2673 36.9268C36.6351 37.6924 35.7725 38.2392 34.8783 38.5454V38.5498ZM37.0144 36.5549C34.7789 37.373 32.5299 36.3668 30.3848 36.0344L29.9738 35.9819V35.9687C30.9945 35.7456 31.9925 35.4482 32.8054 34.7351C34.0067 33.6152 35.077 32.469 36.4093 31.5853C35.4202 32.8146 35.3164 34.5601 33.6815 35.3519C33.2796 35.61 32.7648 35.6538 32.3493 35.8462C32.9454 35.8594 33.4874 35.6538 34.079 35.5969C36.2693 35.2644 38.7757 35.6056 40.3111 33.7989C39.7421 35.0588 38.315 36.1131 37.0144 36.5549ZM38.2563 34.3501C37.1183 34.6476 35.8944 34.7438 34.788 35.1069C36.6667 33.5452 36.5583 31.1303 37.8138 29.293C38.2112 28.7724 38.5454 28.2255 39.006 27.7312C38.2428 29.2142 38.5725 31.1391 37.7008 32.5784C37.3621 33.1514 36.8789 33.7026 36.346 34.1532C36.5176 34.1445 36.6712 34.0001 36.8247 33.9039C38.2518 32.5259 40.1079 32.1409 41.6479 31.0253C42.2666 30.5485 42.8311 29.9273 43.1021 29.2492C42.8085 31.5328 40.4692 33.672 38.2563 34.3501ZM41.0789 30.461C40.1937 31.021 39.2995 31.5415 38.4505 32.1759V32.0971C39.7512 30.0017 39.1144 27.1275 39.9182 24.8264L40.2163 24.0564C40.0492 25.4913 40.695 26.7031 40.6498 28.1424C40.6047 29.0086 40.3111 29.7829 39.8415 30.4741H39.9228C40.5595 29.6648 41.0563 28.803 41.8014 28.033C42.953 26.9525 44.1317 25.8501 44.2853 24.3496C44.6737 26.8475 43.2285 29.0392 41.0879 30.4566L41.0789 30.461Z" fill="#0368B1"/>
<path id="Vector_33" d="M17.802 29.2801C17.5762 29.127 17.3775 28.8732 17.1833 28.6632C16.9666 28.6064 16.7408 28.4576 16.6279 28.252C16.5601 28.182 16.6234 28.0508 16.5466 28.0027L16.4653 28.0989C16.235 28.2083 16.1492 27.9764 15.9866 27.8802C15.7788 27.7708 15.8827 27.3902 15.6027 27.4646C15.4988 27.4558 15.4627 27.3421 15.395 27.2765C15.1376 27.3027 15.0698 27.0271 14.9298 26.8915C14.9027 26.9484 14.9298 27.0271 14.8485 27.0621C14.5821 27.119 14.4918 26.804 14.3111 26.6771C14.266 26.6946 14.2298 26.7471 14.1666 26.734C14.0085 26.5984 13.9002 26.4059 13.8956 26.1959C13.6789 25.9597 13.7782 25.5791 13.8143 25.2904C13.855 25.2116 13.9679 25.1679 13.9453 25.0716C14.004 24.936 14.1531 24.9229 14.2885 24.9185C14.3427 24.9448 14.3969 24.9973 14.424 25.041C14.5098 24.9885 14.704 25.0497 14.6272 24.8616C14.7401 24.7654 14.9072 24.7348 15.0608 24.7085C15.1647 24.8354 15.2189 24.9841 15.3588 25.1066L15.264 24.9666C15.1059 24.3367 14.9795 23.6936 14.9479 23.0111C14.9524 22.9718 14.8621 22.9543 14.9118 22.9149L14.9253 22.9324C14.9298 22.7924 14.9208 22.6699 14.9479 22.5737L14.7672 22.6393L12.9202 22.6262C13.0286 24.6823 13.5931 26.5546 14.546 28.2695C15.0156 29.1182 15.7066 29.8838 16.3117 30.6712L17.635 29.3457L17.793 29.2801H17.802Z" fill="#0368B1"/>
<path id="Vector_34" d="M19.9249 14.2698C19.5139 14.5454 19.1346 14.9041 18.7101 15.1491C19.2023 15.4509 19.6043 15.954 20.0514 16.3521L20.0965 16.4746C21.2255 15.4247 22.5984 14.8166 24.0797 14.5191C24.432 14.4841 24.7842 14.3704 25.1274 14.4404C25.1003 13.8279 25.0461 13.1936 25.1139 12.5899C23.19 12.6992 21.4649 13.2636 19.9249 14.2654V14.2698Z" fill="#0368B1"/>
<path id="Vector_35" d="M25.1906 20.5609C24.9919 20.8803 24.6577 20.9546 24.3506 21.0421C24.2648 21.1471 24.2828 21.3702 24.0796 21.3483C24.0119 21.4883 23.7861 21.5715 23.8719 21.7771C23.7635 21.9958 23.8177 22.2802 23.759 22.5164C23.3661 22.7526 23.479 22.2014 23.2803 22.0877L23.2125 22.197C23.1312 22.2145 23.0816 22.1708 23.0274 22.1183C22.9641 22.0964 22.8693 22.0789 22.8151 22.1314C22.7293 22.2714 22.5938 22.3895 22.6299 22.582C22.5893 22.6958 22.3906 22.6608 22.4177 22.7832C22.6345 22.7745 22.8738 22.7395 23.0861 22.6914C23.2396 22.7308 23.3661 22.6214 23.5196 22.6126C23.5738 22.6389 23.6325 22.6914 23.6145 22.7658H23.6686C23.7725 22.687 23.8222 22.5733 23.7725 22.4551C23.7861 22.3195 23.9396 22.3195 24.0344 22.2802C24.1203 22.3195 24.0661 22.4027 24.0796 22.4683C24.3777 22.5776 24.0073 22.792 23.9667 22.9451C23.8854 23.0676 23.9667 23.3432 23.7138 23.3038C23.6686 23.2907 23.6325 23.247 23.6461 23.1945H23.6099C23.6054 23.2951 23.6822 23.4395 23.7906 23.4832C23.9757 23.3345 23.9803 23.0851 24.2467 23.0501C24.3867 22.9101 24.188 22.6914 24.3912 22.5733C24.739 22.5645 25.1048 22.4245 25.3802 22.6958C25.3577 22.8095 25.3125 22.862 25.4119 22.9582C25.3441 23.107 25.2989 23.2645 25.1725 23.387C25.2041 23.4701 25.177 23.5751 25.1048 23.6319C25.0099 24.0257 24.5493 23.8375 24.2783 23.9732C24.6938 24.2838 25.1996 24.3975 25.746 24.3581C26.0306 24.345 25.9041 24.0038 26.0486 23.8507C26.1435 23.4001 26.568 23.7107 26.8254 23.5882C26.9247 23.3957 27.0241 23.2076 27.0512 22.9889C26.8841 22.8882 26.8164 22.6958 26.8705 22.5076C26.7576 22.3589 26.7712 22.0877 26.5273 22.0658C26.4867 22.0133 26.5183 21.9521 26.5544 21.9127C26.5454 21.7727 26.6944 21.7246 26.7305 21.6152C26.577 21.519 26.6176 21.309 26.6312 21.1865C26.3738 21.2565 26.3422 20.9284 26.1525 20.8584C26.1073 20.7096 25.9402 20.6834 25.8093 20.6571C25.4886 20.8059 25.4344 20.4253 25.1996 20.3378C25.1725 20.2678 25.1183 20.1628 25.1996 20.1059C25.317 20.0097 25.4796 20.0928 25.6151 20.0841L25.5022 20.0272C25.3938 19.9134 25.1635 19.9834 25.0235 20.0272C25.1544 20.1541 25.1002 20.3859 25.1815 20.5478L25.1906 20.5609Z" fill="#0368B1"/>
<path id="Vector_36" d="M25.8616 14.4453C26.1145 14.3622 26.3719 14.4628 26.6248 14.4715C27.9255 14.6771 29.1539 15.084 30.1925 15.8583C30.0661 15.7314 29.9126 15.5827 29.8855 15.3946C29.908 15.3683 29.9351 15.364 29.9667 15.3683C29.9803 15.1671 29.7635 15.0665 29.7274 14.8871C29.759 14.8477 29.8087 14.8084 29.8719 14.8302C30.0977 15.0359 30.2919 15.2633 30.4545 15.4952C30.599 15.4383 30.7209 15.5258 30.8248 15.6046C31.019 15.7139 30.8971 15.9502 31.0461 16.0814C31.0732 16.462 31.5519 16.672 31.5248 17.0526C31.5338 17.1445 31.6467 17.0701 31.6829 17.1182L32.0803 17.5951C32.008 17.6869 32.0667 17.7963 32.1435 17.8575C32.3241 17.9363 32.4235 17.7175 32.6041 17.7482C32.8616 17.8882 32.5635 18.0544 32.5906 18.2119C32.6899 18.2206 32.8164 18.1331 32.8932 18.2338C32.9248 18.3737 32.7757 18.4656 32.7125 18.5531C32.7125 18.6931 32.8299 18.6625 32.9383 18.6931C33.0557 18.6887 33.1325 18.8287 33.0964 18.925C33.4306 19.2574 32.997 19.6205 33.1551 19.9705C33.259 20.2024 33.128 20.4255 32.9835 20.6005C32.988 20.8848 32.7261 21.0554 32.6177 21.2917L32.279 21.3573C32.0983 21.5323 32.4325 21.7423 32.2519 21.8516L32.997 21.8648L32.9157 21.786C32.8119 21.5017 32.8345 21.1254 33.0151 20.8761C33.128 20.6442 33.1551 20.3686 33.3674 20.1674C33.4125 20.1542 33.4983 20.0711 33.539 20.1674C33.5525 20.3861 33.5299 20.6355 33.4261 20.8279C33.6383 21.1254 33.6112 21.5104 33.6338 21.8779C34.2886 21.8385 34.9344 21.8254 35.5757 21.8341L35.517 21.7116C35.4177 20.5217 35.1648 19.3974 34.6544 18.3825C34.519 18.3869 34.4151 18.4962 34.257 18.4612C34.2028 18.4437 34.1712 18.3912 34.1757 18.3344C33.9093 18.0894 33.7467 17.77 33.4441 17.5513C33.1054 17.5819 32.9519 17.2057 32.6493 17.1663C32.3783 17.057 32.5635 16.6326 32.1706 16.7464C31.9809 16.6676 31.7958 16.5276 31.7551 16.3176C31.7551 15.9852 31.6874 15.6221 31.3758 15.4033C31.1364 15.3202 31.0371 15.6264 30.7977 15.5783C30.6667 15.5127 30.7254 15.3465 30.6848 15.2371C30.6396 15.1408 30.5267 15.0709 30.5493 14.9396C30.8609 14.5415 30.17 14.5459 30.3235 14.1565C30.2829 13.8722 29.9848 13.7628 29.8313 13.5397C28.8061 13.0891 27.7764 12.7829 26.6158 12.6473C26.3313 12.6079 26.0649 12.6648 25.8165 12.5379L25.8842 12.6604C25.8707 13.2597 25.9113 13.8941 25.8481 14.454L25.8616 14.4453Z" fill="#0368B1"/>
<path id="Vector_37" d="M25.1266 17.6817C24.0563 17.8173 23.0763 18.1717 22.295 18.9722H22.4396C22.5976 19.1254 22.8596 19.0947 22.977 19.3003C23.0357 19.4141 22.8641 19.401 22.8686 19.4972C22.9002 19.5235 22.9499 19.5278 22.977 19.576C23.1034 19.6197 23.0763 19.506 23.1215 19.4535C23.2886 19.2916 23.3157 19.6066 23.4737 19.6066C23.5866 19.5366 23.7447 19.5278 23.826 19.6503C23.9299 19.5585 24.1557 19.646 24.1918 19.4753C24.3995 19.261 24.2866 18.9372 24.5892 18.8016C24.6931 18.8585 24.5847 18.9547 24.6208 19.0466C24.824 19.1297 25.0589 18.8804 25.226 19.0772C25.0769 18.6573 25.1131 18.1411 25.1266 17.6773V17.6817Z" fill="#0368B1"/>
<path id="Vector_38" d="M14.9704 21.9267L14.9207 21.6773C15.0472 19.6256 15.7246 17.8013 16.9123 16.1696C17.2104 15.8415 17.4272 15.4303 17.802 15.1853C17.3684 14.7916 16.9214 14.3366 16.4697 13.9079L16.4246 13.7329C14.5323 15.7715 13.3672 18.0988 13.0285 20.7499C12.9562 21.1349 13.0014 21.533 12.9246 21.9267C13.5885 21.8742 14.3111 21.8742 14.9749 21.9267H14.9704Z" fill="#0368B1"/>
<path id="Vector_39" d="M18.3139 14.6983L18.3455 14.6108C20.2829 12.9003 22.5364 11.9641 25.1242 11.846L25.0609 11.6929L25.0429 10.1486L25.0971 9.96924C22.4281 10.0699 20.0616 10.9535 17.9571 12.4191C17.5507 12.6903 17.1939 13.1015 16.783 13.3334H16.8417C17.3655 13.7052 17.8623 14.2389 18.3094 14.7027L18.3139 14.6983Z" fill="#0368B1"/>
<path id="Vector_40" d="M25.0334 15.1367C23.3489 15.2504 21.8857 15.9328 20.6077 16.9565C21.1135 17.2978 21.5606 17.8446 22.0212 18.2339C22.0528 18.1902 22.0889 18.1421 22.1206 18.0939C22.7528 17.6565 23.4031 17.2584 24.1438 17.079C24.4734 17.0484 24.8031 16.8909 25.1463 16.9697C25.0741 16.3659 25.0741 15.6966 25.1463 15.0754L25.0334 15.141V15.1367Z" fill="#0368B1"/>
</g>
</g>
</g>
</svg>
