<svg width="408" height="620" viewBox="0 0 408 620" fill="none" xmlns="http://www.w3.org/2000/svg">
<path fill-rule="evenodd" clip-rule="evenodd" d="M637.724 0.593712L696.539 423.195C709.185 514.056 648.625 598.963 558.598 616.593C469.791 633.983 382.608 579.913 358.72 492.629L332.249 395.903C307.336 304.872 206.596 258.422 121.394 297.978C120.095 299.532 118.747 301.589 117.361 303.703C115.542 306.479 113.658 309.354 111.736 311.319C109.313 313.795 106.684 316.051 103.883 318.09L78.8564 336.326C76.5653 337.999 73.4132 337.829 71.2983 335.927C68.5957 333.486 69.3608 329.866 71.4423 326.879C73.4334 324.008 76.8062 321.295 79.9673 318.752C84.9689 314.729 89.4408 311.132 87.0718 308.008C83.3382 303.086 60.6565 315.181 44.1128 324.003C40.0988 326.143 36.4462 328.091 33.5132 329.556C29.9919 331.313 25.7187 329.741 24.1738 326.118C22.7559 322.788 24.1778 318.938 27.421 317.327L59.7973 301.293C61.1813 300.609 61.7252 298.907 60.9873 297.536C60.2815 296.245 58.6854 295.734 57.3638 296.385L13.5798 318.02C10.1149 319.729 5.92026 318.226 4.33932 314.702C2.84159 311.362 4.22996 307.45 7.49621 305.813L50.3464 284.411C51.8259 283.671 52.416 281.875 51.6692 280.398C50.9471 278.962 49.2144 278.363 47.7579 279.035L9.33784 296.713C6.16974 298.175 2.41056 296.708 1.05102 293.482C-0.191808 290.503 1.05849 287.084 3.91893 285.611L41.0002 266.535C42.6391 265.689 43.3622 263.72 42.651 262.019C41.8609 260.121 39.6356 259.283 37.7879 260.196L13.2933 272.311C10.011 273.929 6.02389 272.419 4.6537 269.02C3.43403 266.016 4.69303 262.576 7.56215 261.083L72.9102 230.241C77.6595 227.985 84.921 225.475 91.2613 223.401C220.651 165.966 372.054 236.905 409.763 374.689L436.235 471.415C449.013 518.105 495.649 547.029 543.154 537.726C591.311 528.295 623.706 482.877 616.941 434.273L558.126 11.6716L637.724 0.593712Z" fill="#81C2F2"/>
</svg>
