<svg width="647" height="678" viewBox="0 0 647 678" fill="none" xmlns="http://www.w3.org/2000/svg">
<path fill-rule="evenodd" clip-rule="evenodd" d="M151.025 585.071L-44.6562 415.669L-95.7082 474.641L99.9734 644.043C142.978 681.272 204.326 688.543 254.842 662.398L270.053 654.525C310.29 633.7 337.852 594.571 343.912 549.672L353.793 476.466C357.52 448.849 352.861 420.75 340.419 395.814L317.854 350.59C306.138 327.111 322.78 299.412 349.011 298.731L402.777 297.337C487.016 295.151 524.908 190.826 461.708 135.089C451.732 126.291 457.602 109.825 470.892 109.32L490.195 108.587C490.841 108.613 491.489 108.624 492.137 108.618L492.143 108.691L524.106 109.1L525.091 109.094C532.842 109.045 544.764 108.97 552.033 107.941L626.228 97.6279C629.528 97.0371 631.837 94.0231 631.56 90.6729C631.255 86.8861 627.776 84.1593 624.029 84.7454L596.046 89.1599C593.936 89.4923 591.993 87.9746 591.798 85.853C591.62 83.9494 592.944 82.2256 594.828 81.8952L637.416 74.4846C640.702 73.9113 642.996 70.9147 642.687 67.5833C642.339 63.9706 639.073 61.3567 635.487 61.8242L592.006 67.4376C590.357 67.6516 588.828 66.5232 588.557 64.879C588.275 63.1871 589.414 61.5919 591.107 61.3175L640.122 53.3894C643.86 52.7797 646.444 49.3373 645.994 45.5702C645.52 41.5939 641.833 38.8107 637.877 39.4299L587.865 47.3C586.357 47.5352 584.935 46.5363 584.636 45.0407C584.33 43.4563 585.394 41.9403 586.975 41.6911L623.967 35.8362C627.674 35.2452 630.272 31.8749 629.898 28.1423C629.49 24.0794 625.748 21.2031 621.72 21.8524C618.365 22.3954 614.149 23.1934 609.515 24.0703C590.418 27.6844 564.236 32.6393 562.064 26.6145C560.686 22.7916 566.223 20.615 572.415 18.1805C576.329 16.6418 580.505 15.0002 583.363 12.7748C586.346 10.4624 588.222 7.11758 586.303 3.86705C584.799 1.33076 581.732 0.187974 578.948 1.13539L548.547 11.4413C545.145 12.5928 541.846 14.0124 538.684 15.7135C536.174 17.0636 533.421 19.3253 530.763 21.5095C527.531 24.1649 524.439 26.7056 522.092 27.3538C514.804 29.3649 492.217 30.039 491.526 30.0592L491.524 30.0341L491.51 30.0597C491.51 30.0597 491.515 30.0595 491.526 30.0592L491.532 30.1391C489.336 30.1499 487.13 30.3447 484.938 30.7306L467.933 31.3761C384.269 34.5523 347.322 138.21 410.116 193.589C420.155 202.443 414.136 219.016 400.754 219.363L346.988 220.758C263.702 222.918 210.862 310.865 248.059 385.415L270.624 430.639C276.085 441.582 278.13 453.914 276.494 466.033L266.613 539.238C263.954 558.943 251.858 576.114 234.2 585.253L218.989 593.126C196.821 604.6 169.898 601.409 151.025 585.071Z" fill="#0368B1"/>
</svg>
