<svg width="376" height="729" viewBox="0 0 376 729" fill="none" xmlns="http://www.w3.org/2000/svg">
<path d="M836.829 0.134766H0.829102V728.135H836.826V0.134766H836.829ZM836.435 618.514H800.876V582.953H836.435V618.514ZM1.22339 109.756H36.7826V145.316H1.22339V109.756ZM509.304 327.316H473.745V291.756H509.304V327.316ZM510.093 291.756H545.652V327.316H510.093V291.756ZM436.609 363.716H401.049V328.156H436.609V363.716ZM437.397 328.156H472.957V363.716H437.397V328.156ZM400.261 363.716H364.702V328.156H400.261V363.716ZM363.913 363.716H328.354V328.156H363.913V363.716ZM363.913 364.556V400.116H328.354V364.556H363.913ZM364.702 364.556H400.261V400.116H364.702V364.556ZM401.049 364.556H436.609V400.116H401.049V364.556ZM437.397 364.556H472.957V400.116H437.397V364.556ZM473.745 364.556H509.304V400.116H473.745V364.556ZM473.745 363.716V328.156H509.304V363.716H473.745ZM472.957 327.316H437.397V291.756H472.957V327.316ZM436.609 327.316H401.049V291.756H436.609V327.316ZM400.261 327.316H364.702V291.756H400.261V327.316ZM363.913 327.316H328.354V291.756H363.913V327.316ZM327.565 327.316H292.006V291.756H327.565V327.316ZM327.565 328.156V363.716H292.006V328.156H327.565ZM327.565 364.556V400.116H292.006V364.556H327.565ZM291.217 400.116H255.658V364.556H291.217V400.116ZM291.217 400.956V436.516H255.658V400.956H291.217ZM292.006 400.956H327.565V436.516H292.006V400.956ZM328.354 400.956H363.913V436.516H328.354V400.956ZM364.702 400.956H400.261V436.516H364.702V400.956ZM401.049 400.956H436.609V436.516H401.049V400.956ZM437.397 400.956H472.957V436.516H437.397V400.956ZM473.745 400.956H509.304V436.516H473.745V400.956ZM510.093 400.956H545.652V436.516H510.093V400.956ZM510.093 400.116V364.556H545.652V400.116H510.093ZM510.093 363.716V328.156H545.652V363.716H510.093ZM546.441 328.156H582V363.716H546.441V328.156ZM546.441 327.316V291.756H582V327.316H546.441ZM546.441 290.916V255.356H582V290.916H546.441ZM545.652 290.916H510.093V255.356H545.652V290.916ZM509.304 290.916H473.745V255.356H509.304V290.916ZM472.957 290.916H437.397V255.356H472.957V290.916ZM436.609 290.916H401.049V255.356H436.609V290.916ZM400.261 290.916H364.702V255.356H400.261V290.916ZM363.913 290.916H328.354V255.356H363.913V290.916ZM327.565 290.916H292.006V255.356H327.565V290.916ZM291.217 290.916H255.658V255.356H291.217V290.916ZM291.217 291.756V327.316H255.658V291.756H291.217ZM291.217 328.156V363.716H255.658V328.156H291.217ZM254.87 363.716H219.31V328.156H254.87V363.716ZM254.87 364.556V400.116H219.31V364.556H254.87ZM254.87 400.956V436.516H219.31V400.956H254.87ZM254.87 437.356V472.916H219.31V437.356H254.87ZM255.658 437.356H291.217V472.916H255.658V437.356ZM292.006 437.356H327.565V472.916H292.006V437.356ZM328.354 437.356H363.913V472.916H328.354V437.356ZM364.702 437.356H400.261V472.916H364.702V437.356ZM401.049 437.356H436.609V472.916H401.049V437.356ZM437.397 437.356H472.957V472.916H437.397V437.356ZM473.745 437.356H509.304V472.916H473.745V437.356ZM510.093 437.356H545.652V472.916H510.093V437.356ZM546.441 437.356H582V472.916H546.441V437.356ZM546.441 436.516V400.956H582V436.516H546.441ZM546.441 400.116V364.556H582V400.116H546.441ZM582.789 364.556H618.348V400.116H582.789V364.556ZM582.789 363.716V328.156H618.348V363.716H582.789ZM582.789 327.316V291.756H618.348V327.316H582.789ZM582.789 290.916V255.356H618.348V290.916H582.789ZM582.789 254.516V218.956H618.348V254.516H582.789ZM582 254.516H546.441V218.956H582V254.516ZM545.652 254.516H510.093V218.956H545.652V254.516ZM509.304 254.516H473.745V218.956H509.304V254.516ZM472.957 254.516H437.397V218.956H472.957V254.516ZM436.609 254.516H401.049V218.956H436.609V254.516ZM400.261 254.516H364.702V218.956H400.261V254.516ZM363.913 254.516H328.354V218.956H363.913V254.516ZM327.565 254.516H292.006V218.956H327.565V254.516ZM291.217 254.516H255.658V218.956H291.217V254.516ZM254.87 254.516H219.31V218.956H254.87V254.516ZM254.87 255.356V290.916H219.31V255.356H254.87ZM254.87 291.756V327.316H219.31V291.756H254.87ZM218.522 327.316H182.963V291.756H218.522V327.316ZM218.522 328.156V363.716H182.963V328.156H218.522ZM218.522 364.556V400.116H182.963V364.556H218.522ZM218.522 400.956V436.516H182.963V400.956H218.522ZM218.522 437.356V472.916H182.963V437.356H218.522ZM218.522 473.756V509.316H182.963V473.756H218.522ZM219.31 473.756H254.87V509.316H219.31V473.756ZM255.658 473.756H291.217V509.316H255.658V473.756ZM292.006 473.756H327.565V509.316H292.006V473.756ZM328.354 473.756H363.913V509.316H328.354V473.756ZM364.702 473.756H400.261V509.316H364.702V473.756ZM401.049 473.756H436.609V509.316H401.049V473.756ZM437.397 473.756H472.957V509.316H437.397V473.756ZM473.745 473.756H509.304V509.316H473.745V473.756ZM510.093 473.756H545.652V509.316H510.093V473.756ZM546.441 473.756H582V509.316H546.441V473.756ZM582.789 473.756H618.348V509.316H582.789V473.756ZM582.789 472.916V437.356H618.348V472.916H582.789ZM582.789 436.516V400.956H618.348V436.516H582.789ZM619.136 400.956H654.696V436.516H619.136V400.956ZM619.136 400.116V364.556H654.696V400.116H619.136ZM619.136 363.716V328.156H654.696V363.716H619.136ZM619.136 327.316V291.756H654.696V327.316H619.136ZM619.136 290.916V255.356H654.696V290.916H619.136ZM619.136 254.516V218.956H654.696V254.516H619.136ZM619.136 218.116V182.556H654.696V218.116H619.136ZM618.348 218.116H582.789V182.556H618.348V218.116ZM582 218.116H546.441V182.556H582V218.116ZM545.652 218.116H510.093V182.556H545.652V218.116ZM509.304 218.116H473.745V182.556H509.304V218.116ZM472.957 218.116H437.397V182.556H472.957V218.116ZM436.609 218.116H401.049V182.556H436.609V218.116ZM400.261 218.116H364.702V182.556H400.261V218.116ZM363.913 218.116H328.354V182.556H363.913V218.116ZM327.565 218.116H292.006V182.556H327.565V218.116ZM291.217 218.116H255.658V182.556H291.217V218.116ZM254.87 218.116H219.31V182.556H254.87V218.116ZM218.522 218.116H182.963V182.556H218.522V218.116ZM218.522 218.956V254.516H182.963V218.956H218.522ZM218.522 255.356V290.916H182.963V255.356H218.522ZM182.174 290.916H146.615V255.356H182.174V290.916ZM182.174 291.756V327.316H146.615V291.756H182.174ZM182.174 328.156V363.716H146.615V328.156H182.174ZM182.174 364.556V400.116H146.615V364.556H182.174ZM182.174 400.956V436.516H146.615V400.956H182.174ZM182.174 437.356V472.916H146.615V437.356H182.174ZM182.174 473.756V509.316H146.615V473.756H182.174ZM182.174 510.156V545.716H146.615V510.156H182.174ZM182.963 510.156H218.522V545.716H182.963V510.156ZM219.31 510.156H254.87V545.716H219.31V510.156ZM255.658 510.156H291.217V545.716H255.658V510.156ZM292.006 510.156H327.565V545.716H292.006V510.156ZM328.354 510.156H363.913V545.716H328.354V510.156ZM364.702 510.156H400.261V545.716H364.702V510.156ZM401.049 510.156H436.609V545.716H401.049V510.156ZM437.397 510.156H472.957V545.716H437.397V510.156ZM473.745 510.156H509.304V545.716H473.745V510.156ZM510.093 510.156H545.652V545.716H510.093V510.156ZM546.441 510.156H582V545.716H546.441V510.156ZM582.789 510.156H618.348V545.716H582.789V510.156ZM619.136 510.156H654.696V545.716H619.136V510.156ZM619.136 509.316V473.756H654.696V509.316H619.136ZM619.136 472.916V437.356H654.696V472.916H619.136ZM655.484 437.356H691.044V472.916H655.484V437.356ZM655.484 436.516V400.956H691.044V436.516H655.484ZM655.484 400.116V364.556H691.044V400.116H655.484ZM655.484 363.716V328.156H691.044V363.716H655.484ZM655.484 327.316V291.756H691.044V327.316H655.484ZM655.484 290.916V255.356H691.044V290.916H655.484ZM655.484 254.516V218.956H691.044V254.516H655.484ZM655.484 218.116V182.556H691.044V218.116H655.484ZM655.484 181.716V146.156H691.044V181.716H655.484ZM654.696 181.716H619.136V146.156H654.696V181.716ZM618.348 181.716H582.789V146.156H618.348V181.716ZM582 181.716H546.441V146.156H582V181.716ZM545.652 181.716H510.093V146.156H545.652V181.716ZM509.304 181.716H473.745V146.156H509.304V181.716ZM472.957 181.716H437.397V146.156H472.957V181.716ZM436.609 181.716H401.049V146.156H436.609V181.716ZM400.261 181.716H364.702V146.156H400.261V181.716ZM363.913 181.716H328.354V146.156H363.913V181.716ZM327.565 181.716H292.006V146.156H327.565V181.716ZM291.217 181.716H255.658V146.156H291.217V181.716ZM254.87 181.716H219.31V146.156H254.87V181.716ZM218.522 181.716H182.963V146.156H218.522V181.716ZM182.174 181.716H146.615V146.156H182.174V181.716ZM182.174 182.556V218.116H146.615V182.556H182.174ZM182.174 218.956V254.516H146.615V218.956H182.174ZM145.826 254.516H110.267V218.956H145.826V254.516ZM145.826 255.356V290.916H110.267V255.356H145.826ZM145.826 291.756V327.316H110.267V291.756H145.826ZM145.826 328.156V363.716H110.267V328.156H145.826ZM145.826 364.556V400.116H110.267V364.556H145.826ZM145.826 400.956V436.516H110.267V400.956H145.826ZM145.826 437.356V472.916H110.267V437.356H145.826ZM145.826 473.756V509.316H110.267V473.756H145.826ZM145.826 510.156V545.716H110.267V510.156H145.826ZM145.826 546.556V582.116H110.267V546.556H145.826ZM146.615 546.556H182.174V582.116H146.615V546.556ZM182.963 546.556H218.522V582.116H182.963V546.556ZM219.31 546.556H254.87V582.116H219.31V546.556ZM255.658 546.556H291.217V582.116H255.658V546.556ZM292.006 546.556H327.565V582.116H292.006V546.556ZM328.354 546.556H363.913V582.116H328.354V546.556ZM364.702 546.556H400.261V582.116H364.702V546.556ZM401.049 546.556H436.609V582.116H401.049V546.556ZM437.397 546.556H472.957V582.116H437.397V546.556ZM473.745 546.556H509.304V582.116H473.745V546.556ZM510.093 546.556H545.652V582.116H510.093V546.556ZM546.441 546.556H582V582.116H546.441V546.556ZM582.789 546.556H618.348V582.116H582.789V546.556ZM619.136 546.556H654.696V582.116H619.136V546.556ZM655.484 546.556H691.044V582.116H655.484V546.556ZM655.484 545.716V510.156H691.044V545.716H655.484ZM655.484 509.316V473.756H691.044V509.316H655.484ZM691.832 473.756H727.391V509.316H691.832V473.756ZM691.832 472.916V437.356H727.391V472.916H691.832ZM691.832 436.516V400.956H727.391V436.516H691.832ZM691.832 400.116V364.556H727.391V400.116H691.832ZM691.832 363.716V328.156H727.391V363.716H691.832ZM691.832 327.316V291.756H727.391V327.316H691.832ZM691.832 290.916V255.356H727.391V290.916H691.832ZM691.832 254.516V218.956H727.391V254.516H691.832ZM691.832 218.116V182.556H727.391V218.116H691.832ZM691.832 181.716V146.156H727.391V181.716H691.832ZM691.832 145.316V109.756H727.391V145.316H691.832ZM691.044 145.316H655.484V109.756H691.044V145.316ZM654.696 145.316H619.136V109.756H654.696V145.316ZM618.348 145.316H582.789V109.756H618.348V145.316ZM582 145.316H546.441V109.756H582V145.316ZM545.652 145.316H510.093V109.756H545.652V145.316ZM509.304 145.316H473.745V109.756H509.304V145.316ZM472.957 145.316H437.397V109.756H472.957V145.316ZM436.609 145.316H401.049V109.756H436.609V145.316ZM400.261 145.316H364.702V109.756H400.261V145.316ZM363.913 145.316H328.354V109.756H363.913V145.316ZM327.565 145.316H292.006V109.756H327.565V145.316ZM291.217 145.316H255.658V109.756H291.217V145.316ZM254.87 145.316H219.31V109.756H254.87V145.316ZM218.522 145.316H182.963V109.756H218.522V145.316ZM182.174 145.316H146.615V109.756H182.174V145.316ZM145.826 145.316H110.267V109.756H145.826V145.316ZM145.826 146.156V181.716H110.267V146.156H145.826ZM145.826 182.556V218.116H110.267V182.556H145.826ZM109.478 218.116H73.919V182.556H109.478V218.116ZM109.478 218.956V254.516H73.919V218.956H109.478ZM109.478 255.356V290.916H73.919V255.356H109.478ZM109.478 291.756V327.316H73.919V291.756H109.478ZM109.478 328.156V363.716H73.919V328.156H109.478ZM109.478 364.556V400.116H73.919V364.556H109.478ZM109.478 400.956V436.516H73.919V400.956H109.478ZM109.478 437.356V472.916H73.919V437.356H109.478ZM109.478 473.756V509.316H73.919V473.756H109.478ZM109.478 510.156V545.716H73.919V510.156H109.478ZM109.478 546.556V582.116H73.919V546.556H109.478ZM109.478 582.956V618.516H73.919V582.956H109.478ZM110.267 582.956H145.826V618.516H110.267V582.956ZM146.615 582.956H182.174V618.516H146.615V582.956ZM182.963 582.956H218.522V618.516H182.963V582.956ZM219.31 582.956H254.87V618.516H219.31V582.956ZM255.658 582.956H291.217V618.516H255.658V582.956ZM292.006 582.956H327.565V618.516H292.006V582.956ZM328.354 582.956H363.913V618.516H328.354V582.956ZM364.702 582.956H400.261V618.516H364.702V582.956ZM401.049 582.956H436.609V618.516H401.049V582.956ZM437.397 582.956H472.957V618.516H437.397V582.956ZM473.745 582.956H509.304V618.516H473.745V582.956ZM510.093 582.956H545.652V618.516H510.093V582.956ZM546.441 582.956H582V618.516H546.441V582.956ZM582.789 582.956H618.348V618.516H582.789V582.956ZM619.136 582.956H654.696V618.516H619.136V582.956ZM655.484 582.956H691.044V618.516H655.484V582.956ZM691.832 582.956H727.391V618.516H691.832V582.956ZM691.832 582.116V546.556H727.391V582.116H691.832ZM691.832 545.716V510.156H727.391V545.716H691.832ZM728.18 510.156H763.739V545.716H728.18V510.156ZM728.18 509.316V473.756H763.739V509.316H728.18ZM728.18 472.916V437.356H763.739V472.916H728.18ZM728.18 436.516V400.956H763.739V436.516H728.18ZM728.18 400.116V364.556H763.739V400.116H728.18ZM728.18 363.716V328.156H763.739V363.716H728.18ZM728.18 327.316V291.756H763.739V327.316H728.18ZM728.18 290.916V255.356H763.739V290.916H728.18ZM728.18 254.516V218.956H763.739V254.516H728.18ZM728.18 218.116V182.556H763.739V218.116H728.18ZM728.18 181.716V146.156H763.739V181.716H728.18ZM728.18 145.316V109.756H763.739V145.316H728.18ZM728.18 108.916V73.3559H763.739V108.916H728.18ZM727.391 108.916H691.832V73.3559H727.391V108.916ZM691.044 108.916H655.484V73.3559H691.044V108.916ZM654.696 108.916H619.136V73.3559H654.696V108.916ZM618.348 108.916H582.789V73.3559H618.348V108.916ZM582 108.916H546.441V73.3559H582V108.916ZM545.652 108.916H510.093V73.3559H545.652V108.916ZM509.304 108.916H473.745V73.3559H509.304V108.916ZM472.957 108.916H437.397V73.3559H472.957V108.916ZM436.609 108.916H401.049V73.3559H436.609V108.916ZM400.261 108.916H364.702V73.3559H400.261V108.916ZM363.913 108.916H328.354V73.3559H363.913V108.916ZM327.565 108.916H292.006V73.3559H327.565V108.916ZM291.217 108.916H255.658V73.3559H291.217V108.916ZM254.87 108.916H219.31V73.3559H254.87V108.916ZM218.522 108.916H182.963V73.3559H218.522V108.916ZM182.174 108.916H146.615V73.3559H182.174V108.916ZM145.826 108.916H110.267V73.3559H145.826V108.916ZM109.478 108.916H73.919V73.3559H109.478V108.916ZM109.478 109.756V145.316H73.919V109.756H109.478ZM109.478 146.156V181.716H73.919V146.156H109.478ZM73.1305 181.716H37.5712V146.156H73.1305V181.716ZM73.1305 182.556V218.116H37.5712V182.556H73.1305ZM73.1305 218.956V254.516H37.5712V218.956H73.1305ZM73.1305 255.356V290.916H37.5712V255.356H73.1305ZM73.1305 291.756V327.316H37.5712V291.756H73.1305ZM73.1305 328.156V363.716H37.5712V328.156H73.1305ZM73.1305 364.556V400.116H37.5712V364.556H73.1305ZM73.1305 400.956V436.516H37.5712V400.956H73.1305ZM73.1305 437.356V472.916H37.5712V437.356H73.1305ZM73.1305 473.756V509.316H37.5712V473.756H73.1305ZM73.1305 510.156V545.716H37.5712V510.156H73.1305ZM73.1305 546.556V582.116H37.5712V546.556H73.1305ZM73.1305 582.956V618.516H37.5712V582.956H73.1305ZM73.1305 619.356V654.916H37.5712V619.356H73.1305ZM73.919 619.356H109.478V654.916H73.919V619.356ZM110.267 619.356H145.826V654.916H110.267V619.356ZM146.615 619.356H182.174V654.916H146.615V619.356ZM182.963 619.356H218.522V654.916H182.963V619.356ZM219.31 619.356H254.87V654.916H219.31V619.356ZM255.658 619.356H291.217V654.916H255.658V619.356ZM292.006 619.356H327.565V654.916H292.006V619.356ZM328.354 619.356H363.913V654.916H328.354V619.356ZM364.702 619.356H400.261V654.916H364.702V619.356ZM401.049 619.356H436.609V654.916H401.049V619.356ZM437.397 619.356H472.957V654.916H437.397V619.356ZM473.745 619.356H509.304V654.916H473.745V619.356ZM510.093 619.356H545.652V654.916H510.093V619.356ZM546.441 619.356H582V654.916H546.441V619.356ZM582.789 619.356H618.348V654.916H582.789V619.356ZM619.136 619.356H654.696V654.916H619.136V619.356ZM655.484 619.356H691.044V654.916H655.484V619.356ZM691.832 619.356H727.391V654.916H691.832V619.356ZM728.18 619.356H763.739V654.916H728.18V619.356ZM728.18 618.516V582.956H763.739V618.516H728.18ZM728.18 582.116V546.556H763.739V582.116H728.18ZM764.528 546.556H800.087V582.116H764.528V546.556ZM764.528 545.716V510.156H800.087V545.716H764.528ZM764.528 509.316V473.756H800.087V509.316H764.528ZM764.528 472.916V437.356H800.087V472.916H764.528ZM764.528 436.516V400.956H800.087V436.516H764.528ZM764.528 400.116V364.556H800.087V400.116H764.528ZM764.528 363.716V328.156H800.087V363.716H764.528ZM764.528 327.316V291.756H800.087V327.316H764.528ZM764.528 290.916V255.356H800.087V290.916H764.528ZM764.528 254.516V218.956H800.087V254.516H764.528ZM764.528 218.116V182.556H800.087V218.116H764.528ZM764.528 181.716V146.156H800.087V181.716H764.528ZM764.528 145.316V109.756H800.087V145.316H764.528ZM764.528 108.916V73.3559H800.087V108.916H764.528ZM764.528 72.5162V36.9559H800.087V72.5162H764.528ZM763.739 72.5162H728.18V36.9559H763.739V72.5162ZM727.391 72.5162H691.832V36.9559H727.391V72.5162ZM691.044 72.5162H655.484V36.9559H691.044V72.5162ZM654.696 72.5162H619.136V36.9559H654.696V72.5162ZM618.348 72.5162H582.789V36.9559H618.348V72.5162ZM582 72.5162H546.441V36.9559H582V72.5162ZM545.652 72.5162H510.093V36.9559H545.652V72.5162ZM509.304 72.5162H473.745V36.9559H509.304V72.5162ZM472.957 72.5162H437.397V36.9559H472.957V72.5162ZM436.609 72.5162H401.049V36.9559H436.609V72.5162ZM400.261 72.5162H364.702V36.9559H400.261V72.5162ZM363.913 72.5162H328.354V36.9559H363.913V72.5162ZM327.565 72.5162H292.006V36.9559H327.565V72.5162ZM291.217 72.5162H255.658V36.9559H291.217V72.5162ZM254.87 72.5162H219.31V36.9559H254.87V72.5162ZM218.522 72.5162H182.963V36.9559H218.522V72.5162ZM182.174 72.5162H146.615V36.9559H182.174V72.5162ZM145.826 72.5162H110.267V36.9559H145.826V72.5162ZM109.478 72.5162H73.919V36.9559H109.478V72.5162ZM73.1305 72.5162H37.5712V36.9559H73.1305V72.5162ZM73.1305 73.3559V108.916H37.5712V73.3559H73.1305ZM73.1305 109.756V145.316H37.5712V109.756H73.1305ZM1.22339 146.156H36.7826V181.716H1.22339V146.156ZM1.22339 182.556H36.7826V218.116H1.22339V182.556ZM1.22339 218.956H36.7826V254.516H1.22339V218.956ZM1.22339 255.356H36.7826V290.916H1.22339V255.356ZM1.22339 291.756H36.7826V327.316H1.22339V291.756ZM1.22339 328.156H36.7826V363.716H1.22339V328.156ZM1.22339 364.556H36.7826V400.116H1.22339V364.556ZM1.22339 400.956H36.7826V436.516H1.22339V400.956ZM1.22339 437.356H36.7826V472.916H1.22339V437.356ZM1.22339 473.756H36.7826V509.316H1.22339V473.756ZM1.22339 510.156H36.7826V545.716H1.22339V510.156ZM1.22339 546.556H36.7826V582.116H1.22339V546.556ZM1.22339 582.956H36.7826V618.516H1.22339V582.956ZM1.22339 619.356H36.7826V654.916H1.22339V619.356ZM1.22339 655.756H36.7826V691.316H1.22339V655.756ZM37.5712 655.756H73.1305V691.316H37.5712V655.756ZM73.919 655.756H109.478V691.316H73.919V655.756ZM110.267 655.756H145.826V691.316H110.267V655.756ZM146.615 655.756H182.174V691.316H146.615V655.756ZM182.963 655.756H218.522V691.316H182.963V655.756ZM219.31 655.756H254.87V691.316H219.31V655.756ZM255.658 655.756H291.217V691.316H255.658V655.756ZM292.006 655.756H327.565V691.316H292.006V655.756ZM328.354 655.756H363.913V691.316H328.354V655.756ZM364.702 655.756H400.261V691.316H364.702V655.756ZM401.049 655.756H436.609V691.316H401.049V655.756ZM437.397 655.756H472.957V691.316H437.397V655.756ZM473.745 655.756H509.304V691.316H473.745V655.756ZM510.093 655.756H545.652V691.316H510.093V655.756ZM546.441 655.756H582V691.316H546.441V655.756ZM582.789 655.756H618.348V691.316H582.789V655.756ZM619.136 655.756H654.696V691.316H619.136V655.756ZM655.484 655.756H691.044V691.316H655.484V655.756ZM691.832 655.756H727.391V691.316H691.832V655.756ZM728.18 655.756H763.739V691.316H728.18V655.756ZM764.528 655.756H800.087V691.316H764.528V655.756ZM764.528 654.916V619.356H800.087V654.916H764.528ZM764.528 618.516V582.956H800.087V618.516H764.528ZM836.435 582.116H800.876V546.556H836.435V582.116ZM836.435 545.716H800.876V510.156H836.435V545.716ZM836.435 509.316H800.876V473.756H836.435V509.316ZM836.435 472.916H800.876V437.356H836.435V472.916ZM836.435 436.516H800.876V400.956H836.435V436.516ZM836.435 400.116H800.876V364.556H836.435V400.116ZM836.435 363.716H800.876V328.156H836.435V363.716ZM836.435 327.316H800.876V291.756H836.435V327.316ZM836.435 290.916H800.876V255.356H836.435V290.916ZM836.435 254.516H800.876V218.956H836.435V254.516ZM836.435 218.116H800.876V182.556H836.435V218.116ZM836.435 181.716H800.876V146.156H836.435V181.716ZM836.435 145.316H800.876V109.756H836.435V145.316ZM836.435 108.916H800.876V73.3559H836.435V108.916ZM836.435 72.5162H800.876V36.9559H836.435V72.5162ZM836.435 36.1162H800.876V0.55594H836.435V36.1162ZM800.087 36.1162H764.528V0.55594H800.087V36.1162ZM763.739 36.1162H728.18V0.55594H763.739V36.1162ZM727.391 36.1162H691.832V0.55594H727.391V36.1162ZM691.044 36.1162H655.484V0.55594H691.044V36.1162ZM654.696 36.1162H619.136V0.55594H654.696V36.1162ZM618.348 36.1162H582.789V0.55594H618.348V36.1162ZM582 36.1162H546.441V0.55594H582V36.1162ZM545.652 36.1162H510.093V0.55594H545.652V36.1162ZM509.304 36.1162H473.745V0.55594H509.304V36.1162ZM472.957 36.1162H437.397V0.55594H472.957V36.1162ZM436.609 36.1162H401.049V0.55594H436.609V36.1162ZM400.261 36.1162H364.702V0.55594H400.261V36.1162ZM363.913 36.1162H328.354V0.55594H363.913V36.1162ZM327.565 36.1162H292.006V0.55594H327.565V36.1162ZM291.217 36.1162H255.658V0.55594H291.217V36.1162ZM254.87 36.1162H219.31V0.55594H254.87V36.1162ZM218.522 36.1162H182.963V0.55594H218.522V36.1162ZM182.174 36.1162H146.615V0.55594H182.174V36.1162ZM145.826 36.1162H110.267V0.55594H145.826V36.1162ZM109.478 36.1162H73.919V0.55594H109.478V36.1162ZM73.1305 36.1162H37.5712V0.55594H73.1305V36.1162ZM36.7826 36.1162H1.22339V0.55594H36.7826V36.1162ZM36.7826 36.9559V72.5162H1.22339V36.9559H36.7826ZM36.7826 73.3559V108.916H1.22339V73.3559H36.7826ZM1.22339 692.153H36.7826V727.714H1.22339V692.153ZM37.5712 692.153H73.1305V727.714H37.5712V692.153ZM73.919 692.153H109.478V727.714H73.919V692.153ZM110.267 692.153H145.826V727.714H110.267V692.153ZM146.615 692.153H182.174V727.714H146.615V692.153ZM182.963 692.153H218.522V727.714H182.963V692.153ZM219.31 692.153H254.87V727.714H219.31V692.153ZM255.658 692.153H291.217V727.714H255.658V692.153ZM292.006 692.153H327.565V727.714H292.006V692.153ZM328.354 692.153H363.913V727.714H328.354V692.153ZM364.702 692.153H400.261V727.714H364.702V692.153ZM401.049 692.153H436.609V727.714H401.049V692.153ZM437.397 692.153H472.957V727.714H437.397V692.153ZM473.745 692.153H509.304V727.714H473.745V692.153ZM510.093 692.153H545.652V727.714H510.093V692.153ZM546.441 692.153H582V727.714H546.441V692.153ZM582.789 692.153H618.348V727.714H582.789V692.153ZM619.136 692.153H654.696V727.714H619.136V692.153ZM655.484 692.153H691.044V727.714H655.484V692.153ZM691.832 692.153H727.391V727.714H691.832V692.153ZM728.18 692.153H763.739V727.714H728.18V692.153ZM764.528 692.153H800.087V727.714H764.528V692.153ZM800.876 692.153H836.435V727.714H800.876V692.153ZM800.876 691.314V655.753H836.435V691.314H800.876ZM800.876 654.914V619.353H836.435V654.914H800.876Z" fill="black"/>
</svg>
