<?xml version="1.0" encoding="UTF-8"?>
<svg id="Layer_1" xmlns="http://www.w3.org/2000/svg" version="1.1" viewBox="0 0 125 125">
  <!-- Generator: Adobe Illustrator 29.0.1, SVG Export Plug-In . SVG Version: 2.1.0 Build 192)  -->
  <defs>
    <style>
      .st0 {
        fill: #e5233b;
      }
    </style>
  </defs>
  <path class="st0" d="M40.1,65.8c-1.2,2.2-2.5,4.4-3.7,6.5-.4.8-.4,1.7,0,2.5.5,2.1,1.2,4.2,1.7,6.3v.5h-1.8v5.6c0,1-.7,1.8-1.7,1.8s-1.8-.7-1.8-1.8v-5.6h-1v5.6c0,1.3-1.2,2.2-2.4,1.7-.8-.3-1-.9-1-1.7v-5.6h-2c.3-.8.4-1.6.7-2.4.4-1.4.8-2.7,1.2-4.2.3-1,.3-2.1-.4-3.1-1.2-2-2.2-4.1-3.4-6.1-.1,0-.3.3-.3.4-.5.5-1.3.8-2,.4-.7-.3-1-.8-1-1.6v-10.3c0-.3,0-.7-.1-.9-.1-.4-.4-.7-.8-.7s-.5.3-.7.7v32.7c0,1.4-.8,2.5-2,2.6-1.6.4-3-.8-3.1-2.5v-18.7c0-.4-.4-.7-.8-.7s-.7.3-.7.7v18.4c0,.4,0,.9-.1,1.3-.4,1.2-1.6,1.8-2.7,1.6-1.2,0-2.1-1.2-2.1-2.5v-32.8c-.1-.3-.4-.5-.5-.5-.4,0-.7,0-.8.4-.1.3-.1.5-.1.8v10.3c0,.8-.3,1.3-.8,1.7-.1,0-.1.3-.3.4-1.3,7.2-2.7,14.3-4.1,21.5-.1.8-.5,1-1.2.9-.5,0-.8-.7-.7-1.3,1.3-7.1,2.6-14.1,3.9-21.1,0-.3-.1-.4-.1-.7-.1-.4-.4-.8-.4-1.2v-12.8c0-3.1,2.7-5.8,5.9-5.8h9.9c3.1,0,5.9,2.7,5.9,6v12.2h.3c.8-.5,1.4-.4,2,.4.4.7.8,1.3,1.2,2,.3.4.5.8.8,1.2.4.7,1,1,2,1h3.5c.8,0,1.3-.3,1.8-.9.7-.9,1.2-1.8,1.7-2.7.8-1.2,1.2-1.3,2.4-.8,1.2-4.1,2.5-8,3.7-12,.4-1.2,1-2.1,2-2.7.7-.5,1.4-.8,2.4-.8h8.8c1.2,0,2.2.4,3,1.3.7.8,1.2,1.6,1.4,2.5,1.2,3.7,2.2,7.3,3.4,11v1.3c0,.8-.5,1.4-1.2,1.6-.8.3-1.4,0-2-.7-.3-.4-.4-.8-.5-1.2-.9-3-1.8-6.1-2.7-9.2,0-.4,0-.9-.8-.8-.4,0-.5.5-.3,1.2,1.6,5.8,3.1,11.5,4.7,17.3,0,.3,0,.5.3.8h-3.7c-1,0-.9,0-.9.9v12c0,.9-.4,1.6-1.2,2.1-.8.4-1.6.4-2.2,0-.8-.5-1-1.3-1-2.2v-12.4c0-.3,0-.4-.4-.4q-.9,0-.9.8v12.2c0,1.3-.8,2.4-2,2.4s-2.4-.9-2.5-2.2v-12c0-1.2,0-1-1-1h-3.7c.3-.9.5-1.8.8-2.7,1.4-5.1,2.7-10.1,4.2-15.2v-.7c0-.3-.3-.5-.4-.7-.4,0-.7,0-.7.4-.3.7-.4,1.4-.7,2.1-.8,2.5-1.4,5-2.2,7.5,0,.3,0,.7-.3.9-.7,1.2-2,1.4-2.9.4-.9-.4-1-.4-1-.5h.3Z"/>
  <path class="st0" d="M108.4,70.6v-16.7c0-.4-.3-.7-.7-.5-.4,0-.7.3-.8.7v11.1c0,1.3-1.2,2.1-2.4,1.7-.7-.3-1-.8-1-1.4v-13.3c0-2.6,2.4-5.1,5-5.4h10.5c3,0,5.4,2,6,4.8v13.7c0,1.6-1.3,2.5-2.6,1.8-.7-.4-.9-1-.9-1.8v-10.6c0-.7-.3-.9-.7-1-.4,0-.7,0-.8.5v32.8c0,1.4-.8,2.5-2.1,2.6-1.4.3-2.9-.9-2.9-2.5v-19.1c0-.3-.4-.5-.7-.5s-.7,0-.7.5v18.8c0,1.4-.8,2.4-2.2,2.6s-2.9-.9-2.9-2.5v-16.2h-.3Z"/>
  <path class="st0" d="M87.9,73.9h-4.1c-.5,0-.7,0-.7.7v12.4c0,1.3-.9,2.4-2.2,2.4s-2.2-.9-2.2-2.2v-12.3c0-.5-.3-.8-.8-.8h-.5v13.1c0,1.2-.8,2-1.8,2.2-1,0-2.1-.5-2.5-1.6v-13.1c0-.4-.3-.7-.8-.7h-3.9v-.7c1.6-5.8,3.1-11.5,4.7-17.4v-.8c0-.3-.3-.4-.4-.4s-.4,0-.7.3v.5c-.9,3-1.8,6.1-2.7,9.2,0,.3-.3.7-.4.9-.5.9-1.2,1.2-2.1.9-.8-.3-1.3-.8-1.3-1.7v-1.2c1.2-3.8,2.2-7.6,3.5-11.2.5-1.7,1.7-3.1,3.7-3.5h9.3c1.4,0,2.5.5,3.3,1.6.5.7.9,1.4,1.3,2.4,1.2,3.5,2.2,7.2,3.4,10.9,0,.4.3.9.3,1.4,0,1-.5,1.4-1.4,1.7-.8,0-1.6-.3-1.8-1-.4-1-.7-2-.9-3-.7-2.4-1.4-4.7-2.1-7.1v-.4s-.4-.3-.5-.3-.4.3-.4.4v.8c1.6,5.8,3.1,11.6,4.8,17.4q-.3,0-.3.3h.3Z"/>
  <path class="st0" d="M101.2,72.6v14.8c0,1.4-1.3,2.2-2.5,1.7-.8-.3-1-.9-1-1.7v-5.6c0-.4,0-.9-.5-1-.4,0-.7.3-.7,1v5.6c0,.8-.7,1.6-1.4,1.7-.9,0-1.7-.4-2-1.2v-15.4h0s-.3.4-.3.5c-.7,1.8-1.2,3.7-1.7,5.5-.3.7-.7.9-1.2.9s-1.2-.7-1-1.3v-.4c1-2.6,2.1-5.4,3.3-8,.5-1.3,1.6-1.8,3-1.8h5.6c1.4,0,2.1.9,2.6,2.1.9,2.2,1.7,4.4,2.6,6.5,0,.4.4.9,0,1.3-.3.5-.7.8-1.2.9-.4,0-.7,0-.8-.5-.7-1.8-1.3-3.5-2-5.4,0-.3,0-.4-.3-.5-.4.1-.4.3-.5.3h-.1Z"/>
  <path class="st0" d="M114.1,35.4c2.5,0,4.6,2,4.6,4.6s-2,4.6-4.6,4.6-4.4-2-4.4-4.6,2-4.6,4.4-4.6Z"/>
  <path class="st0" d="M13.4,35.4c2.5,0,4.6,2,4.6,4.4s-2,4.6-4.6,4.6-4.4-2-4.4-4.6,2-4.4,4.4-4.4Z"/>
  <path class="st0" d="M82.4,42.3c0,2.4-1.8,4.3-4.3,4.3s-4.3-2-4.3-4.3,2-4.3,4.3-4.3,4.3,2,4.3,4.3Z"/>
  <path class="st0" d="M56.6,42.3c0,2.4-1.8,4.3-4.3,4.3s-4.3-1.8-4.3-4.3,1.8-4.3,4.3-4.3,4.3,2,4.3,4.3Z"/>
  <path class="st0" d="M100.5,63c0,2-1.6,3.5-3.5,3.5s-3.5-1.6-3.5-3.5,1.6-3.7,3.5-3.7,3.5,1.6,3.5,3.7Z"/>
  <path class="st0" d="M35.7,63c0,2-1.6,3.5-3.5,3.5s-3.5-1.6-3.5-3.5,1.6-3.5,3.5-3.5c2-.1,3.5,1.4,3.5,3.5Z"/>
</svg>