<?xml version="1.0" encoding="UTF-8"?>
<svg id="Layer_1" xmlns="http://www.w3.org/2000/svg" version="1.1" viewBox="0 0 125 125">
  <!-- Generator: Adobe Illustrator 29.0.1, SVG Export Plug-In . SVG Version: 2.1.0 Build 192)  -->
  <defs>
    <style>
      .st0 {
        fill: #dd1267;
      }
    </style>
  </defs>
  <path class="st0" d="M62.4,45.9h16.8c.8,0,.9,0,.9.9v9.4c0,.8,0,.9-.9.9h-33.6c-.6,0-.9-.3-.9-.9v-9.6c0-.6,0-.8.8-.8,0,0,16.9,0,17,0Z"/>
  <path class="st0" d="M62.4,79.3h-16.8c-.6,0-.9-.3-.9-.9v-9.6c0-.6,0-.8.8-.8h33.6c.8,0,.9,0,.9.9v9.5c0,.6-.3.9-.9.9h-16.6Z"/>
  <path class="st0" d="M30.3,45.5v33.7h-.4c-.1,0-.3,0-.3-.3l-15.8-15.8c-.6-.6-.6-.8,0-1.2,5.2-5.2,10.5-10.5,15.9-15.9,0-.4,0-.6.4-.8l.2.2Z"/>
  <path class="st0" d="M62.4,94.5h16.8s0,.5-.3.6l-15.9,15.9c-.4.4-.8.4-1.2,0-5.2-5.2-10.5-10.5-15.9-15.9,0,0-.1,0-.3-.3v-.5h16.8Z"/>
  <path class="st0" d="M62.4,30.5h-16.9s0-.4.3-.6l15.9-15.9c.4-.4.8-.4,1.2,0,5.2,5.2,10.5,10.5,15.7,15.7s.3.3.3.3v.4h-.5c-5.2.1-10.5.1-15.9.1h-.1Z"/>
  <path class="st0" d="M94.5,45.5c.3.3.6.4.8.6l15.9,15.9c.4.4.4.8,0,1.2-5.4,5.1-10.8,10.5-16,15.7s-.5.3-.6.3v-33.7Z"/>
</svg>