<?xml version="1.0" encoding="UTF-8"?>
<svg id="Layer_1" xmlns="http://www.w3.org/2000/svg" version="1.1" viewBox="0 0 125 125">
  <!-- Generator: Adobe Illustrator 29.0.1, SVG Export Plug-In . SVG Version: 2.1.0 Build 192)  -->
  <defs>
    <style>
      .st0 {
        fill: #fd9d25;
      }
    </style>
  </defs>
  <path class="st0" d="M61,62.5v46c0,.3-.3.4-.6.6h-26.4c-1,0-1.2,0-1.2-1.2V16.9c0-1,0-1.2,1.2-1.2h25.9c.7,0,1,.3,1,1v45.7ZM56.4,95.2v-3.1c0-.6,0-.7-.7-.7h-5.6c-.4,0-.7,0-.7.7v6.3c0,.4.3.7.7.7h5.6c.4,0,.7-.3.7-.7v-3.2ZM44.4,95.2v-3.2c0-.4,0-.7-.7-.7h-5.6c-.4,0-.7.3-.7.7v6.3c0,.4.3.7.7.7h5.6c.4,0,.7-.3.7-.7v-3.1ZM44.4,63.7v-3.1c0-.7,0-.9-.9-.9h-5.4c-.6,0-.9.3-.9.9v6.2c0,.6,0,.7.7.7h5.6c.4,0,.7,0,.7-.7v-3.1h.1ZM56.4,63.7v-3.1c0-.6,0-.9-.7-.9h-5.6c-.6,0-.7.3-.7.7v6.2c0,.4,0,.7.7.7h5.6c.4,0,.7,0,.7-.7v-2.9ZM44.4,47.9v-3.1c0-.4,0-.7-.7-.7h-5.6c-.6,0-.7.3-.7.7v6.2c0,.6.3.9.9.9h5.6c.6,0,.7-.3.7-.7v-3.2h-.1ZM56.4,47.9v-3.2c0-.4,0-.7-.7-.7h-5.6c-.4,0-.7.3-.7.7v6.3c0,.4.3.7.7.7h5.6c.4,0,.7,0,.7-.7v-3.1ZM44.4,79.4v-3.1c0-.4,0-.7-.7-.7h-5.6c-.6,0-.7.3-.7.7v6.2c0,.4,0,.7.7.7h5.6c.4,0,.7,0,.7-.7v-3.1ZM44.4,32v-3.1c0-.6,0-.9-.7-.9h-5.6c-.6,0-.7,0-.7.7v6.2c0,.4,0,.7.7.7h5.6c.6,0,.7-.3.7-.7v-2.9ZM56.4,32.2v-3.1c0-.6,0-.7-.7-.7h-5.6c-.4,0-.7,0-.7.7v6.3c0,.4,0,.7.7.7h5.7c.4,0,.7,0,.7-.7-.1-1.2-.1-2.3-.1-3.2ZM56.4,79.4v-3.1c0-.4,0-.7-.7-.7h-5.6c-.6,0-.7.3-.7.7v6.2c0,.4,0,.7.7.7h5.6c.4,0,.7,0,.7-.7v-3.1Z"/>
  <path class="st0" d="M92.9,71v36.9c0,1,0,1.2-1,1.2h-25.9c-.9,0-1,0-1-1v-40.3c0-.4,0-.9.4-1.3,6.3-7.9,12.5-15.8,18.8-23.7,2.3-3.1,4.8-6.2,7.2-9.2,0,0,.3-.4.4-.6,0,0,.4-.3.7-.3s.3.3.4.6v37.8h0ZM77.7,64.9h0v-5.3c0-.4,0-.9-.6-1s-.7,0-1,.4c-2.3,3.1-4.8,6-7.3,9.1-.4.6-.7,1.3-.6,2.1,0,.9.3,1.2,1.2,1.2h7c1.2,0,1.3,0,1.3-1.5s0-3.2,0-5ZM85.1,62.1h3.7c.7,0,1-.3,1-1v-4.5c0-.6-.3-1-.9-1h-7.6c-.7,0-.9.3-.9,1v4.5c0,.7.3,1,1,1h3.7ZM72.8,83.5h-3.8c-.7,0-.9.3-.9.9v4.7c0,.7.3.9,1,.9h7.6c.7,0,.9-.3.9-.9v-4.5c0-.7,0-.9-1-.9h-3.8ZM85.1,71.3h3.8c.7,0,1-.3,1-1v-4.4c0-.7-.3-.9-1-.9h-7.6c-.7,0-.9,0-.9.9v4.5c0,.7.3,1,1,1h3.7ZM85.1,83.5h-3.8c-.7,0-.9.3-.9.9v4.5c0,.7.3,1,.9,1h7.6c.7,0,1-.3,1-1v-4.5c0-.7-.3-.9-.9-.9h-4ZM72.8,99.2h3.7c.7,0,1-.3,1-1v-4.4c0-.9,0-1-1-1h-7.5c-.7,0-1,.3-1,1v4.4c0,.7.3,1,1,1h3.8ZM85.1,74.1h-3.8c-.7,0-1,0-1,1v4.4c0,.7.3,1,1,1h7.5c.7,0,1-.3,1-1v-4.4c0-.7-.3-1-1-1h-3.7ZM85.1,92.7h-3.8c-.7,0-1,.3-1,.9v4.5c0,.7.3.9,1,.9h7.5c.7,0,1-.3,1-1v-4.4c0-.7-.3-1-1-1h-3.7ZM72.8,74.1h-3.8c-.7,0-.9.3-.9.9v4.5c0,.7.3,1,1,1h7.6c.7,0,.9-.3.9-1v-4.5c0-.7,0-.9-.9-.9h-4ZM90,47.7h0v-4c0-.4,0-.9-.6-1-.3,0-.7,0-1,.4-2.2,2.6-4.4,5.3-6.4,8.1,0,.3-.3.7,0,1,0,.4.6.4.9.4h6c1,0,1.3-.3,1.3-1.3v-3.7h-.1Z"/>
  <path class="st0" d="M96.3,94.8v-13.5c0-.9,0-1,1-1h26.7c.9,0,1,0,1,1v26.8c0,.9,0,1-1,1h-26.7c-.9,0-1,0-1-1,0-4.2,0-8.8,0-13.3ZM117.1,83.5h-3.8c-.9,0-1,.3-1,1.2v4.2c0,.7.3,1,1,1.2h7.6c.7,0,1-.3,1-1v-4.4c0-.9-.3-1-1-1-1.3-.1-2.5-.1-3.8-.1h0ZM104.3,83.5h-3.8c-.7,0-1,.3-1,1v4.4c0,.7.3,1,1,1h7.8c.7,0,1-.3,1-1v-4.4c0-.9-.3-1.2-1.2-1.2-1.3.1-2.5.1-3.8.1ZM104.3,99.2h3.8c.7,0,1-.3,1-1v-4.4c0-.7-.3-1-1-1h-7.6c-.7,0-1,.3-1,1v4.4c0,.7.3,1,1,1h3.8ZM117.1,99.2h4c.7,0,1-.3,1-1v-4.4c0-.7-.3-1-1-1h-7.8c-.7,0-1,.3-1,1v4.4c0,.7.3,1,1,1h3.8Z"/>
  <path class="st0" d="M14.4,86.1h13.5c.9,0,1,0,1,1v21c0,.9,0,1-1,1h-7.9c-.6,0-.7,0-.7-.7v-12.5c0-1,0-1.3-1.3-1.3h-7.3c-.9,0-1.2.3-1.2,1.2v12.5c0,.6-.1.7-.7.7H1c-.9,0-1,0-1-1v-21c0-.9.1-1,1-1h13.3Z"/>
  <path class="st0" d="M14.5,83.5H.9c-.3,0-.6,0-.7-.4-.1,0,0-.6.1-.7,1.3-1.8,2.6-3.5,4-5.1,3.1-4.1,6.3-8.2,9.4-12.3.7-.9.9-.9,1.6,0,4.5,5.9,8.9,11.6,13.5,17.4,0,.3.3.7,0,.9,0,.3-.6.4-.9.4h-13.5.1Z"/>
  <path class="st0" d="M110.6,77.9h-13.3c-.7,0-1-.3-1-1v-4.5q0-.9.9-.9h26.8c.7,0,.9,0,.9.9v4.7c0,.7,0,.9-.9.9h-13.3Z"/>
</svg>