<?xml version="1.0" encoding="UTF-8"?>
<svg id="Layer_1" xmlns="http://www.w3.org/2000/svg" version="1.1" viewBox="0 0 125 125">
  <!-- Generator: Adobe Illustrator 29.0.1, SVG Export Plug-In . SVG Version: 2.1.0 Build 192)  -->
  <defs>
    <style>
      .st0 {
        fill: #be8b2f;
      }
    </style>
  </defs>
  <path class="st0" d="M42.4,80.5c-.8-.8-1.5-1.4-2.1-2-.6-.5-1.2-1-1.6-1.5-.3-.3-.4-.6-.3-.9,0,0,.3-.5.6-.5,4.6-1.4,9.3-2.7,14.1-3.9.9-.3,1.8-.5,2.7-.8,1.1-.3,1.4,0,1.2,1-.3,1.6-.4,3.3-.8,4.8-.6,3.5-1.1,6.9-1.6,10.4,0,.8-.3,1.5-.3,2.1s-.4.9-1.1.3c-1.2-1-2.2-2.1-3.4-3.1-.3-.3-.6-.3-1.1,0-3.4,2.5-7.2,4.4-11.6,5-10.4,1.6-19.5-.9-26.7-8.9-3.4-3.8-5.7-8.2-6.3-13.5-.3-2.5-.4-5.1-.4-7.6.2-5.6,1.2-10.8,4.1-15.6,3.6-6.1,9-9.9,15.8-11.9,2.2-.6,4.6-1.1,7.1-1.2,9.6-.4,17.4,3.1,23.9,9.9,4.6,4.9,8.2,10.6,11.4,16.7,1.8,3.4,3.5,7,5.7,10.2,2.9,4.2,6.1,7.8,10.6,10.4,3.3,1.8,6.6,3.3,10.4,3.8,8.1.9,16.6-2.9,19.5-12.5.9-3.3,1.4-6.6,1-10.1,0-3.3-.8-6.6-2.2-9.6-2.4-5.1-6.5-7.9-11.7-9.4-2.7-.8-5.4-1.2-8.1-.9-3.1.4-6.1,1.4-9,3.1-3.6,2.2-6.5,5.2-9.1,8.6-.5.6-.9,1.2-1.4,1.8s-.9.6-1.4,0c-1.2-2.1-2.4-4.4-3.8-6.4v-1.1c3.9-4.9,8.4-9.1,14.2-11.7,2.9-1.2,5.9-2.1,8.9-2.6,5.2-.6,10.4.3,15.1,2.2,8.7,3.6,13.8,10.2,15.8,19.4.5,2.1.6,4.4.8,6.6.3,5.2-.3,10.4-2.4,15.3-3.6,8.5-10,13.8-19.2,15.6-5.4,1-10.6.3-15.8-1.5-5.4-2-10-5-14.1-9.1-3.1-3.1-5.9-6.8-7.9-10.6-1.8-3.1-3.4-6.4-5.2-9.8-2.4-4.4-5.2-8.6-8.6-12.1-3.6-3.9-7.9-6.3-13.2-7.2-2.9-.4-5.6-.3-8.2.4-4.1.9-7.5,2.9-10.2,6-2.1,2.6-3.3,5.6-3.9,8.9-.4,2.6-.6,5.1-.4,7.8.2,4.4,1.3,8.4,4.2,11.9,2.7,3.3,6.2,5.4,10.2,6.3,5.4,1.2,10.6.9,15.4-2.1h.6v-.3Z"/>
</svg>