<?xml version="1.0" encoding="UTF-8"?>
<svg id="Layer_1" xmlns="http://www.w3.org/2000/svg" version="1.1" viewBox="0 0 125 125">
  <!-- Generator: Adobe Illustrator 29.0.1, SVG Export Plug-In . SVG Version: 2.1.0 Build 192)  -->
  <defs>
    <style>
      .st0 {
        fill: #3f7e44;
      }
    </style>
  </defs>
  <path class="st0" d="M0,62.5c12.3-17.3,35-32.1,63.4-31.8,28.6.3,50.3,16,61.6,31.9C95.4,104.2,31.4,105.8,0,62.6h0ZM54.6,61.1h.3s.3.3.5.4c.7.8,1.5,1.6,2.1,2.4.4.4.9.9,1.6.8,1.1,0,2-.7,2.7-1.6.4-.5.4-1.1,0-1.6-.3-.4-.7-.7-.9-.9l-2.8-2.8c-.1-.1-.1-.5-.1-.7h.9c1.1.7,2,1.2,3.1,1.9.5.3.9.8,1.1,1.5.3,1.3.9,2,2.3,2.4h.4c1.6.4,3.2,1.1,4.4,2.4.3.4.7.4,1.1,0,.7-.9,1.5-2,1.1-3.4,0-.4,0-.8.4-1.1.9-.5,1.9-.3,2.3.8.4,1.2.9,2.3,1.3,3.5.8,2,2.4,3,4.2,4h.7c.1,0,0-.4,0-.7-.3-.5-.5-1.2-.8-1.6-.8-1.2-.7-2.4,0-3.6.3-.4.7-.7,1.1-.8.8-.3,1.6-.7,2.4-1.1.8-.4.8-.8.4-1.6-.4-.7-.5-1.2-.4-1.9,0-.5.4-.7.8-.4.3,0,.4.4.7.7.8.9,2.3.9,2.8,0,.3-.5.4-1.3.3-1.9-1.2-5-3.8-9.3-7.5-12.7-5.8-5.2-12.5-7.5-20.3-6.8-3.9.4-7.5,1.6-10.9,3.6,0,0-.3,0-.4.3h.9c1.6,0,3.1-.3,4.7-.3s1.3,0,1.9.4c.7.3.8.7.7,1.3,0,.7,0,1.2.5,1.7.4.4.9.7,1.3,1.1s.4.7,0,.9c-1.1.7-2,1.2-3.1,1.7-.3,0-.7.3-1.1.4-.3,0-.4,0-.7-.3,0,0,0-.4.3-.5.4-.3.8-.5,1.2-.8.4-.3.8-.4,1.2-.7.4-.3.4-.5,0-.7-.5,0-1.1-.3-1.6,0-2,.5-4,.8-6.2.9-1.2,0-2.3.5-3.1,1.3-.8.7-.8,1.3,0,1.9.9.4,1.9.8,3,1.1.7.3,1.2,0,1.7-.5l.9-.9c.7-.7,1.3-.7,1.9,0-.3.3-.7.4-.9.7s-.7.5-.9.8c-.8.9-1.6,1.1-2.7.7-1.6-.5-3.1-.5-4.6.4-.4.3-.9.5-1.3.8s-.8.4-.5,1.1c0,.4,0,.8-.4.9-.3,0-.8.3-1.1,0-.7-.3-1.3-.3-2,0-1.2.3-1.3.9-1.2,2,.3.8.8,1.1,1.5.7.4,0,.8-.4,1.2-.4,1.3-.3,2.5-.5,3.6-1.5.3-.3.8-.3,1.1,0s.4.5.7.8c.4.7.7,1.2,1.1,1.9,0,.3.4.3.5.5h.3c0-.4,0-.7-.3-1.1,0-.4,0-.7-.3-1.1h.3c.4.4.7.8,1.1,1.2.3.4.5.5.9.3.5-.3,1.1-.3,1.3,0,.3.4.3,1.1,0,1.5-.8.8-1.6,1.2-2.7.9-.9-.3-2-.7-3-.9-1.6-.5-3.2-.9-4.8-1.3-.8,0-1.5,0-2,.7-.4.4-.8,1.1-1.1,1.6,0,.3-.3.4-.4.7-.4,4.2.3,8.2,1.7,11.9.3.7,1.1,1.1,1.9.7.5-.3,1.2-.7,1.7-.9.7-.4.9-.3,1.5.3,0,0,.3.3.4.4.5.3.9.8.9,1.5s0,.7.8.4c.5,0,.8,0,.9.5,0,.5,0,.9.3,1.5,0,.5.3,1.1.9,1.1v.9c0,1.1.3,2.1.5,3.1,0,.4.4.8.9.8,1.3,0,2.7-.4,3.6-1.5.8-.8,1.2-1.9,1.5-3.1,0-.7.4-1.3,1.1-1.6,0,0,.3,0,.3-.3.3-1.2.9-2.1.7-3.4-.3-1.5.4-2.5,1.5-3.4,0,0,.3-.3.4-.4.8-.8,1.1-1.9-.3-2.5-.3,0-.4-.3-.5-.3-1.6-.9-2.4-2.3-2.8-4-.8-.5-.7-.9-.7-1.2h0ZM77.9,79.9v1.2c.3,0,.4,0,.7-.3h.9c.3,0,.5,0,.7.3h.8c2.1-2.3,3.9-4.8,5.2-7.8.5-1.1.4-2,0-3.1-.4-.8-.5-.9-1.3-.4-1.2.9-2.7,1.3-4.2,1.7-1.2.3-2.5.7-3.8.9-2,.7-3.5,3.2-3,5.2.3.8.5,1.6.8,2.5.3,1.1.7,1.2,1.5.7.7,0,1.1-.4,1.6-.8v-.3ZM78.3,83.7v-.3c-1.6-.8-3.2-.8-4.7,0-.8.4-1.6,1.1-2.3,1.7s-.9.5-1.5.3c-1.6-.5-3.1-1.1-4.7-1.5-2.1-.7-4.3-1.1-6.6-.4-1.5.4-2.8,1.2-3.6,2.7-.4.8,0,1.3.8,1.6,3.1.8,6.3,1.1,9.4.8,3.9-.4,7.4-1.5,10.7-3.5.7-.5,1.6-1.1,2.4-1.6h0ZM86.2,59.4c0,.4.3.7.4.8.3.4.3.8,0,1.2-.3.4-.5.8-.5,1.3-.4,2,.5,3.6,1.7,5.1h.4c.4-2.3.8-4.6.4-6.8,0-.4-.4-.9-.7-1.2-.4-.4-.9-.5-1.6-.5h-.1ZM38.2,53v.3h.7c.3,0,.7-.3.9-.5,1.2-1.1,2.3-2.4,3.8-3.1h0c.4-.4.4-.7,0-.9-.8-.5-2.8-.3-3.4.7-.7.9-1.2,2.3-2,3.6ZM56.6,75.1s.1,0,0,0v.7q0,.3.3.5s.4-.3.4-.4c.3-.4.4-.8.5-1.3.4-1.2.9-2.4,1.3-3.6v-.7c0-.7-.4-.9-.9-.7-.7.3-1.2.8-1.3,1.5,0,1.3-.3,2.7-.5,4h.3ZM42.7,47.3c.5-.3,1.2-.5,1.7-.8.8-.4.9-1.1,1.1-1.9,0-.4,0-.8-.5-.8s-1.3,0-1.7.5c-.5.7-.9,1.2-1.5,1.9-.3.3,0,.5,0,.8.3,0,.5,0,.8.3h.1ZM83,69.6c.3,0,.8-.3.9-.7,0,0-.3-.7-.4-.9,0,0-.4-.3-.5-.4-.7-.3-1.1,0-1.5.3s-.3.8,0,1.1c.4.3.8.4,1.3.7h.1ZM68.7,67c.3,0,.7-.4,1.1-.5,0-.4-.4-.7-.5-.9,0,0-.3-.3-.4-.3-.7-.3-1.2-.3-1.6.4-.3.4-.3.8,0,.9.4,0,.8.3,1.3.4h.1ZM81.7,66.8c.7,0,1.1-.3.8-.7-.4-.5-.8-.9-1.2-1.3-.4-.3-.8,0-.8.5,0,.9.4,1.5,1.2,1.5Z"/>
</svg>