<?xml version="1.0" encoding="UTF-8"?>
<svg id="Layer_1" xmlns="http://www.w3.org/2000/svg" version="1.1" viewBox="0 0 125 125">
  <!-- Generator: Adobe Illustrator 29.0.1, SVG Export Plug-In . SVG Version: 2.1.0 Build 192)  -->
  <defs>
    <style>
      .st0 {
        fill: #0c97d9;
      }
    </style>
  </defs>
  <path class="st0" d="M44.3,96c-.2.3-.4.7-.6.9-2.1,3.4-4.7,6.3-8.2,8.2-2,1.1-4.2,1.8-6.5,2-.1,0-.4,0-.4-.2-.1-.2,0-.4.1-.5,1.7-2.9,3.1-5.9,3.9-9.2.4-1.5.6-3,.7-4.6.2-3.1-.5-6-1.5-8.9-.8-2.3-1.9-4.6-3.1-6.7-.1-.2-.2-.4-.1-.5s.4-.2.5-.2c1.8,0,3.5.6,5.1,1.4,3.9,1.8,6.9,4.7,9.2,8.3.3.5.6,1,.9,1.5.2,0,.3-.2.5-.3,4.5-3.5,9.3-6.5,14.7-8.7,2.5-1,5.1-1.8,7.8-2.1,3.6-.5,7.1,0,10.5,1,4.6,1.5,8.5,4,12.1,7.1,2.3,2,4.4,4.2,6.2,6.6q.4.5,0,1c-3.9,5-8.5,9.1-14.2,12-2.7,1.4-5.5,2.3-8.5,2.7-3.6.5-7.1,0-10.6-.9-5.1-1.5-9.7-4-14.1-7-1.3-.9-2.6-1.9-3.9-2.8-.1,0-.3,0-.5-.1ZM78.1,85.1c-2.4,0-4.3,1.9-4.3,4.2s1.9,4.3,4.3,4.3,4.2-1.9,4.2-4.3c.1-2.4-1.8-4.2-4.2-4.2Z"/>
  <path class="st0" d="M95.9,64v1c0,.5-.2.8-.5,1-1.3,1.1-2.8,1.9-4.5,2.2-2,.4-4,0-5.8-.7-1.5-.7-2.8-1.6-4-2.7q-.6-.5-1.2,0c-1.5,1.3-3.1,2.4-5.1,3-2.8.8-5.4.5-8.1-.6-1.5-.6-3-1.5-4.3-2.6-.3-.3-.5-.2-.8,0-2.2,1.8-4.7,3.1-7.6,3.5-3.4.5-6.4-.5-9-2.6-.3-.2-.6-.5-.9-.8s-.6-.4-1,0c-1.4,1.4-3,2.4-4.9,3.1-3.7,1.3-6.9.5-9.8-2-.1,0-.2-.3-.2-.5v-2.5c0-.5.2-.6.7-.4,2.3,1.1,4.7,1.6,7.2,1.4,2.4-.2,4.6-1.1,6.5-2.7.3-.3.7-.6,1-.9.2-.2.4-.2.7,0,2,1.6,4.3,2.7,6.9,3.2,3.8.8,7.1-.2,10.1-2.7.9-.8.7-.8,1.6,0,1.8,1.6,3.9,2.6,6.3,2.9,2.3.3,4.5-.2,6.7-1.1,1.4-.6,2.7-1.3,3.9-2.3.3-.2.5,0,.7,0,1.2,1.1,2.5,2,3.9,2.6,3.3,1.4,6.6,1.1,9.9-.2.3,0,.6-.3,1-.4s.6,0,.6.3c0,.5,0,1,0,1.4h0Z"/>
  <path class="st0" d="M95.9,53.6v.7c0,.6-.2,1.1-.7,1.4-1.5,1.1-3.2,2-5.1,2.2-1.8.2-3.6-.2-5.2-.9-1.5-.7-2.8-1.6-4-2.8-.4-.4-.5-.4-.9,0-1.6,1.5-3.5,2.7-5.7,3.2-2.8.6-5.6.2-8.2-1-1.3-.6-2.5-1.3-3.6-2.2-.3-.3-.6-.3-.9,0-2,1.6-4.1,2.7-6.6,3.3-3.6.8-6.9,0-9.8-2.4-.3-.3-.7-.6-1-.8-.4-.4-.6-.4-1,0-1.6,1.5-3.4,2.7-5.6,3.3-2.9.8-5.5.3-8-1.4-1.4-.9-1.4-1-1.4-2.6v-1.2c0-.5.2-.7.7-.5,1.8.9,3.7,1.4,5.8,1.5,3.4,0,6.4-1.1,8.9-3.5.3-.3.5-.3.9,0,2.2,1.6,4.5,2.7,7.2,3.2,3.6.6,6.7-.3,9.5-2.7,0,0,.3-.2.4-.3q.5-.5,1.1,0c1.8,1.6,3.9,2.7,6.3,3.1,2.1.3,4.1,0,6-.7,1.7-.6,3.3-1.5,4.7-2.6.3-.2.5-.2.8,0,1.8,1.6,3.8,2.8,6.2,3.3,2.8.6,5.5,0,8-1l.6-.3c.3-.2.6,0,.6.4,0,.5,0,1,0,1.4Z"/>
  <path class="st0" d="M28.5,18.2v6.9c0,.4.1.6.5.6h1.5c.3,0,.4.1.4.3v2.7c0,.3-.1.3-.3.3h-1.5c-.5,0-.6,0-.6.6v4.6c0,.4-.1.5-.5.5h-3.1c-.4,0-.5,0-.5-.5v-4.6q0-.5-.6-.5h-6.1c-.4,0-.6-.1-.5-.5h0c.1-1.1-.1-2.2.2-3.3.2-1.1.8-2,1.2-3,1.5-3.5,3-7.1,4.5-10.7.2-.5.4-.6.9-.6h3.9c.4,0,.5.1.5.5.1,2.1.1,4.4.1,6.7ZM24.4,15.6h-.1c-1.2,3.3-2.4,6.6-3.6,10h3.2c.4,0,.5-.1.5-.5v-9.1c.1-.1,0-.3,0-.4Z"/>
  <path class="st0" d="M10.7,15.5c-1.2.4-2.3.8-3.4,1.2v-2.8c0-.3,0-.5.4-.7,1.1-.6,2.2-1.1,3.2-1.8.6-.5,1.2-.6,1.9-.6h1.9c.3,0,.4.1.4.4v22.8q0,.6-.6.6h-3.2q-.6,0-.6-.6v-17.9c0-.1,0-.3,0-.6Z"/>
  <path class="st0" d="M64,28.9c0,.5-.2.9-.3,1.4-.2,1.4-.5,2.8-.7,4.1,0,.2,0,.4-.4.4q-.9,0-1-.8c-.3-1.8-.5-3.6-.8-5.5,0-.7-.2-1.4-.3-2.1,0-.2,0-.4,0-.6h1c0,0,.2.2.3.3.2,1.3.3,2.5.5,3.8,0,.5,0,1.1.2,1.6h0c0-.4.2-.8.2-1.2.2-1.4.5-2.7.7-4.1,0-.4.3-.4.6-.4s.5.1.6.5c.3,1.7.6,3.3.8,5q0,.1,0,.2h0c0-.3,0-.6.2-.9.2-1.4.4-2.8.5-4.3,0-.4.2-.5.6-.5q.7,0,.6.7c-.3,2-.6,4.1-.9,6.1,0,.6-.2,1.3-.3,1.9,0,.3,0,.3-.4.3-1.1,0-.9,0-1.1-.9-.3-1.5-.5-3.1-.8-4.6.1-.2.1-.3,0-.4h0Z"/>
  <path class="st0" d="M75.8,31.4c0-.5,0-1,.2-1.5.2-1.2.3-2.5.5-3.7,0-.3.2-.4.5-.4q.8,0,.7.8c-.4,2.6-.7,5.2-1.1,7.7q0,.5-.9.5c-.4,0-.4-.3-.5-.6-.3-1.7-.6-3.3-.8-5,0-.1,0-.2-.2-.3,0,.6-.2,1.3-.3,1.9-.2,1.2-.4,2.4-.6,3.6,0,.2,0,.4-.4.4q-.9,0-1.1-.9c-.3-1.8-.5-3.7-.8-5.6,0-.7-.2-1.4-.3-2.1q0-.5.5-.5t.9.8c.2,1.6.4,3.1.6,4.7,0,.1,0,.1,0,.2,0-.1,0-.2,0-.2.3-1.7.6-3.4.8-5.1,0-.3.2-.4.5-.4s.6,0,.7.4c.3,1.6.6,3.3.8,5,0,.1,0,.2.1.3-.1,0,0,0,0,0Z"/>
  <path class="st0" d="M43.7,30c1.3.7,1.8,2.4,1,3.8-.4.7-1.1,1-1.9,1h-2.4c-.3,0-.4,0-.4-.4v-8.2c0-.1.2-.4.2-.4,1,0,1.9,0,2.9.1,1.1.1,1.6.8,1.6,1.9s0,.9-.2,1.3c0,.4-.5.6-.8.9ZM41.6,32.1h0v.7c0,1,0,.9,1,.9s.9-.3,1-.9c0-.2,0-.5,0-.7,0-1.1-.6-1.6-1.7-1.6s-.4.1-.4.4c0,.4,0,.8,0,1.2ZM41.6,28.2h0v1c0,.3,0,.4.4.4.9-.1,1.5-.1,1.5-1.4v-.3c0-.4-.2-.7-.6-.8-.3-.1-.6-.1-.9-.1s-.3.1-.3.3c-.1.2-.1.5-.1.9Z"/>
  <path class="st0" d="M92.4,30.3v-4c0-.3,0-.5.5-.5.9,0,1.7,0,2.6.1,1.6.2,2,1.3,1.9,2.7,0,.7-.2,1.3-.9,1.7,0,.1,0,.3,0,.5.3,1.2.7,2.4,1,3.6q0,.5-.3.5c-1.3,0-1,.2-1.4-1-.2-.9-.5-1.8-.7-2.7,0-.4-.4-.5-.7-.4,0,0-.2.2-.2.4v3.3c0,.3,0,.5-.5.5q-1.1,0-1.1-1.1c-.1-1.3-.1-2.5-.1-3.6ZM94,28.2h0v1.1c0,.1,0,.3.2.3.8.2,1.6-.3,1.6-1.2v-.4c0-1.1-.7-1.3-1.6-1.2,0,0-.2.2-.2.3v1.1Z"/>
  <path class="st0" d="M59.8,30.3c0,.9,0,1.8,0,2.7-.2,1.3-1,1.9-2.2,2-.3,0-.7,0-1,0-1-.2-1.7-.9-1.8-2,0-1.7,0-3.5,0-5.2,0-1.2.9-1.9,2.1-2h1.1c1.1.2,1.8,1.1,1.8,2.4,0,.8,0,1.5.1,2.2q0,0,0,0ZM58.1,30.3h0v-2.6c0-.6-.3-.9-.9-.9s-1,.2-1,.8c0,1.8,0,3.6,0,5.4h0c0,.5.4.7,1,.7s.9-.4.9-1v-2.4Z"/>
  <path class="st0" d="M83.2,34.8h-1.2c0,0-.3-.2-.3-.4,0-.5-.2-.9-.3-1.4,0-.2-.2-.3-.4-.3h-.9c-.4,0-.5.2-.6.5,0,.4,0,.9-.2,1.3,0,0-.2.3-.3.3h-1.2c0-.4,0-.8.2-1.2.5-2.5,1-4.9,1.5-7.4,0-.4.2-.5.6-.5q1.2,0,1.4,1.1c.5,2.4,1,4.9,1.5,7.4.1.2.2.4.2.6ZM79.9,31.7h1c.3,0,.4-.1.3-.4,0-.7-.2-1.4-.3-2,0-.4,0-.8-.2-1.2h0c-.3,1.2-.5,2.3-.7,3.6Z"/>
  <path class="st0" d="M51.5,15.4v-4.1c0-.3,0-.5.4-.4h2.9c.5,0,.4.3.4.5,0,.3,0,.5-.4.5h-1.3c-.3,0-.4.1-.4.4v2c0,.3,0,.4.3.4h1c.3,0,.4.1.4.4v.4c0,.2,0,.3-.3.3h-1c-.2,0-.3.1-.3.3v2.4c0,.3,0,.4.4.4h1.4c.5,0,.4.3.4.6s0,.5-.4.5h-3c-.3,0-.4-.1-.4-.4-.1-1.5-.1-2.9-.1-4.2Z"/>
  <path class="st0" d="M46,30.3v-4.1c0-.3,0-.4.4-.4h2.8c.4,0,.5.2.5.5s0,.6-.5.5h-1.3c-.3,0-.4.1-.4.4v2c0,.3,0,.4.4.3h1c.2,0,.4.1.3.3v.3c0,.4,0,.5-.5.5h-.9c-.2,0-.3.1-.3.3v2.4c0,.3,0,.4.4.4h1.5c.4,0,.3.3.3.5s0,.5-.3.5h-3.1c-.3,0-.3-.2-.3-.4,0-1.3,0-2.7,0-4Z"/>
  <path class="st0" d="M88,30.3v-4c0-.4,0-.5.5-.5h2.8c.4,0,.4.2.4.5s0,.6-.4.5h-1.4c-.3,0-.4.1-.4.4v2c0,.3,0,.4.4.4h1c.2,0,.4.1.3.3v.3c0,.3,0,.5-.4.4h-1c-.3,0-.4.1-.4.4v2.4c0,.3,0,.4.4.4h1.4c.5,0,.4.3.4.6s0,.5-.4.5h-2.9c-.3,0-.4,0-.4-.4,0-1.5,0-2.9,0-4.2Z"/>
  <path class="st0" d="M47.2,15.3v-4c0-.3,0-.5.5-.5h2.7c.4,0,.4.2.4.5s0,.6-.4.5h-1.3c-.3,0-.4.1-.4.4v2c0,.3,0,.4.4.4h.9c.3,0,.4.1.4.4v.2c0,.4,0,.5-.5.5q-1.2,0-1.2,1.2v2.6c0,.3,0,.4-.4.4q-1.1,0-1.1-1.1c0-1.2,0-2.3,0-3.5Z"/>
  <path class="st0" d="M84.5,30.9v-3.5c0-.4,0-.5-.5-.5h-.4c-.6,0-.9-.4-.6-.9,0-.1.2-.2.3-.2h3.8c.2,0,.4.1.3.3v.3c0,.4,0,.5-.5.5q-1,0-1,1v6.5c0,.4,0,.5-.5.5q-1.1,0-1.1-1.1c.2-1.1.2-2,.2-2.9Z"/>
  <path class="st0" d="M41.6,14.8v3.5c0,.5,0,.6.6.6h1.3c.4,0,.3.3.3.6s0,.5-.3.5h-3.1c-.3,0-.3-.1-.3-.3v-8.3c0-.2,0-.4.3-.3,1.5,0,1.2-.2,1.2,1.1v2.6Z"/>
  <path class="st0" d="M50.4,30.3v-4c0-.3,0-.5.5-.5q1.1,0,1.1,1.1v6.4c0,.4,0,.6.5.5h1.3c.4,0,.3.3.3.6s0,.5-.3.5h-3c-.3,0-.4-.2-.4-.4,0-1.5,0-2.9,0-4.2Z"/>
  <path class="st0" d="M44.5,15.4v-4c0-.4,0-.5.5-.5q1,0,1,1v7.4q0,.6-.6.6t-1-1c0-1.2,0-2.3,0-3.5Z"/>
</svg>