<?xml version="1.0" encoding="UTF-8"?>
<svg id="Layer_1" xmlns="http://www.w3.org/2000/svg" version="1.1" viewBox="0 0 125 125">
  <!-- Generator: Adobe Illustrator 29.0.1, SVG Export Plug-In . SVG Version: 2.1.0 Build 192)  -->
  <defs>
    <style>
      .st0 {
        fill: #02689d;
      }
    </style>
  </defs>
  <path class="st0" d="M50.1,62.3c-1.8-.3-3.6-.8-5.2-1.5-3.9-1.8-6.3-4.8-8.1-8.5-1.2-2.7-1.6-5.4-2.4-8.2-.6-2.5-1.4-5.1-2.2-7.6-.9-2.4-2.2-4.5-4.6-5.7,1.4,0,2.6-.1,3.8-.1,6.9,0,12.8,2.6,17.8,6.9,1.6,1.4,3.1,3,4.8,4.5,2.4,2.1,4.9,3.8,8.1,4.5,3.9.9,7.5,0,10.7-2.4,1.8-1.4,3.5-3,5.2-4.5,1.5-1,2.9-2.1,4.5-3,2.7-1.4,4.5-.9,6.5,1.4.8.8,1.4,1.5,2.1,2.2.1-.1.1-.3.1-.3.6-2.7,2.1-4.8,3.9-6.8,1.6-1.8,3.5-3.6,5.1-5.6.1.1.3.1.6.4-.5.6-.8,1.1-1.2,1.6-1.2,1.4-2.5,2.7-3.9,4-1.8,2-3.3,4-3.9,6.6-.1.5,0,.8.5,1,.8.6,1.5,1,2.2,1.6-.9,0-1.6.1-2.4.1s-.6.3-.5.8c.1,2.2.6,4.4,1.4,6.5-.3,0-.5.1-.9.1-.8-2.2-1.4-4.6-1.4-7-4,0-7.6,3-8.7,6.9-.6,2.1-.8,4.4-.6,6.5.1,4.6-.8,9-3.8,12.9-2.2,3-5.4,5-8.9,6.3-3,1.2-6.1,2.1-9.3,2.5-.4,0-.8.3-.8.8v7.6c0,.6.1.8.8.8,4.1,0,7.9.1,12,.3,2.7.1,5.2-.5,7.8-.6,1.4-.1,2.7-.3,4-.5v-4.4c0-1,.5-1.5,1.5-1.5h14.9c1,0,1.5.5,1.5,1.5v14.7c0,1-.5,1.5-1.5,1.5h-14.7c-1,0-1.5-.5-1.5-1.5v-3.8c0-.6-.1-.8-.8-.8-1.8-.1-3.8-.5-5.5-.6-2.1-.3-4.2-.5-6.5-.3-5.7.1-11.4.3-17.1.5-3.6.1-7.4.1-10.9.3-5.7.1-11.4.3-17.1.3h-2.1v-5.7c9.1.1,18.3.5,27.4.6v-8.1c0-.3-.1-.6-.4-.6-5.2-.5-10.2-2-14.7-5-2.6-1.6-5.2-3.1-7.5-4.5,1.2,0,2.7.3,4.4.1,2.9,0,5.6-.8,7.9-2.4,1.6-1.2,3.4-2.2,5.2-3.3,1.1-.6,2.4-.9,3.6-1.2.4-.4.6-.4.7-.6ZM56.9,79h-3c-.1,0-.3.3-.3.5v7.5c0,.5.1.6.6.6.8,0,1.4,0,2.1.1.6,0,.8-.1.8-.8v-7.2c-.2-.5-.2-.6-.2-.8Z"/>
  <path class="st0" d="M92.7,79.1h-8.1c-1.5,0-2.4-.9-2.4-2.2s1-2.2,2.4-2.2h16c1.2,0,2.1.8,2.4,2,.1,1-.3,2.1-1.4,2.5-.3.1-.8.1-1,.1-2.7-.1-5.2-.1-7.9-.1Z"/>
  <path class="st0" d="M92.6,104.8h-8c-1.4,0-2.5-1-2.5-2.2s1-2.2,2.5-2.2h16c1.4,0,2.2.8,2.4,2,.1,1-.6,2.2-1.6,2.5-.3.1-.6.1-.9.1-2.5-.1-5.2-.1-7.9-.1Z"/>
  <path class="st0" d="M22.2,89.6v2.4c-.1,1.2-.9,1.8-2.1,1.8-2.2,0-2.8-.6-2.8-2.9v-3.3c0-1.5.8-2.2,2.2-2.2h.8c1.1,0,1.8.8,1.9,1.8v.5c0,.6,0,1.2,0,2h0Z"/>
  <path class="st0" d="M107.7,20.2c0,2.1-.3,4.2-2.2,5.6-1,.8-2.4.9-3.8.9s-.5-.3-.5-.3c-.3-3.9,2.9-6.9,6.5-6.1Z"/>
  <path class="st0" d="M92.1,34.4c-3.6-1.9-4.2-5.1-1.8-8.4,3.6,2,4.2,5.4,1.8,8.4Z"/>
  <path class="st0" d="M95.1,20.8c3.1,1.6,4,4.2,2.7,7.1-.8,1.6-.6,1.5-2.1.4-2.5-2.1-2.4-5.1-.6-7.5Z"/>
  <path class="st0" d="M99.8,31.9c1.2-1.4,2.4-2.4,4.4-2.4,1.2.1,2.2.8,3.3,1.5.1.1.1.4,0,.4-2.2,2.7-5,3-7.6.4Z"/>
  <path class="st0" d="M95.3,36.7c2.7-2.4,5.7-2.1,7.8.9-2.4,2.3-5.7,2.3-7.8-.9Z"/>
</svg>