<?xml version="1.0" encoding="UTF-8"?>
<svg id="Layer_1" xmlns="http://www.w3.org/2000/svg" version="1.1" viewBox="0 0 125 125">
  <!-- Generator: Adobe Illustrator 29.0.1, SVG Export Plug-In . SVG Version: 2.1.0 Build 192)  -->
  <defs>
    <style>
      .st0 {
        fill: #18486a;
      }
    </style>
  </defs>
  <path class="st0" d="M76.3,108.3c-4.6,0-9.1-1.2-13.1-3.8-.4-.3-.7-.3-1.2,0-3.8,2.4-7.8,3.6-12.1,3.9-12.3.6-22.9-8-25.4-20-.8-3.6-.6-7.4.4-11,0-.5,0-.6-.3-.9-4.9-4.2-8.1-9.5-8.8-15.9-1.7-13.2,7-24.4,18.9-27.1,1.4-.3,2.7-.4,3.9-.6.4,0,.6-.3.9-.6,2.7-6.8,7.4-11.6,14.1-14.1,12.7-4.9,27,1.4,31.8,14.1,0,.4.3.6.8.6,5.1.3,9.8,2.1,13.8,5.2,5.4,4.4,8.5,10.1,9.1,16.9.8,8.6-2.2,15.7-8.9,21.3-.3.3-.5.5-.3.9,2.9,11.4-2.4,22.8-12.8,28-3.3,2-7,2.9-11,2.9h0ZM80.5,33.3c-2.7-6.4-9.9-12.6-19.6-11.7-8.4.8-14.4,6.8-16.2,11.7,8.1,1.8,14.1,6.3,17.8,13.8,3.9-7.5,9.7-12,18-13.8ZM38.1,38.1c-6.1.4-13.9,5.1-16.7,13.8-2.6,8.2.9,16.4,5.7,20.2,4.2-7.2,10.5-11.6,18.8-12.8-6-6-8.6-12.9-7.8-21.3ZM29.7,79.8c-1.5,5.5,0,14.5,7.8,20.1,7.2,5.1,16.1,4.2,21.2.9-5.6-6.1-7.8-13.4-6.4-21.6-7.5,3.8-15,4-22.5.6ZM98.1,72c5.2-4.4,8.4-12.9,5.2-21.1-1.6-4.4-4.5-7.8-8.5-10.2-2.4-1.5-5.1-2.4-8-2.7.9,8.2-1.6,15.3-7.6,21.1,8.5,1.4,14.7,5.7,18.9,12.9ZM73,79.2c1.4,8.2-.8,15.5-6.3,21.6,5.7,3.6,15,4,22-1.8,3.6-3,6-6.9,6.9-11.5.5-2.4.5-5,0-7.5-7.6,3.3-15.1,3-22.5-.8h-.1ZM67.3,66.3c5.5,11.2,18.9,13.4,26.5,8.7-5-10.4-17.4-13.8-26.5-8.7ZM62.5,69.7c-7.9,7.5-7.6,20.7,0,27.9,7.5-7,8-20,0-27.9ZM31.3,75c9.6,5.2,22.1.9,26.4-8.5-9-4.9-21.4-1.5-26.4,8.5ZM59.7,60.6c1.9-10.4-6-21.2-16.4-22.3-2.1,9.1,4.6,20.7,16.4,22.3ZM65.5,60.6c11.7-1.6,18.3-13.2,16.4-22.3-10.8,1.4-18.3,12.3-16.4,22.3Z"/>
</svg>