<?xml version="1.0" encoding="UTF-8"?>
<svg id="Layer_1" xmlns="http://www.w3.org/2000/svg" version="1.1" viewBox="0 0 125 125">
  <!-- Generator: Adobe Illustrator 29.0.1, SVG Export Plug-In . SVG Version: 2.1.0 Build 192)  -->
  <defs>
    <style>
      .st0 {
        fill: #dda839;
      }
    </style>
  </defs>
  <path class="st0" d="M62.7,62.9h49.1c1.5,0,2,.4,1.6,1.9-1.4,7-4,13.5-8.5,19.2-6.3,8.2-14.4,14-24.1,17.2-.8.3-1,.5-.9,1.2v1.8c0,1-.5,1.4-1.4,1.5h-30.6c-1.4,0-1.8-.3-1.8-1.6v-1.6c0-.5,0-.6-.6-.8-4.6-1.5-9-3.5-13.1-6.3-10.5-7-17.6-16.5-20.4-28.9-.2-.8-.3-1.4-.4-2.1-.2-.9.3-1.5,1.2-1.5h50,0Z"/>
  <path class="st0" d="M83.4,58.9c.3-1.2.6-2.4.6-3.6,0-3.1-1-5.7-3-8.1-.8-1.1-1.6-1.9-2.4-3-3.1-4.5-3.8-9.3-2.5-14.6.8-3.1,2-6,3.8-8.7.9-1.5,2.7-1.9,4.4-1.4s2.1,2.2,1.2,3.9c-2.2,3.6-3.8,7.5-3.5,11.9,0,3,1.4,5.4,3.3,7.6,2.2,2.4,3.9,5.2,4.6,8.4.6,2.2.5,4.6,0,6.9,0,.3,0,.6-.6.6h-5.9Z"/>
  <path class="st0" d="M63.4,58.9c.3-.9.4-1.6.6-2.6.4-3-.4-5.9-2.1-8.2-.8-1.1-1.6-1.9-2.4-2.9-3-3.8-4.2-8.1-3.8-12.9.4-4.2,1.9-7.9,4.2-11.4.9-1.5,2.9-1.9,4.5-1.2,1.5.8,1.9,2.2,1.1,3.8-1.8,2.7-3,5.7-3.3,9-.4,3.9.4,7.5,3.2,10.5,2.4,2.7,4.4,5.7,5,9.3.3,2.1.3,4.1-.3,6.1,0,0-.3.6-.5.6-2.1-.1-4-.1-6.2-.1Z"/>
  <path class="st0" d="M43.8,58.9c.3-1.4.6-2.6.6-3.9,0-3.1-1.2-5.9-3.3-8.1-1.4-1.6-2.7-3.1-3.6-5.1-2.1-4.4-2.1-8.9-.9-13.4.8-2.7,1.9-5.2,3.4-7.6.9-1.5,2.7-1.9,4.4-1.2,1.6.8,2.1,2.2,1.1,3.8-1.9,3.1-3.3,6.6-3.4,10.4,0,3.4.9,6.4,3.3,9.1,1.9,2.1,3.6,4.5,4.5,7.4.9,2.7.9,5.2.3,7.9,0,.4-.3.8-.9.8h-5.4Z"/>
</svg>