<?xml version="1.0" encoding="UTF-8"?>
<svg id="Layer_1" xmlns="http://www.w3.org/2000/svg" version="1.1" viewBox="0 0 125 125">
  <!-- Generator: Adobe Illustrator 29.0.1, SVG Export Plug-In . SVG Version: 2.1.0 Build 192)  -->
  <defs>
    <style>
      .st0 {
        fill: #4d9f39;
      }
    </style>
  </defs>
  <path class="st0" d="M95,26.7c0,.3-.3.6-.3.9-5.7,18.9-11.5,38-17.2,57-2.1,6.7-4,13.4-6.1,20.3-.4,1.3-1,1.8-2.2,1.8s-1.8-.6-1.9-1.5c-.3-1.8-.7-3.7-1-5.5-.6-3.7-1.3-7.5-1.9-11.2-.7-4-1.3-8.1-2.1-12.1-.6-3.3-1.2-6.7-1.8-10v-.3c0,.3-.3.4-.4.6-3.1,5.8-6.3,11.8-9.5,17.6-.3.6-.7,1.2-1.5,1.5s-2.1-.3-2.2-1.6c-.3-1.9-.6-4-.9-6-.4-2.8-.7-5.5-1.2-8.4-.3-2.4-.7-4.9-1-7.3-.4-2.7-.7-5.4-1.2-8.1v-.4c0,.3-.3.4-.3.7-2.5,5.5-4.9,11-7.5,16.7-.4,1-1.3,1.5-2.4,1.5H2.4c-1.5,0-2.4-.7-2.4-2.1s.9-2.2,2.1-2.2h28.3c.6,0,.9,0,1.2-.7,3.3-7.5,6.6-14.8,9.8-22.2.3-.7.9-1.5,1.8-1.5s2.2.6,2.4,1.8c.4,3.3.9,6.6,1.3,9.8.4,3,.9,6.1,1.3,9.1.4,3,.9,6.1,1.3,9.1,0,.9.3,1.8.4,3,.3-.3.3-.6.4-.7,3.1-5.8,6.3-11.6,9.4-17.6.4-.7.9-1.2,1.8-1.3,1.2,0,2.1.6,2.2,1.6.4,2.4.9,4.8,1.2,7,.7,4,1.3,7.9,2.1,11.9.7,4.2,1.5,8.5,2.2,12.7,0,1.3.4,2.5.6,3.7v.4c0-.3.3-.6.3-.9,3.7-12.5,7.6-25.2,11.3-37.7,3.6-11.9,7.2-24,10.9-35.9.4-1.5,1.6-2.2,2.8-1.6.4.3,1,.7,1.2,1.2,2.4,4.8,4.6,9.5,7,14.5,1.5,3.1,3,6.3,4.5,9.4,0,.4.4.7.4,1.2,0,1-.4,2.1-1.3,2.4-1,.3-2.1,0-2.5-1.2-.7-1.5-1.5-3.1-2.2-4.6-2.2-4.8-4.6-9.5-6.9-14.3-.1.1-.3,0-.4-.3h-.1Z"/>
  <path class="st0" d="M109.5,85l-.4-.4-12.5-12.5c-1.9-1.9-3-4.3-3-7.2s1.3-6.4,4.6-8.4c2.7-1.5,5.2-1.5,7.8.4,1.2.9,2.4,1.9,3.6,3l.4-.4c1.2-.9,2.2-1.9,3.4-2.8,3.1-2.2,6.9-.9,8.8,1,2.2,2.1,3,4.8,2.8,7.8,0,2.4-1,4.6-2.7,6.4-4.2,4.3-8.5,8.5-12.8,12.8.3.1.1.3,0,.3Z"/>
</svg>