<?xml version="1.0" encoding="UTF-8"?>
<svg id="Layer_1" xmlns="http://www.w3.org/2000/svg" version="1.1" viewBox="0 0 125 125">
  <!-- Generator: Adobe Illustrator 29.0.1, SVG Export Plug-In . SVG Version: 2.1.0 Build 192)  -->
  <defs>
    <style>
      .st0 {
        fill: #c5182d;
      }
    </style>
  </defs>
  <path class="st0" d="M88.6,88.2c-11.2,3.5-22.6,6.8-34.1,10.2v-53.1c0-.4,0-.8.4-.9,11-6.3,22-12.8,33-19.1,0,0,.3,0,.6-.3v63.1Z"/>
  <path class="st0" d="M51,98.4c-3-.9-6-1.8-8.9-2.7-8.1-2.4-16.2-5-24.3-7.4-.4,0-.6-.3-.6-.8V25h.4c10.9,6.3,21.9,12.6,32.8,18.9.3,0,.4.4.4.9v53.6Z"/>
  <path class="st0" d="M92.4,24.7c1.2.9,2.4,1.8,3.5,2.7v64.2c0,.8,0,.9-.9,1.2-9.8,3-19.4,6.1-29.1,9.1-3.6,1.2-7.2,2.2-10.8,3.5h-1.1c-3.1.3-6.1-.8-9.1-1.5-11.6-3.1-23.1-6.5-34.7-9.6-.6,0-.8-.3-.8-.9V28.3c0-.4.2-.9.6-1.2.9-.6,1.7-1.4,2.6-1.9.2,0,.3,0,.4-.3v66c0,.8.2.9.9,1,12.2,3.3,24.2,6.8,36.3,10,1.5.5,3.3.5,4.8,0,11.4-3.6,22.8-7.4,34.3-11.1.8-.3,1.5-.5,2.2-.8.3,0,.5-.3.5-.6V24.7h.3Z"/>
  <path class="st0" d="M111.3,100.9c-.3-1.2-.6-2.2-.9-3.3-.9-3.3-2-6.6-2.9-9.9V30.9h8v55.8c0,.8-.3,1.5-.5,2.2-1,3.9-2.2,7.6-3.3,11.5l-.3.5h-.2Z"/>
  <path class="st0" d="M115.5,27.6h-8v-4.9c.3-2.1,2.2-3.4,4.2-3.3,2.1,0,3.6,1.8,3.6,3.9v4.4h.1Z"/>
</svg>