<?xml version="1.0" encoding="UTF-8"?>
<svg id="Layer_1" xmlns="http://www.w3.org/2000/svg" version="1.1" viewBox="0 0 125 125">
  <!-- Generator: Adobe Illustrator 29.0.1, SVG Export Plug-In . SVG Version: 2.1.0 Build 192)  -->
  <defs>
    <style>
      .st0 {
        fill: #ff3b21;
      }
    </style>
  </defs>
  <path class="st0" d="M74.5,30.9c3.5-3.4,6.9-6.9,10.4-10.4h-8.7c-.6,0-.8,0-.8-.8v-6.9c0-.4,0-.8.8-.8h22.6c.8,0,.8.3.8.9v22.4c0,.5-.3.8-.8.8h-6.8c-.6,0-.8,0-.8-.8v-8.2c-.3.3-.5.4-.6.4-3.1,3.1-6.1,6.1-9.3,9.3-.3.3-.3.6,0,1.1,3.9,5.9,5.7,12.3,5.2,19.3-.9,13.2-10.4,24.5-23.2,27.6-.6,0-1.4.3-1.9.5-.3,0-.4,0-.4.6v8.2c0,.5,0,.6.6.6h8.2c.6,0,.8,0,.8.8v7.4c0,.6,0,.8-.8.8h-8.1c-.6,0-.8,0-.8.8v7.6c0,.6,0,.8-.8.8h-7.5c-.4,0-.8,0-.8-.8v-7.5c0-.6-.3-.9-.9-.9h-7.8c-.6,0-.8,0-.8-.8v-7.4c0-.6,0-.8.8-.8h8.2c.4,0,.8,0,.8-.8v-7.8c0-.5,0-.8-.6-.8-12.2-2.2-20.6-9.1-24.6-20.7-4.9-14.2,1.6-29.9,14.9-36.8,4.9-2.6,10.2-3.8,15.6-3.4,6.3.3,11.9,2.4,17.1,6.3-.3-.1,0,0,0,0h-.2ZM78.4,55.2c0-12.4-10.2-22.6-22.4-22.6s-22.8,9.6-22.9,22.4,9.9,23,22.5,23,22.8-10,22.8-22.7Z"/>
  <path class="st0" d="M55.9,64.9h-13.4c-.6,0-.8,0-.8-.8v-5.7c0-.4,0-.6.6-.6h26.7c.5,0,.6,0,.6.8v5.7c0,.6,0,.8-.8.8h-13.1,0Z"/>
  <path class="st0" d="M55.7,46h13.2c.6,0,.8,0,.8.8v5.7c0,.4,0,.8-.6.8h-26.7c-.4,0-.8,0-.8-.8v-5.7c0-.6,0-.8.8-.8h13.3Z"/>
</svg>