<?xml version="1.0" encoding="UTF-8"?>
<svg id="Layer_1" xmlns="http://www.w3.org/2000/svg" version="1.1" viewBox="0 0 125 125">
  <!-- Generator: Adobe Illustrator 29.0.1, SVG Export Plug-In . SVG Version: 2.1.0 Build 192)  -->
  <defs>
    <style>
      .st0 {
        fill: #25bde2;
      }
    </style>
  </defs>
  <path class="st0" d="M76.4,97l-13.5,13.5-13.5-13.5h4.8c.6,0,.8,0,.8-.8-.3-3.1-.6-6.1-.9-9.3,0-1-.5-1.5-1.6-1.5h-12.2c-1.1,0-1.2,0-1.4-1.2-.8-4-1.4-8.2-2.1-12.3-.9-5.4-1.8-10.9-2.7-16.4-1.1-6.1-2.1-12.3-3-18.6-1.1-6.6-2.2-13.4-3.3-19.9,0-.6,0-1.2-.3-1.7,0-.8,0-.9.8-.9h68.6c.6,0,.8.3.8.9-.5,3.5-1,6.9-1.6,10.3-.8,4.8-1.5,9.6-2.2,14.4-.8,4.6-1.5,9.4-2.2,14.1-.8,4.8-1.5,9.4-2.2,14.2-.8,4.6-1.5,9.3-2.2,14,0,.8,0,1.4-.3,2.1s-.3.9-1,.9h-13.2c-.6,0-.9,0-.9.8,0,2.2-.3,4.5-.6,6.8,0,1,0,2.2-.3,3.3,0,.5,0,.6.6.6h5.2,0ZM92.8,29.2v-.3c.6-3.4,1.2-7.1,1.8-10.5,0-.7-.3-1.1-.9-1.1H31.1q-.8,0-.6.8l2.2,11.2c.3,1.4,1.2,2.1,2.7,1.9,3-.3,6-1.2,8.9-2.2,1.8-.6,3.4-1.2,5.4-1.2s4.2.4,6.3,1.2c2.7,1.1,5.4,2.1,8.1,3,4.3,1.4,8.8,1.6,13.2.6,3-.6,5.9-1.6,8.9-2.9,2.1-.8,4-1.2,6.3-.4h.3ZM62.9,40.6s-.3.3-.3.4c-3,4.6-6,9.1-9,13.8-1.8,2.6-2.6,5.4-2.2,8.4.3,3.9,2.2,6.8,5.6,8.7,2.4,1.4,5.1,1.5,7.8,1.2,5.9-.6,9.8-5.2,9.8-10.8s-.8-4.9-2.1-7.2c-3-4.8-6.1-9.4-9.1-14.2-.1,0-.1-.1-.3-.3Z"/>
</svg>