<?xml version="1.0" encoding="UTF-8"?>
<svg id="Layer_1" xmlns="http://www.w3.org/2000/svg" version="1.1" viewBox="0 0 125 125">
  <!-- Generator: Adobe Illustrator 29.0.1, SVG Export Plug-In . SVG Version: 2.1.0 Build 192)  -->
  <defs>
    <style>
      .st0 {
        fill: #fcc30c;
      }
    </style>
  </defs>
  <path class="st0" d="M62.4,35.1c15.3,0,27.6,12.3,27.6,27.6s-12,27.8-27.6,27.8-27.6-12.5-27.6-27.3,12.1-28.1,27.6-28ZM66.7,48.7v4.5c0,.6,0,1.1.8,1.4,3.5,2.1,5.1,6,4.2,9.9-1,4.9-5.4,7.9-10.5,7.3-4.2-.5-8.2-4.2-8.1-9.6,0-3.4,1.6-6.1,4.6-7.8.3-.3.4-.4.4-.9v-4.8c-2.7.9-4.8,2.2-6.6,4.4-2.4,2.9-3.6,6.1-3.4,9.9.3,8,6.8,14,14.6,14s14.3-6.3,14.4-14.1c0-3.8-1.2-7.1-3.6-9.9-1.8-1.9-3.9-3.3-6.5-4.2h-.3ZM64.5,50.7v-4.5c0-1.4-.9-2.2-2.1-2.2s-2.1.9-2.1,2.2v9c0,1.2.9,2.2,2.1,2.2s2.1-1.1,2.1-2.2v-4.5Z"/>
  <path class="st0" d="M87.6,22.8c0,.3,0,.8-.3,1.1-2,3.4-3.9,6.9-5.9,10.4-.6,1.1-2,1.4-3,.8s-1.5-1.9-.9-3c2-3.4,3.9-6.9,6-10.4.5-.9,1.6-1.2,2.7-.9.6,0,1.2,1.1,1.3,2.1Z"/>
  <path class="st0" d="M35.1,45.1c0,2.1-1.8,3.1-3.3,2.4-2.6-1.4-5.1-2.9-7.5-4.4-.9-.4-1.8-1.1-2.7-1.5-1.1-.6-1.5-1.9-.9-3s1.9-1.5,3.1-.8c3.4,1.9,6.8,3.9,10.2,5.9.8.3,1.1.9,1.1,1.4Z"/>
  <path class="st0" d="M45.1,35.2c-.6,0-1.4-.3-1.8-1.2-1.9-3.3-3.8-6.6-5.7-9.9-.3-.4-.4-1.1-.4-1.5,0-1.1.6-1.9,1.6-2.1,1.1-.3,1.9,0,2.6,1.1,1.9,3.4,3.9,6.9,5.9,10.4,1.1,1.5,0,3.3-2.1,3.3Z"/>
  <path class="st0" d="M47.8,92.2c0,.3,0,.8-.4,1-1.9,3.3-3.9,6.8-5.7,10-.8,1.2-1.9,1.5-3.1.9-1.1-.6-1.5-2-.8-3.1,1.9-3.5,3.9-6.8,5.9-10.2.6-.9,1.6-1.4,2.7-1,.8.3,1.4,1.2,1.5,2.4Z"/>
  <path class="st0" d="M104.5,85.3c0,1.6-1.8,2.9-3.3,2-3.5-2-6.9-3.9-10.4-5.9-1-.6-1.4-2-.8-3s2-1.5,3-.9c3.5,2,7,4,10.5,6,.6.3.9,1,.9,1.8Z"/>
  <path class="st0" d="M92.1,47.8c-1,0-2-.8-2.2-1.6-.3-1.1,0-2.1,1-2.6,3.5-1.9,6.8-3.9,10.2-5.9,1-.6,2.4-.3,3,.8s.3,2.4-.9,3.1c-3.3,1.9-6.8,3.9-10,5.9-.3,0-.8,0-1.1.3Z"/>
  <path class="st0" d="M35.1,79.5c0,.9-.3,1.6-1.2,2.1-3.4,2-6.8,3.9-10.2,5.9-1.1.6-2.6.3-3.1-.8-.6-1-.3-2.4.9-3,3.4-2,6.8-3.9,10.2-5.9,1.6-1.2,3.4,0,3.4,1.6Z"/>
  <path class="st0" d="M79.3,89.8c.9,0,1.5.3,2,1,2,3.5,3.9,6.8,5.9,10.2.8,1.5,0,3.1-1.6,3.3-.9,0-1.6,0-2.2-1-2-3.5-4-6.9-6-10.4-.6-1.4.5-3.1,2.1-3.1Z"/>
  <path class="st0" d="M102.4,64.8h-5.7c-1.5,0-2.4-.9-2.4-2.2s1-2.2,2.4-2.2h11.5c1,0,1.8.6,2.2,1.5.3.9,0,1.9-.8,2.4-.5.3-1,.4-1.5.4h-5.9v.2Z"/>
  <path class="st0" d="M60.1,22.5v-5.7c0-1.3.9-2.4,2.2-2.4s2.2,1.1,2.2,2.4v11.6c0,1.4-1.1,2.4-2.2,2.4s-2.2-1.1-2.2-2.4v-5.9Z"/>
  <path class="st0" d="M64.6,102.6v5.9c0,1-.6,1.8-1.5,2.1-.9.3-1.9,0-2.4-.8-.3-.5-.4-.9-.4-1.4v-11.9c0-1.4.9-2.2,2.2-2.2s2.2.9,2.2,2.2v6h-.1Z"/>
  <path class="st0" d="M22.5,64.8h-5.7c-1.3,0-2.4-.9-2.4-2.2s1.1-2.2,2.4-2.2h11.6c1.1,0,1.9.8,2.2,1.6s0,1.9-1.1,2.4c-.4,0-.9.3-1.4.3-1.9.1-3.9.1-5.7.2Z"/>
</svg>