<?xml version="1.0" encoding="UTF-8"?>
<svg id="Layer_1" xmlns="http://www.w3.org/2000/svg" version="1.1" viewBox="0 0 125 125">
  <!-- Generator: Adobe Illustrator 29.0.1, SVG Export Plug-In . SVG Version: 2.1.0 Build 192)  -->
  <defs>
    <style>
      .st0 {
        fill: #a21842;
      }
    </style>
  </defs>
  <path class="st0" d="M100.7,73.6v35.2c0,1.4-.3,1.6-1.6,1.6h-18.8c-1.4,0-1.6-.3-1.6-1.6v-50.2c0-1.4.5-2.4,1.5-3.4,6.3-5.9,12.6-11.9,18.8-17.8h0c.3-.3.8-.8,1.2-.4s.5.8.5,1.2v35.5h.1Z"/>
  <path class="st0" d="M73.3,87v22c0,1.2-.3,1.5-1.5,1.5h-18.9c-1.4,0-1.5-.3-1.5-1.6v-43.2h0c0-.5,0-1.2.4-1.4.4,0,1.1.3,1.4.6,2.7,2.7,5.4,5.5,8.1,8.2.6.8.8.8,1.4,0,3-3,5.8-5.9,8.8-8.9s.8-.9,1.5-.6c.6.3.5.9.5,1.5-.1,7.2-.1,14.5-.2,21.8Z"/>
  <path class="st0" d="M45.4,85.5v23.4c0,1.4-.3,1.6-1.6,1.6h-18.8c-1.4,0-1.5-.3-1.5-1.5v-27c0-1.2.4-2.1,1.4-3,6.3-6,12.6-12,18.9-18,.3-.3.8-.9,1.4-.6s.4.9.4,1.4c-.1,8-.1,15.9-.2,23.7Z"/>
  <path class="st0" d="M61.7,55.6c11.1-11.1,22.2-22.2,33.5-33.4-1-1.1-2.1-2.1-3.1-3.1s-.5-.6-.3-.8c0,0,.5-.4.8-.4,4.8-1.1,9.6-2.1,14.4-3.3.9,0,1.2,0,.9.9-1,5-2.1,9.8-3.1,14.7,0,.8-.6.8-1,.3-.9-.9-2-1.9-2.9-2.9,0,0-.3-.3-.6-.6,0,.3-.3.6-.5.8-12.1,12.1-24.5,24.4-36.6,36.6-.6.6-1.1.6-1.6,0l-14.2-14.2c-4.6-4.6-.3-.4-.4-.6h-.3c0,.3-.3.4-.4.8-7.8,7.8-15.6,15.6-23.4,23.4-.5.5-1,.5-1.5,0-1.2-1.2-2.4-2.4-3.6-3.6-.4-.5-.4-.8,0-1l28.4-28.4c9.5-9.5.8-.4,1.1,0l14.6,14.6c0,.3.3.4.3.6v-.2Z"/>
</svg>