<?xml version="1.0" encoding="UTF-8"?>
<svg id="Layer_1" xmlns="http://www.w3.org/2000/svg" version="1.1" viewBox="0 0 125 125">
  <!-- Generator: Adobe Illustrator 29.0.1, SVG Export Plug-In . SVG Version: 2.1.0 Build 192)  -->
  <defs>
    <style>
      .st0 {
        fill: #fd6924;
      }
    </style>
  </defs>
  <path class="st0" d="M14.5,82.6v-13c0-.9.3-1.5,1.1-1.8,7.1-4.1,14.2-8.2,21.3-12.3.6-.3.9-.8.9-1.5v-24.4c0-.9.3-1.5,1.2-2.1,7.5-4.2,14.8-8.6,22.3-12.9.8-.4,1.5-.4,2.2,0,7.5,4.3,15,8.7,22.5,12.9.8.4,1,1.1,1,1.9v24.8c0,.6,0,.9.8,1.2,7,4.1,14.1,8.2,21.3,12.3.9.5,1.4,1.2,1.4,2.2v25.8c0,.9-.3,1.5-1,1.8-7.4,4.2-14.9,8.5-22.2,12.9-.9.6-1.8.6-2.7,0-7-4-14.1-8.2-21.1-12.3-.4-.3-.8-.3-1.4,0-7.2,4.2-14.2,8.2-21.4,12.5-.8.5-1.5.5-2.2,0-7.5-4.4-14.8-8.5-22.3-12.9-.9-.5-1.2-1-1.2-2.1-.3-4.4-.3-8.5-.3-12.9ZM107.4,71.8c-.3,0-.6.3-.8.3-6.3,3.6-12.6,7.4-19,11-.5.3-.6.6-.6,1v22.5c.3,0,.5-.3.8-.3,6.3-3.6,12.6-7.4,19-11,.5-.3.6-.6.6-1.2v-21.8c0,.1,0,0,0-.6ZM17.4,71.8v22.6c0,.5,0,.8.6.9,6.3,3.6,12.8,7.4,19.1,11,0,0,.4,0,.6.3v-22.6c0-.5,0-.8-.6-1-6.3-3.6-12.6-7.4-19.1-11h-.6ZM105.9,69.2c-.3-.3-.6-.5-.9-.6-6.3-3.6-12.6-7.2-18.9-10.9h-.9c-6.3,3.6-12.8,7.3-19,10.9,0,0-.3.3-.6.5.3,0,.5.3.8.5,6.3,3.6,12.6,7.2,18.8,10.8.5.3.9.3,1.4,0,5.7-3.3,11.2-6.6,17-9.8.8-.3,1.5-.9,2.5-1.4ZM63.9,44.9v21.6c6.3-3.6,12.5-7.2,18.8-10.8-6.3-3.6-12.5-7.2-18.8-10.8ZM84.1,31.6c-6.3,3.6-12.5,7.2-18.8,10.8,6.3,3.6,12.5,7.2,18.8,10.8v-21.6ZM40.6,31.6v21.6c6.3-3.6,12.4-7.2,18.8-10.8-6.3-3.6-12.4-7.2-18.8-10.8ZM40.6,106.9c6.3-3.6,12.4-7.2,18.8-10.8-6.3-3.6-12.4-7.2-18.8-10.8,0,0,0,21.6,0,21.6ZM42.1,82.6c6.3,3.6,12.4,7.2,18.8,10.8v-21.6c-6.3,3.6-12.4,7.2-18.8,10.8ZM42.1,55.7c6.3,3.6,12.4,7.2,18.8,10.8v-21.6c-6.3,3.6-12.4,7.2-18.8,10.8Z"/>
</svg>