<svg width="649" height="490" viewBox="0 0 649 490" fill="none" xmlns="http://www.w3.org/2000/svg">
<path fill-rule="evenodd" clip-rule="evenodd" d="M648.499 56.9504V0.667969H581.499V56.9504C581.499 96.3447 543.359 124.484 505.718 112.861L405.971 82.0587C331.622 59.0996 267.974 139.68 307.528 206.69C315.549 220.279 303.597 236.922 288.158 233.663L278.67 231.66C209.275 217.01 151.265 285.119 176.771 351.298L184.674 371.803C196.892 403.504 155.149 427.76 133.656 401.448C99.7796 359.975 40.2812 354.842 0 385.551V489.294L35.0744 444.352C46.8681 429.24 69.6402 428.987 81.7669 443.833C151.455 529.149 286.808 450.499 247.192 347.709L239.289 327.203C232.896 310.615 247.436 293.543 264.83 297.215L274.318 299.218C346.777 314.515 402.871 236.407 365.226 172.632C356.798 158.354 370.36 141.184 386.202 146.076L485.95 176.878C566.688 201.81 648.499 141.451 648.499 56.9504Z" fill="#D2F960"/>
</svg>
