<svg width="561" height="752" viewBox="0 0 561 752" fill="none" xmlns="http://www.w3.org/2000/svg">
<path fill-rule="evenodd" clip-rule="evenodd" d="M416.406 0.565852C374.388 -3.19576 332.874 11.9346 303.13 41.8515L293.542 51.4955C234.452 110.928 245.604 209.796 316.448 254.573L364.71 285.077C383.04 296.662 377.565 324.729 356.224 328.576C265.54 344.922 234.984 459.563 305.503 518.875L384.092 584.974C387.167 587.56 389.886 590.541 392.18 593.839C418.537 631.737 378.378 680.322 336.197 661.568L180.773 592.466C177.629 590.223 174.238 588.451 170.701 587.152L170.737 587.072C170.748 587.077 170.754 587.079 170.754 587.079L170.749 587.047L170.737 587.072C170.036 586.795 147.084 577.712 140.344 572.939C138.175 571.402 135.942 567.643 133.609 563.715C131.689 560.484 129.702 557.138 127.625 554.819C125.008 551.897 122.147 549.213 119.08 546.767L91.6802 524.888C89.172 522.88 85.5977 522.915 83.1102 524.961C79.931 527.587 80.6157 531.72 82.8212 535.204C84.9301 538.551 88.61 541.789 92.0589 544.823C97.5159 549.624 102.395 553.917 99.559 557.332C95.0896 562.714 70.0357 547.898 51.7616 537.092C47.3277 534.47 43.293 532.084 40.0482 530.28C36.1525 528.117 31.24 529.682 29.3113 533.704C27.541 537.399 28.9572 541.826 32.5455 543.81L68.3697 563.565C69.9011 564.409 70.4313 566.361 69.5281 567.875C68.6652 569.3 66.8342 569.798 65.3716 568.996L16.9225 542.334C13.0882 540.229 8.26804 541.718 6.30355 545.627C4.44245 549.329 5.8175 553.825 9.43066 555.84L56.8351 582.191C58.4718 583.102 59.0496 585.163 58.1309 586.797C57.2423 588.385 55.2523 588.976 53.6382 588.144L11.0593 566.226C7.54854 564.414 3.22272 565.885 1.52354 569.467C-0.0311929 572.775 1.21237 576.705 4.37458 578.514L45.3692 601.947C47.1809 602.986 47.9006 605.248 47.011 607.138C46.0224 609.244 43.4632 610.082 41.4187 608.956L14.3148 594.027C10.6826 592.033 6.09679 593.542 4.37697 597.319C2.84712 600.657 4.09951 604.611 7.2705 606.444L79.6537 644.597C86.7389 648.355 98.9579 652.861 106.901 655.79L107.91 656.162L139.413 667.1L301.665 739.238C422.442 792.936 537.431 653.822 461.963 545.308C455.395 535.863 447.608 527.328 438.805 519.924L360.216 453.824C344.801 440.86 351.48 415.801 371.303 412.228C468.933 394.63 493.981 266.227 410.123 213.225L361.862 182.722C336.99 167.001 333.074 132.291 353.819 111.425L363.408 101.781C375.334 89.7857 391.979 83.719 408.827 85.2273L553.104 98.1433L560.683 13.4819L416.406 0.565852Z" fill="#0368B1"/>
</svg>
