<svg width="154" height="144" viewBox="0 0 154 144" fill="none" xmlns="http://www.w3.org/2000/svg">
<path d="M92.4821 11.1297L92.5449 11.2028C96.6469 7.10386 101.791 3.94511 107.741 2.19174C126.732 -3.41241 146.673 7.44216 152.282 26.4388C156.149 39.5434 152.175 53.0975 143.107 62.0856L143.151 62.1361L122.853 83.1508C117.872 88.1122 109.71 96.3028 104.133 100.536L49.7041 142.072C47.1971 143.835 43.7547 143.395 41.7583 141.059C39.4959 138.425 39.9633 134.412 42.7551 132.356L63.6237 117.029C65.1973 115.873 65.4617 113.635 64.2099 112.143C63.0883 110.803 61.1173 110.554 59.6913 111.564L27.4805 134.446C24.9943 136.211 21.5728 135.773 19.6086 133.429C17.4868 130.879 17.891 127.077 20.5021 125.049L52.1202 100.431C53.3198 99.4979 53.5711 97.779 52.6777 96.5456C51.7609 95.2737 49.9923 94.9871 48.7252 95.9095L12.0435 122.632C9.2428 124.666 5.34578 124.129 3.18927 121.413C0.912944 118.547 1.47737 114.363 4.42489 112.193L41.7098 84.7868C42.8332 83.9585 43.0991 82.393 42.3206 81.2366C41.489 80.0184 39.82 79.7341 38.6412 80.6002L11.0406 100.85C8.27198 102.877 4.41274 102.395 2.22979 99.7509C-0.14531 96.8718 0.394893 92.5918 3.40742 90.3948C16.2681 81.0279 48.0034 61.2965 44.8794 54.7273C42.276 49.2529 30.6697 58.5575 22.1912 59.6516C18.7706 60.1007 15.392 59.1669 14.5165 55.8294C13.8378 53.2209 15.0686 50.4949 17.475 49.2967L43.7247 36.1896C46.6608 34.7219 49.7049 33.4934 52.8439 32.5346C58.3641 30.8483 67.5572 31.2681 71.0759 29.2513C77.1637 25.7599 92.5078 11.137 92.5078 11.137L92.4821 11.1297Z" fill="#81C2F2"/>
</svg>
