<svg width="582" height="338" viewBox="0 0 582 338" fill="none" xmlns="http://www.w3.org/2000/svg">
<path fill-rule="evenodd" clip-rule="evenodd" d="M92.5729 158.846L96.0415 182.597C102.773 228.691 159.327 242.697 192.571 206.504C247.571 146.624 336.128 138.509 391.313 188.291L432.176 225.153C474.427 263.267 538.008 258.668 581.523 222.246V317.996C512.641 349.478 431.132 343.706 372.95 291.221L332.088 254.359C309.85 234.298 274.164 237.568 252 261.698C169.504 351.513 29.1617 316.755 12.4573 202.372L9.6672 183.267C8.9022 180.831 8.3523 178.322 8.03068 175.771L7.95116 175.775L2.83196 141.236C2.78739 140.89 2.74154 140.533 2.6946 140.169C1.61351 131.772 -0.0494018 118.856 0.00112494 110.836L0.309607 29.0136C0.466232 25.3543 3.39094 22.4138 7.05807 22.2244C11.2018 22.0004 14.6624 25.3666 14.5763 29.5094L13.8916 60.4452C13.8405 62.7784 15.7676 64.6592 18.0927 64.5601C20.1793 64.4738 21.8515 62.7884 21.9336 60.7016L23.7248 13.5167C23.8647 9.8761 26.7727 6.95428 30.4241 6.80119C34.3856 6.64906 37.6929 9.80198 37.7115 13.753L37.9965 61.641C38.0061 63.457 39.4512 64.9473 41.2706 64.9996C43.1434 65.0578 44.7035 63.5911 44.7529 61.7188L46.1638 7.501C46.277 3.36559 49.6253 0.0654543 53.7688 0.000954557C58.1425 -0.0671286 61.6946 3.51569 61.6032 7.88917L60.4007 63.1767C60.3668 64.8444 61.6561 66.2368 63.3188 66.3419C65.0787 66.4417 66.5639 65.0677 66.6024 63.32L67.5282 22.4201C67.6256 18.321 70.8939 15.0163 74.9889 14.8747C79.4467 14.7223 83.1077 18.3524 82.994 22.8068C82.8971 26.5181 82.6502 31.199 82.3788 36.343C81.2606 57.5435 79.7274 86.6097 86.567 88.0797C90.9068 89.0124 92.4529 82.7005 94.1822 75.6408C95.2751 71.1789 96.4412 66.4184 98.432 62.9993C100.499 59.4317 103.845 56.9115 107.644 58.5138C110.61 59.7712 112.296 62.9233 111.677 66.0758L104.969 100.492C104.22 104.343 103.166 108.121 101.788 111.793C100.693 114.708 98.6478 118.019 96.6725 121.216C94.2708 125.103 91.973 128.822 91.6146 131.457C90.8396 137.167 91.859 150.845 92.5729 158.846Z" fill="#0368B1"/>
</svg>
