<svg width="725" height="301" viewBox="0 0 725 301" fill="none" xmlns="http://www.w3.org/2000/svg">
<path fill-rule="evenodd" clip-rule="evenodd" d="M585.772 0L632.186 82.8808C633.973 86.0725 635.551 89.327 636.924 92.6279C653.972 133.607 639.414 181.746 601.072 206.084C560.203 232.026 506.242 222.043 477.359 183.196L417.524 102.72C332.29 -11.9159 165.456 -22.9378 65.813 77.6184C60.6608 81.8565 54.8085 86.8355 51.2047 90.6647L1.54711 143.159C-0.582405 145.594 -0.504389 149.256 1.7245 151.611C4.23699 154.279 8.50029 154.236 10.9694 151.535L29.381 131.342C30.77 129.819 33.1479 129.791 34.5739 131.271C35.8552 132.597 35.8973 134.694 34.6783 136.078L7.0734 167.333C4.94459 169.746 5.02331 173.385 7.26425 175.708C9.70402 178.219 13.7393 178.219 16.1587 175.704L45.5192 145.264C46.6318 144.109 48.4637 144.037 49.6586 145.112C50.8913 146.216 50.9949 148.104 49.8857 149.331L17.7526 184.851C15.3052 187.563 15.4349 191.713 18.0444 194.279C20.7989 196.988 25.2527 196.861 27.859 194.01L60.7772 157.934C61.7717 156.847 63.4443 156.742 64.5712 157.688C65.757 158.697 65.8694 160.48 64.829 161.621L40.5005 188.331C38.0651 191.011 38.1409 195.115 40.6724 197.7C43.4293 200.514 47.9814 200.424 50.6229 197.507C52.8216 195.076 55.5149 191.934 58.4747 188.482L58.4771 188.479L58.4777 188.478C70.6805 174.244 87.41 154.73 92.678 157.957C96.0206 160.005 93.1631 164.982 89.9671 170.549L89.9668 170.549C87.9469 174.067 85.7919 177.821 84.9813 181.22C84.1288 184.76 84.7323 188.409 88.1375 189.7C90.7994 190.703 93.7976 189.715 95.3232 187.323L112.005 161.235C113.872 158.317 115.501 155.259 116.857 152.072C117.933 149.542 118.643 146.179 119.328 142.932C119.85 140.458 120.358 138.052 121.002 136.132C185.985 68.2995 296.72 74.9332 353.032 150.671L412.867 231.147C466.861 303.768 567.738 322.431 644.14 273.934C702.664 236.786 731.546 169.974 722.829 105.006C720.01 83.994 713.258 63.1749 702.304 43.6144L677.88 0H585.772Z" fill="#81C2F2"/>
</svg>
