<svg width="403" height="367" viewBox="0 0 403 367" fill="none" xmlns="http://www.w3.org/2000/svg">
<path fill-rule="evenodd" clip-rule="evenodd" d="M403 151.047C356.395 27.1814 213.963 -33.7422 91.3061 20.6893C84.9605 22.7648 77.6873 25.2778 72.9324 27.5366L7.58437 58.3782C4.71526 59.8717 3.45626 63.3111 4.67593 66.3159C6.04612 69.7149 10.0333 71.225 13.3156 69.607L37.8102 57.4919C39.6578 56.5786 41.8831 57.4171 42.6732 59.3144C43.3844 61.016 42.6613 62.9842 41.0224 63.8302L3.94115 82.9063C1.08072 84.3795 -0.169583 87.7986 1.07325 90.7772C2.43278 94.0036 6.19196 95.4707 9.36007 94.0083L47.7801 76.3303C49.2366 75.6589 50.9693 76.2579 51.6914 77.6939C52.4383 79.1705 51.8482 80.967 50.3686 81.7067L7.51844 103.108C4.25219 104.745 2.86381 108.658 4.36155 111.997C5.94248 115.522 10.1372 117.024 13.602 115.316L57.386 93.6808C58.7076 93.0301 60.3037 93.541 61.0095 94.832C61.7474 96.2027 61.2035 97.9047 59.8196 98.589L27.4432 114.623C24.2001 116.233 22.7782 120.084 24.196 123.413C25.7409 127.037 30.0141 128.608 33.5355 126.852C36.4676 125.387 40.1191 123.44 44.1317 121.3L44.135 121.298L44.1359 121.298C60.6796 112.476 83.3605 100.382 87.094 105.304C89.463 108.427 84.9911 112.024 79.9895 116.048L79.9891 116.048C76.8281 118.591 73.4556 121.304 71.4645 124.175C69.383 127.162 68.6179 130.782 71.3205 133.222C73.4354 135.125 76.5875 135.295 78.8786 133.621L103.905 115.386C106.706 113.347 109.335 111.091 111.758 108.614C113.68 106.649 115.564 103.775 117.384 100.999C118.768 98.8867 120.115 96.8315 121.413 95.2775C206.615 55.7194 307.357 102.169 332.271 193.202L358.742 289.927C366.913 319.781 382.488 345.75 403 366.303V151.047Z" fill="#81C2F2"/>
</svg>
