<svg width="641" height="353" viewBox="0 0 641 353" fill="none" xmlns="http://www.w3.org/2000/svg">
<path fill-rule="evenodd" clip-rule="evenodd" d="M641 83.5451C594.968 76.7376 545.191 97.0271 520.616 145.789L461.588 262.919C455.846 274.312 444.175 281.5 431.416 281.5C416.431 281.5 403.236 271.63 399.005 257.255L347.911 83.6912L344.388 73.4827C317.568 -4.2328 215.671 -21.9992 164.133 42.0546C149.556 60.1713 121.414 58.3129 109.346 38.4367L84.5859 0H0.585938L48.6565 75.2841C86.2768 137.247 174.009 143.041 219.45 86.5629C235.982 66.016 268.669 71.715 277.272 96.6443L280.262 105.308L330.894 277.305C344.019 321.888 384.941 352.5 431.416 352.5C470.987 352.5 507.183 330.209 524.991 294.872L584.02 177.742C595.423 155.115 620.911 148.401 641 156.673V83.5451Z" fill="#AFE69D"/>
</svg>
