<svg width="564" height="273" viewBox="0 0 564 273" fill="none" xmlns="http://www.w3.org/2000/svg">
<path fill-rule="evenodd" clip-rule="evenodd" d="M121.232 86.3968L121.117 86.5029C116.88 81.5274 110.417 73.6796 108.37 69.786C107.376 67.8955 107.146 64.3923 106.906 60.731C106.708 57.7196 106.504 54.6011 105.861 52.185C105.052 49.1408 103.981 46.1782 102.676 43.3107L91.028 17.6751C89.9635 15.3252 87.3923 14.049 84.8667 14.6083C81.6351 15.3306 80.6208 18.5381 80.9313 21.8345C81.2224 24.9983 82.6778 28.6553 84.0419 32.0829C86.2003 37.5061 88.1301 42.3548 84.857 43.7668C79.6986 45.9922 67.1583 26.267 58.0114 11.8796L58.0114 11.8796L58.0113 11.8795C55.792 8.38868 53.7725 5.21213 52.1067 2.73957C50.1055 -0.226819 46.0197 -0.895281 43.175 1.28145C40.5626 3.28214 39.9648 6.96645 41.811 9.69288L60.2625 36.875C61.0517 38.036 60.7204 39.6267 59.5228 40.3815C58.3864 41.0875 56.8944 40.7775 56.1395 39.6709L31.1651 2.94954C29.1872 0.0464427 25.1945 -0.641856 22.3656 1.44058C19.6856 3.41341 19.0332 7.132 20.8861 9.88951L45.2256 46.0083C46.0657 47.256 45.7288 48.9421 44.4767 49.7767C43.2624 50.5902 41.6227 50.2888 40.7703 49.1055L18.2709 17.917C16.4178 15.3414 12.7856 14.8203 10.2654 16.7656C7.94849 18.5671 7.40789 21.8331 9.0127 24.2794L29.8267 55.9755C30.7453 57.3787 30.4368 59.2602 29.1123 60.2888C27.6377 61.437 25.501 61.1048 24.4472 59.5549L10.4807 39.0022C8.6068 36.2524 4.77493 35.6632 2.16906 37.7405C-0.141201 39.573 -0.684014 42.859 0.918546 45.3253L38.8414 98.9856C42.545 104.254 49.6508 111.927 54.2704 116.916L54.8577 117.55L70.3427 133.643L70.3094 133.674L166.047 234.098C211.956 281.2 287.875 280.509 332.921 232.581L379.505 183.015C386.306 175.779 395.795 171.675 405.725 171.675C418.8 171.675 430.845 178.767 437.189 190.199L482.679 272.174H563.879L499.271 155.748C480.409 121.759 444.597 100.675 405.725 100.675C376.201 100.675 347.989 112.877 327.769 134.391L281.184 183.956C263.829 202.422 234.579 202.688 216.891 184.541L121.232 86.3968Z" fill="#61BB45"/>
</svg>
