<svg width="587" height="678" viewBox="0 0 587 678" fill="none" xmlns="http://www.w3.org/2000/svg">
<path fill-rule="evenodd" clip-rule="evenodd" d="M0 504.98L91.8418 584.487C110.714 600.825 137.637 604.016 159.806 592.542L175.016 584.67C192.674 575.53 204.77 558.359 207.43 538.655L217.31 465.449C218.946 453.33 216.901 440.998 211.441 430.055L188.876 384.831C151.678 310.281 204.518 222.335 287.805 220.174L341.571 218.779C354.952 218.432 360.972 201.859 350.932 193.005C288.139 137.627 325.086 33.9685 408.75 30.7923L425.753 30.1468C427.946 29.7607 430.152 29.5659 432.349 29.5551L432.343 29.4752C433.034 29.455 455.621 28.7809 462.909 26.7698C465.255 26.1216 468.348 23.5809 471.579 20.9254L471.58 20.925C474.238 18.741 476.991 16.4794 479.501 15.1295C482.663 13.4284 485.962 12.0088 489.364 10.8572L519.765 0.551349C522.549 -0.396062 525.615 0.746726 527.12 3.28302C529.039 6.53355 527.163 9.87834 524.18 12.1908C521.322 14.4161 517.146 16.0578 513.232 17.5964C507.039 20.0309 501.503 22.2076 502.881 26.0304C505.053 32.0553 531.235 27.1004 550.332 23.4863C554.965 22.6094 559.182 21.8114 562.537 21.2684C566.564 20.6191 570.306 23.4953 570.715 27.5583C571.088 31.2908 568.491 34.6612 564.784 35.2522L527.792 41.1071C526.211 41.3563 525.146 42.8723 525.453 44.4567C525.752 45.9523 527.173 46.9512 528.682 46.7159L578.694 38.8458C582.65 38.2266 586.336 41.0099 586.811 44.9862C587.26 48.7533 584.677 52.1957 580.939 52.8054L531.924 60.7335C530.231 61.0079 529.092 62.603 529.374 64.295C529.645 65.9392 531.174 67.0676 532.823 66.8536L576.303 61.2402C579.89 60.7727 583.156 63.3865 583.504 66.9993C583.813 70.3307 581.518 73.3272 578.233 73.9006L535.644 81.3112C533.761 81.6416 532.437 83.3654 532.615 85.269C532.81 87.3906 534.753 88.9083 536.863 88.5758L564.845 84.1614C568.593 83.5752 572.071 86.3021 572.376 90.0889C572.654 93.4391 570.345 96.453 567.044 97.0438L492.85 107.357C485.58 108.386 473.658 108.461 465.908 108.51L464.922 108.516L432.96 108.107L432.954 108.034C432.307 108.04 431.66 108.029 431.014 108.003L411.709 108.736C398.418 109.241 392.549 125.708 402.524 134.505C465.724 190.242 427.832 294.567 343.594 296.753L289.828 298.148C263.596 298.828 246.955 326.527 258.67 350.007L281.235 395.231C293.677 420.166 298.337 448.266 294.609 475.882L284.729 549.088C278.669 593.987 251.106 633.116 210.869 653.941L195.659 661.814C145.143 687.959 83.7946 680.688 40.7899 643.459L0 608.147V504.98ZM432.343 29.4752L432.326 29.4756L432.341 29.4501L432.343 29.4752Z" fill="#0368B1"/>
</svg>
